<svg width="61" height="60" viewBox="0 0 61 60" fill="none" xmlns="http://www.w3.org/2000/svg">
<g clip-path="url(#clip0)">
<path d="M39.1327 7.83069C39.1327 8.06349 39.1327 8.25397 39.1327 8.44444C39.1327 12.7619 39.1328 17.0794 39.1539 21.3968C39.1539 21.7143 39.3021 22.0952 39.4925 22.3492C45.2703 29.5873 51.0481 36.8254 56.8259 44.0423C58.773 46.4762 59.8312 49.2275 60.0005 52.3386C60.1909 55.9788 57.7148 59.2169 54.1592 59.873C53.6301 59.9788 53.0798 60 52.5296 60C37.5031 60 22.4767 60 7.45021 60C3.59836 60 0.614234 57.5661 0.0851337 53.8413C-0.274655 51.3227 0.317938 48.9312 1.48196 46.6878C1.96873 45.7355 2.58249 44.8466 3.23857 44C8.93169 36.8466 14.646 29.7354 20.3603 22.6032C20.7201 22.1587 20.8894 21.7143 20.8894 21.1217C20.8682 16.9312 20.8682 12.7196 20.8682 8.5291C20.8682 8.31746 20.8682 8.10582 20.8682 7.83069C20.4449 7.83069 20.064 7.83069 19.7042 7.83069C19.1539 7.80952 18.9211 7.59788 18.9211 7.04762C18.9211 4.95238 18.9211 2.85714 18.9211 0.761905C18.9211 0.275132 19.1751 0 19.683 0C19.81 0 19.937 0 20.0428 0C26.6883 0 33.3338 0 39.9793 0C40.9317 0 41.0798 0.148148 41.0798 1.10053C41.0798 3.04762 41.0798 4.97355 41.0798 6.92064C41.0798 7.61905 40.8682 7.83069 40.1698 7.83069C39.8523 7.83069 39.5137 7.83069 39.1327 7.83069ZM1.63011 50.1799C6.11688 50.1799 10.5402 50.1799 14.9846 50.1799C14.9846 48.8677 14.9846 47.5979 14.9846 46.2857C14.7941 46.2434 14.6248 46.2011 14.4555 46.1587C11.8735 45.6296 9.88407 43.3228 9.79942 40.6984C9.77825 40 10.0111 39.746 10.6883 39.7884C12.3814 39.873 13.7783 40.5503 14.8999 41.8201C15.1751 42.1376 15.4079 42.5185 15.683 42.8783C15.7465 42.7937 15.7888 42.709 15.8312 42.6455C15.8947 42.5608 15.937 42.4762 16.0005 42.3704C17.1433 40.7407 18.6883 39.873 20.6777 39.7672C21.3126 39.746 21.5666 39.9788 21.5243 40.6138C21.4396 42.5185 20.6566 44.0847 19.0904 45.1429C18.2862 45.6931 17.3126 45.9894 16.3814 46.4339C16.3814 47.5979 16.3814 48.8677 16.3814 50.1376C20.7201 50.1376 25.0375 50.1376 29.355 50.1376C29.355 48.8042 29.355 47.5344 29.355 46.2434C29.1222 46.2011 28.9105 46.1587 28.6989 46.1164C26.1804 45.5873 24.2121 43.1746 24.1698 40.6138C24.1698 39.9788 24.3814 39.7249 25.0163 39.7672C27.0269 39.8518 28.5719 40.7619 29.7148 42.4127C29.8206 42.5608 29.9052 42.6878 30.0322 42.8783C30.1592 42.6878 30.2439 42.5608 30.3497 42.4127C31.4925 40.7619 33.0375 39.873 35.0481 39.7672C35.683 39.746 35.9581 40 35.9158 40.6138C35.81 42.5185 35.0269 44.1058 33.4185 45.164C32.6142 45.6931 31.6618 46.0106 30.7306 46.4339C30.7306 47.5767 30.7306 48.8466 30.7306 50.1376C35.0693 50.1376 39.3867 50.1376 43.7465 50.1376C43.7465 49.4603 43.7465 48.8254 43.7465 48.1905C43.7465 47.5344 43.7465 46.8995 43.7465 46.2434C43.4925 46.1799 43.3021 46.1376 43.1116 46.1164C40.5719 45.6085 38.5613 43.1958 38.519 40.6138C38.4978 40 38.7518 39.7249 39.3867 39.7672C39.937 39.8095 40.4661 39.8942 40.9952 40.0423C42.4978 40.4868 43.5772 41.4815 44.4026 42.8783C44.5296 42.709 44.6142 42.5608 44.7201 42.4127C45.8417 40.7619 47.4079 39.8518 49.4185 39.7672C50.0534 39.746 50.3074 39.9577 50.2862 40.5926C50.2015 42.4974 49.3973 44 47.8735 45.1429C47.0481 45.7566 46.1169 46.0952 45.1222 46.2434C45.1222 47.5767 45.1222 48.8466 45.1222 50.1587C49.5666 50.1587 53.9899 50.1587 58.4343 50.1587C58.4132 49.9894 58.4132 49.8413 58.3708 49.7143C57.9476 47.9788 57.101 46.4339 56.0005 45.037C55.1962 44 54.3497 42.963 53.5243 41.9259C48.4238 35.5556 43.3232 29.1852 38.2227 22.7936C38.0534 22.582 37.8841 22.2646 37.8841 21.9894C37.8629 17.0794 37.8629 12.1905 37.8629 7.28042C37.8629 6.73016 38.0957 6.51852 38.646 6.49735C39.0269 6.47619 39.4079 6.49735 39.7888 6.49735C39.7888 4.69841 39.7888 3.00529 39.7888 1.31217C33.2703 1.31217 26.7941 1.31217 20.3179 1.31217C20.3179 3.04762 20.3179 4.7619 20.3179 6.49735C20.6566 6.49735 20.9529 6.49735 21.2492 6.49735C22.0534 6.49735 22.2015 6.66667 22.2015 7.44974C22.2015 12.2328 22.2015 17.0159 22.1804 21.7778C22.1804 22.1376 22.0322 22.5397 21.7994 22.8148C15.937 30.1587 10.0746 37.5026 4.21212 44.8466C2.96344 46.4339 2.03222 48.1481 1.63011 50.1799ZM1.41847 51.5556C1.3973 51.7884 1.35497 52 1.33381 52.2116C1.12217 55.9577 3.68302 58.6878 7.45021 58.6878C22.4978 58.709 37.5243 58.6878 52.5719 58.6878C53.8841 58.6878 55.1116 58.3492 56.2121 57.6085C58.0746 56.3386 59.1328 53.672 58.5613 51.5556C39.5349 51.5556 20.5084 51.5556 1.41847 51.5556ZM43.6195 44.8677C43.3021 42.9418 41.482 41.1852 39.8735 41.2275C40.1063 43.0476 41.8841 44.7831 43.6195 44.8677ZM30.773 44.8889C32.6142 44.6984 34.392 42.8995 34.4555 41.2275C32.6989 41.3333 30.8999 43.1111 30.773 44.8889ZM16.4026 44.8466C18.138 44.8254 20.2121 42.7302 20.0851 41.1852C18.2227 41.4603 16.6354 43.0476 16.4026 44.8466ZM45.1222 44.8466C46.8788 44.7619 48.847 42.7725 48.7835 41.1852C46.9846 41.3757 45.2491 43.1111 45.1222 44.8466ZM25.5878 41.2063C25.5243 42.7937 27.7465 44.9947 29.2492 44.8254C29.1222 43.1111 27.3656 41.3757 25.5878 41.2063ZM11.1962 41.1852C11.3232 42.963 13.3973 44.9947 14.9211 44.8042C14.6037 42.9418 13.0587 41.418 11.1962 41.1852Z" fill="#FFD93D"/>
<path d="M58.667 1.26984C59.0903 1.26984 59.4924 1.26984 59.9792 1.26984C59.9792 1.73545 59.9792 2.13757 59.9792 2.64551C59.5347 2.64551 59.1114 2.64551 58.667 2.64551L58.6882 2.66667C58.667 2.1799 58.667 1.73545 58.667 1.26984Z" fill="#FFD93D"/>
<path d="M11.8102 16.9312C11.7891 17.3545 11.7679 17.7778 11.7467 18.2222C11.3234 18.2222 10.9425 18.2222 10.498 18.2222C10.498 17.8201 10.498 17.4391 10.498 16.9524C10.9213 16.9524 11.3658 16.9524 11.8102 16.9312C11.8102 16.9312 11.8102 16.9524 11.8102 16.9312Z" fill="#FFD93D"/>
<path d="M50.8154 18.963C51.2387 18.963 51.6831 18.963 52.1487 18.963C52.1487 19.3862 52.1487 19.7672 52.1487 20.2116C51.6831 20.2116 51.2599 20.2116 50.8154 20.2116L50.8366 20.2328C50.8366 19.8095 50.8366 19.3862 50.8366 18.9418L50.8154 18.963Z" fill="#FFD93D"/>
<path d="M57.3974 2.64551C56.9742 2.64551 56.5721 2.64551 56.1064 2.64551C56.1064 2.15873 56.1064 1.75662 56.1064 1.26984C56.5509 1.26984 56.9742 1.26984 57.3974 1.26984C57.3974 1.73545 57.3974 2.1799 57.3974 2.64551Z" fill="#FFD93D"/>
<path d="M49.5879 18.963C49.5879 18.5397 49.5879 18.0952 49.5879 17.6296C50.0323 17.6296 50.4133 17.6296 50.8366 17.6296C50.8366 18.0952 50.8366 18.5185 50.8366 18.963L50.8577 18.9418C50.4133 18.9418 49.99 18.9418 49.5879 18.963Z" fill="#FFD93D"/>
<path d="M13.0801 16.9101C13.4822 16.9312 13.8843 16.9524 14.3076 16.9947C14.3076 17.418 14.3076 17.7989 14.3076 18.2222C13.9055 18.2646 13.5034 18.328 13.0801 18.3704V18.3915C13.1012 17.8624 13.1012 17.3757 13.0801 16.9101C13.0801 16.9101 13.1012 16.8889 13.0801 16.9101Z" fill="#FFD93D"/>
<path d="M2.58234 5.79894C2.58234 6.24339 2.58234 6.66667 2.58234 7.13228C2.20139 7.13228 1.79927 7.13228 1.33366 7.13228C1.33366 6.68783 1.33366 6.24339 1.33366 5.79894L1.3125 5.82011C1.73578 5.82011 2.15906 5.82011 2.60351 5.82011L2.58234 5.79894Z" fill="#FFD93D"/>
<path d="M2.58203 4.55026C3.02648 4.55026 3.44976 4.55026 3.91537 4.55026C3.91537 5.01587 3.91537 5.39682 3.91537 5.88359C3.44976 5.86243 3.00531 5.8201 2.58203 5.79894L2.6032 5.8201C2.58203 5.39682 2.58203 4.97354 2.58203 4.55026Z" fill="#FFD93D"/>
<path d="M50.8158 20.2116C50.8158 20.6349 50.8158 21.037 50.8158 21.4815C50.4136 21.4815 50.0115 21.4815 49.5671 21.4815C49.5671 21.037 49.5671 20.6138 49.5671 20.2116L49.5459 20.2328C49.9903 20.2116 50.4136 20.2116 50.8158 20.2116Z" fill="#FFD93D"/>
<path d="M49.5882 20.2116C49.1649 20.2116 48.7628 20.2116 48.3184 20.2116C48.3184 19.7672 48.3184 19.3862 48.3184 18.963C48.7628 18.963 49.1861 18.963 49.5882 18.963L49.567 18.9418C49.567 19.3651 49.5671 19.7884 49.5882 20.2116Z" fill="#FFD93D"/>
<path d="M13.1006 18.3492C13.0794 18.7301 13.0582 19.1111 13.0371 19.5344C12.635 19.5344 12.2329 19.5344 11.8096 19.5344C11.8096 19.1323 11.8096 18.7513 11.8096 18.2434C12.2329 18.2857 12.6773 18.328 13.1006 18.3492C13.1006 18.3492 13.1006 18.3704 13.1006 18.3492Z" fill="#FFD93D"/>
<path d="M13.1006 16.8889C12.6561 16.91 12.2329 16.91 11.7884 16.9312L11.8096 16.9524C11.7884 16.5503 11.7673 16.127 11.7461 15.6825C12.2117 15.6825 12.6138 15.6825 13.0794 15.6825C13.0794 16.1058 13.0794 16.5079 13.1006 16.8889C13.1006 16.8889 13.0794 16.91 13.1006 16.8889Z" fill="#FFD93D"/>
<path d="M1.33429 5.79895C0.932178 5.82011 0.508898 5.86244 0.0644531 5.8836C0.0644531 5.41799 0.0644531 5.01588 0.0644531 4.55027C0.508898 4.55027 0.911014 4.55027 1.33429 4.55027L1.31313 4.52911C1.31313 4.97355 1.31313 5.39683 1.33429 5.79895Z" fill="#FFD93D"/>
<path d="M1.3125 4.55026C1.3125 4.14814 1.3125 3.74603 1.3125 3.30158C1.73578 3.30158 2.1379 3.30158 2.56118 3.30158C2.56118 3.72486 2.56118 4.12698 2.56118 4.55026L2.58234 4.5291C2.15906 4.55026 1.73578 4.55026 1.3125 4.55026Z" fill="#FFD93D"/>
<path d="M58.6673 2.6455C58.6673 3.04762 58.6673 3.44973 58.6673 3.89418C58.2652 3.89418 57.8631 3.89418 57.4186 3.89418C57.4186 3.49206 57.4186 3.06878 57.4186 2.6455L57.3975 2.66666C57.8207 2.6455 58.244 2.6455 58.6673 2.6455Z" fill="#FFD93D"/>
<path d="M57.3975 1.26983C57.3975 0.867717 57.3975 0.465601 57.3975 0.0211563C57.8207 0.0211563 58.2017 0.0211563 58.6461 0.0211563C58.6461 0.444437 58.6461 0.846553 58.6461 1.26983L58.6673 1.24867C58.244 1.26983 57.8207 1.26983 57.3975 1.26983Z" fill="#FFD93D"/>
<path d="M23.5137 7.78836C23.5137 7.36508 23.5137 6.98412 23.5137 6.56084C26.9846 6.56084 30.4131 6.56084 33.8629 6.56084C33.8629 6.96296 33.8629 7.36508 33.8629 7.78836C30.4343 7.78836 27.0057 7.78836 23.5137 7.78836Z" fill="#FFD93D"/>
<path d="M36.5084 7.80952C36.064 7.80952 35.683 7.80952 35.2598 7.80952C35.2598 7.38624 35.2598 6.98412 35.2598 6.56084C35.683 6.56084 36.0852 6.56084 36.5084 6.56084C36.5084 6.98412 36.5084 7.36508 36.5084 7.80952Z" fill="#FFD93D"/>
<path d="M24.8041 54.7513C24.8041 53.6931 25.7141 52.8042 26.7723 52.8254C27.8305 52.8254 28.7194 53.7354 28.7194 54.7725C28.7194 55.8519 27.8094 56.7407 26.7088 56.7196C25.6506 56.6984 24.7829 55.8307 24.8041 54.7513ZM27.3861 54.7725C27.3649 54.3915 27.1533 54.1587 26.7723 54.1376C26.3914 54.1164 26.1586 54.3492 26.0951 54.7302C26.0528 55.0688 26.3914 55.4286 26.7512 55.4074C27.1321 55.3862 27.3438 55.1746 27.3861 54.7725Z" fill="#FFD93D"/>
<path d="M48.9316 54.7936C48.9316 53.7143 49.7782 52.8465 50.8576 52.8042C51.9158 52.7831 52.8681 53.6931 52.847 54.7725C52.847 55.8307 51.9581 56.7196 50.8999 56.7196C49.7994 56.7196 48.9316 55.873 48.9316 54.7936ZM50.8787 54.1376C50.4978 54.1376 50.2015 54.4339 50.2015 54.7725C50.2015 55.1111 50.5401 55.4497 50.8999 55.4074C51.2808 55.3651 51.5137 55.1323 51.4925 54.7513C51.4925 54.3492 51.2385 54.1587 50.8787 54.1376Z" fill="#FFD93D"/>
<path d="M9.79913 55.0688C9.79913 56.1482 8.95257 57.0159 7.89437 57.037C6.79384 57.0582 5.88379 56.1693 5.88379 55.0899C5.88379 54.0529 6.79384 53.1429 7.83088 53.1217C8.88908 53.1217 9.77797 54.0106 9.79913 55.0688ZM7.19596 55.0899C7.21712 55.4921 7.44993 55.7037 7.83088 55.746C8.1695 55.7672 8.52929 55.4286 8.48696 55.0899C8.44464 54.709 8.233 54.4762 7.83088 54.4762C7.42876 54.4762 7.23829 54.709 7.19596 55.0899Z" fill="#FFD93D"/>
<path d="M43.0058 54.7513C42.5826 54.7513 42.2016 54.7513 41.7783 54.7513C41.7783 54.328 41.7783 53.9259 41.7783 53.4815C42.1804 53.4815 42.5826 53.4815 43.0058 53.4815C43.0058 53.9048 43.0058 54.3069 43.0058 54.7513Z" fill="#FFD93D"/>
<path d="M11.7881 54.0741C11.7881 53.6508 11.7881 53.2487 11.7881 52.8254C12.2114 52.8254 12.6135 52.8254 13.0368 52.8254C13.0368 53.2275 13.0368 53.6297 13.0368 54.0741C12.6346 54.0741 12.2325 54.0741 11.7881 54.0741Z" fill="#FFD93D"/>
<path d="M33.9268 57.3334C33.9268 56.9101 33.9268 56.5291 33.9268 56.1058C34.35 56.1058 34.731 56.1058 35.1754 56.1058C35.1754 56.4868 35.1754 56.8889 35.1754 57.3334C34.7945 57.3334 34.3924 57.3334 33.9268 57.3334Z" fill="#FFD93D"/>
<path d="M17.0166 56.1058C17.4399 56.1058 17.8208 56.1058 18.2441 56.1058C18.2441 56.508 18.2441 56.9101 18.2441 57.3334C17.8632 57.3334 17.461 57.3334 17.0166 57.3334C17.0166 56.9524 17.0166 56.5503 17.0166 56.1058Z" fill="#FFD93D"/>
</g>
<defs>
<clipPath id="clip0">
<rect width="60.0212" height="60" fill="white"/>
</clipPath>
</defs>
</svg>
