<svg width="62" height="62" viewBox="0 0 62 62" fill="none" xmlns="http://www.w3.org/2000/svg">
<mask id="path-1-outside-1" maskUnits="userSpaceOnUse" x="0" y="0" width="62" height="62" fill="black">
<rect fill="white" width="62" height="62"/>
<path d="M25.1029 52.1306C21.8935 52.1306 18.706 52.1306 15.4748 52.1306C15.4748 52.3053 15.453 52.4799 15.453 52.6546C15.453 53.7899 15.453 54.9033 15.453 56.0386C15.4312 58.724 13.4007 60.8417 10.7372 60.9291C9.05612 60.9727 7.3532 60.9727 5.67211 60.9291C3.13957 60.8417 1.0655 58.7021 1.04366 56.1696C1.02183 52.8729 1.02183 49.5762 1.04366 46.3014C1.04366 43.9653 2.81208 41.8258 5.14814 41.6075C7.20037 41.4328 9.29628 41.4328 11.3485 41.6075C13.6191 41.8039 15.3875 43.9435 15.4312 46.2359C15.453 47.5895 15.4312 48.9213 15.4312 50.2967C18.6623 50.2967 21.8499 50.2967 25.1029 50.2967C25.1684 50.0566 25.212 49.7946 25.2994 49.5544C25.998 47.393 27.4608 46.0176 29.644 45.4499C29.9715 45.3626 30.1243 45.2753 30.1243 44.9041C30.1243 35.6036 30.1243 26.303 30.1243 17.0243C30.1243 16.9151 30.1025 16.8059 30.1025 16.7186C26.7185 15.4742 26.1072 14.841 25.081 11.6754C21.8935 11.6754 18.706 11.6754 15.453 11.6754C15.453 13.0071 15.453 14.3171 15.453 15.627C15.453 16.7623 15.0818 17.7666 14.3832 18.6399C13.4007 19.8625 12.1126 20.4738 10.5407 20.4956C8.88146 20.5174 7.22221 20.5393 5.58478 20.4519C3.0959 20.3428 1.0655 18.225 1.02183 15.758C1 12.4177 0.978168 9.07731 1.04366 5.73697C1.0655 3.44458 2.87758 1.15218 5.67211 1.04302C7.52786 0.977525 9.38361 0.977525 11.2394 1.10852C13.5317 1.28318 15.3875 3.37908 15.4312 5.6933C15.453 7.04691 15.4312 8.42234 15.4312 9.81961C18.6623 9.81961 21.8499 9.81961 25.081 9.81961C25.1684 9.49213 25.2557 9.12098 25.3867 8.77166C26.26 6.28278 28.6397 4.71085 31.3032 4.84184C33.9231 4.97284 36.1282 6.78492 36.7613 9.4048C36.8268 9.68862 36.8705 9.88511 37.2416 9.88511C40.2327 9.86327 43.2455 9.88511 46.2365 9.86327C46.302 9.86327 46.3675 9.84144 46.4985 9.81961C46.4985 8.5315 46.4985 7.26523 46.4985 5.99896C46.4985 4.86368 46.826 3.81573 47.5465 2.9206C48.4416 1.78532 49.5987 1.10852 51.0396 1.06485C52.8954 0.999357 54.7511 0.955693 56.6069 1.10852C59.1176 1.32684 60.886 3.37908 60.9078 5.91163C60.9297 7.74554 60.9078 9.57946 60.9078 11.4134C60.9078 12.767 60.9078 14.1424 60.9078 15.496C60.886 18.225 58.9648 20.321 56.2576 20.4301C54.4455 20.5174 52.6116 20.4956 50.7995 20.4083C48.4634 20.2991 46.5204 18.0504 46.4767 15.5615C46.4549 14.2734 46.4767 12.9853 46.4767 11.6317C46.2802 11.6317 46.1055 11.6099 45.9309 11.6099C43.0709 11.6099 40.2108 11.6099 37.3726 11.6099C36.9796 11.6099 36.8268 11.6972 36.7177 12.112C36.1282 14.4262 34.6436 15.889 32.3294 16.5221C32.1984 16.5658 32.0455 16.6095 31.9145 16.6313C31.8927 16.6313 31.8927 16.6531 31.8709 16.6968C31.8709 26.2157 31.8709 35.7564 31.8709 45.2753C32.4822 45.5154 33.0717 45.6901 33.6175 45.9521C35.2986 46.7817 36.3028 48.1353 36.7395 49.9256C36.805 50.1657 36.8268 50.3622 37.1543 50.3622C40.2108 50.3404 43.2673 50.3404 46.3239 50.3404C46.3457 50.3404 46.3894 50.3185 46.4767 50.2749C46.4767 49.0304 46.4767 47.7642 46.4767 46.4979C46.4767 45.3626 46.8042 44.3147 47.5246 43.3977C48.3324 42.3498 49.3804 41.6293 50.6903 41.5856C52.7426 41.4983 54.8166 41.4546 56.847 41.6293C59.0303 41.8258 60.8424 43.8562 60.8642 46.0612C60.9297 49.5107 60.9297 52.9821 60.8642 56.4316C60.8205 58.8331 58.7246 60.8854 56.3012 60.9509C54.5983 61.0164 52.8736 61.0164 51.1706 60.9509C48.5508 60.8636 46.4985 58.724 46.4549 56.0823C46.433 54.9688 46.4549 53.8554 46.4549 52.7638C46.4549 52.5673 46.4549 52.3708 46.4549 52.1525C46.2365 52.1306 46.0837 52.1306 45.9091 52.1306C43.0272 52.1306 40.1672 52.1306 37.2853 52.1306C37.0015 52.1306 36.805 52.1088 36.6958 52.5018C35.9754 55.3618 33.7266 57.1957 30.9103 57.1957C28.1157 57.2176 25.8233 55.3618 25.081 52.5236C25.1684 52.3926 25.1465 52.3053 25.1029 52.1306ZM13.6846 51.2792C13.6846 50.4932 13.6846 49.7072 13.6846 48.9431C13.6846 48.1571 13.6846 47.3712 13.6846 46.6071C13.6846 44.7076 12.4183 43.354 10.5189 43.2885C9.01246 43.2449 7.50603 43.2449 5.9996 43.2885C4.07835 43.3322 2.79025 44.7076 2.79025 46.6289C2.79025 49.7509 2.79025 52.8729 2.79025 56.0168C2.79025 57.7852 4.14385 59.1825 5.91227 59.2043C7.4842 59.2261 9.03429 59.2261 10.6062 59.2043C12.331 59.1825 13.6846 57.7634 13.6846 56.0386C13.6846 54.4449 13.6846 52.8511 13.6846 51.2792ZM13.6846 10.7366C13.6846 9.92877 13.6846 9.14281 13.6846 8.33501C13.6846 7.52722 13.6846 6.69759 13.6846 5.88979C13.6846 4.38337 12.5056 2.94243 10.9992 2.8551C9.16528 2.74594 7.33137 2.74594 5.49746 2.8551C3.96919 2.94243 2.79025 4.36153 2.79025 5.88979C2.79025 9.12098 2.79025 12.3522 2.79025 15.6052C2.79025 17.2426 4.14385 18.6399 5.78128 18.6835C7.39687 18.7272 9.01246 18.7272 10.628 18.6835C12.3528 18.6617 13.6627 17.2644 13.6846 15.5397C13.6846 13.9459 13.6846 12.3522 13.6846 10.7366ZM59.2049 51.2355C59.2049 49.6854 59.2049 48.1353 59.2049 46.6071C59.2049 44.7076 57.9387 43.3322 56.0611 43.2885C54.5328 43.2449 53.0046 43.2449 51.4763 43.2885C49.7079 43.3322 48.3543 44.664 48.3324 46.3451C48.3106 49.6199 48.3106 52.8948 48.3324 56.1478C48.3543 57.7634 49.7079 59.1388 51.3235 59.1825C52.9609 59.2261 54.5983 59.2261 56.2357 59.1825C57.8732 59.1388 59.2049 57.7197 59.2049 56.0823C59.2049 54.4667 59.2049 52.8511 59.2049 51.2355ZM59.2049 10.7802C59.2049 9.20831 59.2049 7.61455 59.2049 6.04262C59.2049 4.3397 58.1133 2.96427 56.4104 2.8551C54.642 2.74594 52.8517 2.74594 51.0833 2.8551C49.5114 2.94243 48.3543 4.31787 48.3324 5.86796C48.3106 9.12098 48.3106 12.374 48.3324 15.627C48.3324 17.2863 49.686 18.6617 51.3453 18.6835C52.9609 18.7272 54.5765 18.7272 56.1921 18.6835C57.8732 18.6399 59.1831 17.2426 59.2049 15.5615C59.2049 13.9896 59.2049 12.374 59.2049 10.7802ZM30.9976 55.4055C33.3118 55.4055 35.1676 53.5497 35.1894 51.2792C35.1894 48.9649 33.3555 47.131 31.0631 47.0874C28.6834 47.0437 26.7621 49.0959 26.8495 51.4102C26.9149 53.5497 28.7489 55.3836 30.9976 55.4055ZM31.0194 14.8847C33.3336 14.8847 35.1894 13.0508 35.1894 10.7584C35.1894 8.46601 33.3336 6.58843 31.0413 6.58843C28.5305 6.58843 26.7621 8.70616 26.8495 10.9331C26.9149 13.0726 28.8362 15.0157 31.0194 14.8847Z"/>
</mask>
<path d="M25.1029 52.1306C21.8935 52.1306 18.706 52.1306 15.4748 52.1306C15.4748 52.3053 15.453 52.4799 15.453 52.6546C15.453 53.7899 15.453 54.9033 15.453 56.0386C15.4312 58.724 13.4007 60.8417 10.7372 60.9291C9.05612 60.9727 7.3532 60.9727 5.67211 60.9291C3.13957 60.8417 1.0655 58.7021 1.04366 56.1696C1.02183 52.8729 1.02183 49.5762 1.04366 46.3014C1.04366 43.9653 2.81208 41.8258 5.14814 41.6075C7.20037 41.4328 9.29628 41.4328 11.3485 41.6075C13.6191 41.8039 15.3875 43.9435 15.4312 46.2359C15.453 47.5895 15.4312 48.9213 15.4312 50.2967C18.6623 50.2967 21.8499 50.2967 25.1029 50.2967C25.1684 50.0566 25.212 49.7946 25.2994 49.5544C25.998 47.393 27.4608 46.0176 29.644 45.4499C29.9715 45.3626 30.1243 45.2753 30.1243 44.9041C30.1243 35.6036 30.1243 26.303 30.1243 17.0243C30.1243 16.9151 30.1025 16.8059 30.1025 16.7186C26.7185 15.4742 26.1072 14.841 25.081 11.6754C21.8935 11.6754 18.706 11.6754 15.453 11.6754C15.453 13.0071 15.453 14.3171 15.453 15.627C15.453 16.7623 15.0818 17.7666 14.3832 18.6399C13.4007 19.8625 12.1126 20.4738 10.5407 20.4956C8.88146 20.5174 7.22221 20.5393 5.58478 20.4519C3.0959 20.3428 1.0655 18.225 1.02183 15.758C1 12.4177 0.978168 9.07731 1.04366 5.73697C1.0655 3.44458 2.87758 1.15218 5.67211 1.04302C7.52786 0.977525 9.38361 0.977525 11.2394 1.10852C13.5317 1.28318 15.3875 3.37908 15.4312 5.6933C15.453 7.04691 15.4312 8.42234 15.4312 9.81961C18.6623 9.81961 21.8499 9.81961 25.081 9.81961C25.1684 9.49213 25.2557 9.12098 25.3867 8.77166C26.26 6.28278 28.6397 4.71085 31.3032 4.84184C33.9231 4.97284 36.1282 6.78492 36.7613 9.4048C36.8268 9.68862 36.8705 9.88511 37.2416 9.88511C40.2327 9.86327 43.2455 9.88511 46.2365 9.86327C46.302 9.86327 46.3675 9.84144 46.4985 9.81961C46.4985 8.5315 46.4985 7.26523 46.4985 5.99896C46.4985 4.86368 46.826 3.81573 47.5465 2.9206C48.4416 1.78532 49.5987 1.10852 51.0396 1.06485C52.8954 0.999357 54.7511 0.955693 56.6069 1.10852C59.1176 1.32684 60.886 3.37908 60.9078 5.91163C60.9297 7.74554 60.9078 9.57946 60.9078 11.4134C60.9078 12.767 60.9078 14.1424 60.9078 15.496C60.886 18.225 58.9648 20.321 56.2576 20.4301C54.4455 20.5174 52.6116 20.4956 50.7995 20.4083C48.4634 20.2991 46.5204 18.0504 46.4767 15.5615C46.4549 14.2734 46.4767 12.9853 46.4767 11.6317C46.2802 11.6317 46.1055 11.6099 45.9309 11.6099C43.0709 11.6099 40.2108 11.6099 37.3726 11.6099C36.9796 11.6099 36.8268 11.6972 36.7177 12.112C36.1282 14.4262 34.6436 15.889 32.3294 16.5221C32.1984 16.5658 32.0455 16.6095 31.9145 16.6313C31.8927 16.6313 31.8927 16.6531 31.8709 16.6968C31.8709 26.2157 31.8709 35.7564 31.8709 45.2753C32.4822 45.5154 33.0717 45.6901 33.6175 45.9521C35.2986 46.7817 36.3028 48.1353 36.7395 49.9256C36.805 50.1657 36.8268 50.3622 37.1543 50.3622C40.2108 50.3404 43.2673 50.3404 46.3239 50.3404C46.3457 50.3404 46.3894 50.3185 46.4767 50.2749C46.4767 49.0304 46.4767 47.7642 46.4767 46.4979C46.4767 45.3626 46.8042 44.3147 47.5246 43.3977C48.3324 42.3498 49.3804 41.6293 50.6903 41.5856C52.7426 41.4983 54.8166 41.4546 56.847 41.6293C59.0303 41.8258 60.8424 43.8562 60.8642 46.0612C60.9297 49.5107 60.9297 52.9821 60.8642 56.4316C60.8205 58.8331 58.7246 60.8854 56.3012 60.9509C54.5983 61.0164 52.8736 61.0164 51.1706 60.9509C48.5508 60.8636 46.4985 58.724 46.4549 56.0823C46.433 54.9688 46.4549 53.8554 46.4549 52.7638C46.4549 52.5673 46.4549 52.3708 46.4549 52.1525C46.2365 52.1306 46.0837 52.1306 45.9091 52.1306C43.0272 52.1306 40.1672 52.1306 37.2853 52.1306C37.0015 52.1306 36.805 52.1088 36.6958 52.5018C35.9754 55.3618 33.7266 57.1957 30.9103 57.1957C28.1157 57.2176 25.8233 55.3618 25.081 52.5236C25.1684 52.3926 25.1465 52.3053 25.1029 52.1306ZM13.6846 51.2792C13.6846 50.4932 13.6846 49.7072 13.6846 48.9431C13.6846 48.1571 13.6846 47.3712 13.6846 46.6071C13.6846 44.7076 12.4183 43.354 10.5189 43.2885C9.01246 43.2449 7.50603 43.2449 5.9996 43.2885C4.07835 43.3322 2.79025 44.7076 2.79025 46.6289C2.79025 49.7509 2.79025 52.8729 2.79025 56.0168C2.79025 57.7852 4.14385 59.1825 5.91227 59.2043C7.4842 59.2261 9.03429 59.2261 10.6062 59.2043C12.331 59.1825 13.6846 57.7634 13.6846 56.0386C13.6846 54.4449 13.6846 52.8511 13.6846 51.2792ZM13.6846 10.7366C13.6846 9.92877 13.6846 9.14281 13.6846 8.33501C13.6846 7.52722 13.6846 6.69759 13.6846 5.88979C13.6846 4.38337 12.5056 2.94243 10.9992 2.8551C9.16528 2.74594 7.33137 2.74594 5.49746 2.8551C3.96919 2.94243 2.79025 4.36153 2.79025 5.88979C2.79025 9.12098 2.79025 12.3522 2.79025 15.6052C2.79025 17.2426 4.14385 18.6399 5.78128 18.6835C7.39687 18.7272 9.01246 18.7272 10.628 18.6835C12.3528 18.6617 13.6627 17.2644 13.6846 15.5397C13.6846 13.9459 13.6846 12.3522 13.6846 10.7366ZM59.2049 51.2355C59.2049 49.6854 59.2049 48.1353 59.2049 46.6071C59.2049 44.7076 57.9387 43.3322 56.0611 43.2885C54.5328 43.2449 53.0046 43.2449 51.4763 43.2885C49.7079 43.3322 48.3543 44.664 48.3324 46.3451C48.3106 49.6199 48.3106 52.8948 48.3324 56.1478C48.3543 57.7634 49.7079 59.1388 51.3235 59.1825C52.9609 59.2261 54.5983 59.2261 56.2357 59.1825C57.8732 59.1388 59.2049 57.7197 59.2049 56.0823C59.2049 54.4667 59.2049 52.8511 59.2049 51.2355ZM59.2049 10.7802C59.2049 9.20831 59.2049 7.61455 59.2049 6.04262C59.2049 4.3397 58.1133 2.96427 56.4104 2.8551C54.642 2.74594 52.8517 2.74594 51.0833 2.8551C49.5114 2.94243 48.3543 4.31787 48.3324 5.86796C48.3106 9.12098 48.3106 12.374 48.3324 15.627C48.3324 17.2863 49.686 18.6617 51.3453 18.6835C52.9609 18.7272 54.5765 18.7272 56.1921 18.6835C57.8732 18.6399 59.1831 17.2426 59.2049 15.5615C59.2049 13.9896 59.2049 12.374 59.2049 10.7802ZM30.9976 55.4055C33.3118 55.4055 35.1676 53.5497 35.1894 51.2792C35.1894 48.9649 33.3555 47.131 31.0631 47.0874C28.6834 47.0437 26.7621 49.0959 26.8495 51.4102C26.9149 53.5497 28.7489 55.3836 30.9976 55.4055ZM31.0194 14.8847C33.3336 14.8847 35.1894 13.0508 35.1894 10.7584C35.1894 8.46601 33.3336 6.58843 31.0413 6.58843C28.5305 6.58843 26.7621 8.70616 26.8495 10.9331C26.9149 13.0726 28.8362 15.0157 31.0194 14.8847Z" fill="#3498db"/>
<path d="M25.1029 52.1306C21.8935 52.1306 18.706 52.1306 15.4748 52.1306C15.4748 52.3053 15.453 52.4799 15.453 52.6546C15.453 53.7899 15.453 54.9033 15.453 56.0386C15.4312 58.724 13.4007 60.8417 10.7372 60.9291C9.05612 60.9727 7.3532 60.9727 5.67211 60.9291C3.13957 60.8417 1.0655 58.7021 1.04366 56.1696C1.02183 52.8729 1.02183 49.5762 1.04366 46.3014C1.04366 43.9653 2.81208 41.8258 5.14814 41.6075C7.20037 41.4328 9.29628 41.4328 11.3485 41.6075C13.6191 41.8039 15.3875 43.9435 15.4312 46.2359C15.453 47.5895 15.4312 48.9213 15.4312 50.2967C18.6623 50.2967 21.8499 50.2967 25.1029 50.2967C25.1684 50.0566 25.212 49.7946 25.2994 49.5544C25.998 47.393 27.4608 46.0176 29.644 45.4499C29.9715 45.3626 30.1243 45.2753 30.1243 44.9041C30.1243 35.6036 30.1243 26.303 30.1243 17.0243C30.1243 16.9151 30.1025 16.8059 30.1025 16.7186C26.7185 15.4742 26.1072 14.841 25.081 11.6754C21.8935 11.6754 18.706 11.6754 15.453 11.6754C15.453 13.0071 15.453 14.3171 15.453 15.627C15.453 16.7623 15.0818 17.7666 14.3832 18.6399C13.4007 19.8625 12.1126 20.4738 10.5407 20.4956C8.88146 20.5174 7.22221 20.5393 5.58478 20.4519C3.0959 20.3428 1.0655 18.225 1.02183 15.758C1 12.4177 0.978168 9.07731 1.04366 5.73697C1.0655 3.44458 2.87758 1.15218 5.67211 1.04302C7.52786 0.977525 9.38361 0.977525 11.2394 1.10852C13.5317 1.28318 15.3875 3.37908 15.4312 5.6933C15.453 7.04691 15.4312 8.42234 15.4312 9.81961C18.6623 9.81961 21.8499 9.81961 25.081 9.81961C25.1684 9.49213 25.2557 9.12098 25.3867 8.77166C26.26 6.28278 28.6397 4.71085 31.3032 4.84184C33.9231 4.97284 36.1282 6.78492 36.7613 9.4048C36.8268 9.68862 36.8705 9.88511 37.2416 9.88511C40.2327 9.86327 43.2455 9.88511 46.2365 9.86327C46.302 9.86327 46.3675 9.84144 46.4985 9.81961C46.4985 8.5315 46.4985 7.26523 46.4985 5.99896C46.4985 4.86368 46.826 3.81573 47.5465 2.9206C48.4416 1.78532 49.5987 1.10852 51.0396 1.06485C52.8954 0.999357 54.7511 0.955693 56.6069 1.10852C59.1176 1.32684 60.886 3.37908 60.9078 5.91163C60.9297 7.74554 60.9078 9.57946 60.9078 11.4134C60.9078 12.767 60.9078 14.1424 60.9078 15.496C60.886 18.225 58.9648 20.321 56.2576 20.4301C54.4455 20.5174 52.6116 20.4956 50.7995 20.4083C48.4634 20.2991 46.5204 18.0504 46.4767 15.5615C46.4549 14.2734 46.4767 12.9853 46.4767 11.6317C46.2802 11.6317 46.1055 11.6099 45.9309 11.6099C43.0709 11.6099 40.2108 11.6099 37.3726 11.6099C36.9796 11.6099 36.8268 11.6972 36.7177 12.112C36.1282 14.4262 34.6436 15.889 32.3294 16.5221C32.1984 16.5658 32.0455 16.6095 31.9145 16.6313C31.8927 16.6313 31.8927 16.6531 31.8709 16.6968C31.8709 26.2157 31.8709 35.7564 31.8709 45.2753C32.4822 45.5154 33.0717 45.6901 33.6175 45.9521C35.2986 46.7817 36.3028 48.1353 36.7395 49.9256C36.805 50.1657 36.8268 50.3622 37.1543 50.3622C40.2108 50.3404 43.2673 50.3404 46.3239 50.3404C46.3457 50.3404 46.3894 50.3185 46.4767 50.2749C46.4767 49.0304 46.4767 47.7642 46.4767 46.4979C46.4767 45.3626 46.8042 44.3147 47.5246 43.3977C48.3324 42.3498 49.3804 41.6293 50.6903 41.5856C52.7426 41.4983 54.8166 41.4546 56.847 41.6293C59.0303 41.8258 60.8424 43.8562 60.8642 46.0612C60.9297 49.5107 60.9297 52.9821 60.8642 56.4316C60.8205 58.8331 58.7246 60.8854 56.3012 60.9509C54.5983 61.0164 52.8736 61.0164 51.1706 60.9509C48.5508 60.8636 46.4985 58.724 46.4549 56.0823C46.433 54.9688 46.4549 53.8554 46.4549 52.7638C46.4549 52.5673 46.4549 52.3708 46.4549 52.1525C46.2365 52.1306 46.0837 52.1306 45.9091 52.1306C43.0272 52.1306 40.1672 52.1306 37.2853 52.1306C37.0015 52.1306 36.805 52.1088 36.6958 52.5018C35.9754 55.3618 33.7266 57.1957 30.9103 57.1957C28.1157 57.2176 25.8233 55.3618 25.081 52.5236C25.1684 52.3926 25.1465 52.3053 25.1029 52.1306ZM13.6846 51.2792C13.6846 50.4932 13.6846 49.7072 13.6846 48.9431C13.6846 48.1571 13.6846 47.3712 13.6846 46.6071C13.6846 44.7076 12.4183 43.354 10.5189 43.2885C9.01246 43.2449 7.50603 43.2449 5.9996 43.2885C4.07835 43.3322 2.79025 44.7076 2.79025 46.6289C2.79025 49.7509 2.79025 52.8729 2.79025 56.0168C2.79025 57.7852 4.14385 59.1825 5.91227 59.2043C7.4842 59.2261 9.03429 59.2261 10.6062 59.2043C12.331 59.1825 13.6846 57.7634 13.6846 56.0386C13.6846 54.4449 13.6846 52.8511 13.6846 51.2792ZM13.6846 10.7366C13.6846 9.92877 13.6846 9.14281 13.6846 8.33501C13.6846 7.52722 13.6846 6.69759 13.6846 5.88979C13.6846 4.38337 12.5056 2.94243 10.9992 2.8551C9.16528 2.74594 7.33137 2.74594 5.49746 2.8551C3.96919 2.94243 2.79025 4.36153 2.79025 5.88979C2.79025 9.12098 2.79025 12.3522 2.79025 15.6052C2.79025 17.2426 4.14385 18.6399 5.78128 18.6835C7.39687 18.7272 9.01246 18.7272 10.628 18.6835C12.3528 18.6617 13.6627 17.2644 13.6846 15.5397C13.6846 13.9459 13.6846 12.3522 13.6846 10.7366ZM59.2049 51.2355C59.2049 49.6854 59.2049 48.1353 59.2049 46.6071C59.2049 44.7076 57.9387 43.3322 56.0611 43.2885C54.5328 43.2449 53.0046 43.2449 51.4763 43.2885C49.7079 43.3322 48.3543 44.664 48.3324 46.3451C48.3106 49.6199 48.3106 52.8948 48.3324 56.1478C48.3543 57.7634 49.7079 59.1388 51.3235 59.1825C52.9609 59.2261 54.5983 59.2261 56.2357 59.1825C57.8732 59.1388 59.2049 57.7197 59.2049 56.0823C59.2049 54.4667 59.2049 52.8511 59.2049 51.2355ZM59.2049 10.7802C59.2049 9.20831 59.2049 7.61455 59.2049 6.04262C59.2049 4.3397 58.1133 2.96427 56.4104 2.8551C54.642 2.74594 52.8517 2.74594 51.0833 2.8551C49.5114 2.94243 48.3543 4.31787 48.3324 5.86796C48.3106 9.12098 48.3106 12.374 48.3324 15.627C48.3324 17.2863 49.686 18.6617 51.3453 18.6835C52.9609 18.7272 54.5765 18.7272 56.1921 18.6835C57.8732 18.6399 59.1831 17.2426 59.2049 15.5615C59.2049 13.9896 59.2049 12.374 59.2049 10.7802ZM30.9976 55.4055C33.3118 55.4055 35.1676 53.5497 35.1894 51.2792C35.1894 48.9649 33.3555 47.131 31.0631 47.0874C28.6834 47.0437 26.7621 49.0959 26.8495 51.4102C26.9149 53.5497 28.7489 55.3836 30.9976 55.4055ZM31.0194 14.8847C33.3336 14.8847 35.1894 13.0508 35.1894 10.7584C35.1894 8.46601 33.3336 6.58843 31.0413 6.58843C28.5305 6.58843 26.7621 8.70616 26.8495 10.9331C26.9149 13.0726 28.8362 15.0157 31.0194 14.8847Z" stroke="#3498db" mask="url(#path-1-outside-1)"/>
</svg>
