<svg width="61" height="60" viewBox="0 0 61 60" fill="none" xmlns="http://www.w3.org/2000/svg">
<g clip-path="url(#clip0)">
<path d="M57.2198 24.3775C57.5852 24.3775 57.8694 24.3572 58.1738 24.3775C59.3105 24.4384 60.0615 25.23 60.0615 26.3464C60.0615 36.9215 60.0615 47.4966 60.0615 58.0514C60.0615 59.2287 59.2902 59.9594 58.1129 59.9594C50.0548 59.9594 41.9763 59.9594 33.9181 59.9594C33.2889 59.9594 32.8017 59.7564 32.3755 59.3302C32.274 59.2287 32.0101 59.1881 31.8883 59.249C30.6705 59.7158 29.4323 59.9594 28.1332 59.9594C21.5568 59.9391 14.9803 59.9594 8.40388 59.9594C4.40523 59.9594 0.934325 57.0974 0.223905 53.1597C0.122417 52.571 0.0615234 51.9824 0.0615234 51.3938C0.0615234 39.9662 0.0615234 28.5183 0.0615234 17.0907C0.0615234 15.7307 0.812538 14.9797 2.15219 14.9797C6.86125 14.9797 11.55 14.9797 16.2591 14.9797C16.4621 14.9797 16.665 14.9797 16.9289 14.9797C16.9289 14.7767 16.9492 14.594 16.9492 14.4114C16.9492 13.0311 16.9492 11.6306 16.9492 10.2503C16.9289 4.58728 21.5162 0 27.1995 0C33.4715 0 39.7435 0 46.0155 0C51.638 0 56.2659 4.60758 56.2861 10.23C56.3064 13.6198 56.2862 17.0298 56.3064 20.4195C56.3064 20.6428 56.4485 20.9269 56.6109 21.0893C56.9966 21.4953 57.2198 21.9215 57.2401 22.4899C57.2198 23.0988 57.2198 23.7077 57.2198 24.3775ZM34.7097 24.3775C34.7097 23.7686 34.7097 23.2206 34.7097 22.6928C34.7097 22.0433 34.933 21.475 35.4404 21.0284C35.5622 20.9269 35.6637 20.6834 35.6637 20.521C35.684 17.0907 35.7043 13.6604 35.6637 10.23C35.6028 4.87145 30.6502 0.953992 25.4336 2.09066C21.5365 2.90257 18.776 6.33288 18.7557 10.3518C18.7557 22.2463 18.7557 34.1407 18.7557 46.0149C18.7557 47.6387 18.7963 49.2625 18.7354 50.8863C18.6542 53.6265 17.5581 55.9202 15.4878 57.7267C15.366 57.8281 15.2442 57.9499 15.0615 58.1123C15.2239 58.1326 15.3051 58.1326 15.3863 58.1326C19.6285 58.1326 23.8707 58.1326 28.1129 58.1326C29.2293 58.1326 30.2848 57.8687 31.32 57.4425C31.7462 57.2598 31.9086 57.0162 31.9086 56.5291C31.8883 46.5223 31.8883 36.4953 31.8883 26.4885C31.8883 25.1083 32.619 24.3572 34.0196 24.3572C34.2428 24.3572 34.4255 24.3775 34.7097 24.3775ZM1.90861 16.8877C1.90861 17.0704 1.88832 17.2327 1.88832 17.3951C1.88832 28.7821 1.86802 40.1488 1.88832 51.5359C1.88832 54.134 3.10618 56.0825 5.37952 57.3613C6.61768 58.0514 7.93703 58.1529 9.29698 58.1326C13.6204 58.0717 16.8883 54.8038 16.8883 50.4804C16.8883 39.479 16.8883 28.4574 16.8883 17.456C16.8883 17.2733 16.8883 17.0907 16.8883 16.8877C11.8748 16.8877 6.92215 16.8877 1.90861 16.8877ZM58.1332 58.1326C58.1332 47.4966 58.1332 36.9012 58.1332 26.3058C50.0142 26.3058 41.9154 26.3058 33.8166 26.3058C33.8166 36.9215 33.8166 47.5169 33.8166 58.1326C41.9154 58.1326 49.9939 58.1326 58.1332 58.1326ZM54.3782 20.6022C54.3985 20.4398 54.3985 20.318 54.3985 20.1962C54.3985 16.8674 54.3985 13.5386 54.3985 10.2097C54.3985 9.82409 54.3782 9.43843 54.3173 9.05277C53.5663 4.72936 50.1765 1.88769 45.7516 1.86739C41.7327 1.84709 37.7138 1.86739 33.6745 1.86739C33.5527 1.86739 33.4309 1.88769 33.228 1.90798C33.37 2.02977 33.4512 2.11096 33.5324 2.19215C36.232 4.36401 37.5108 7.18539 37.5108 10.636C37.5108 13.7821 37.5108 16.9283 37.5108 20.0744C37.5108 20.2571 37.5108 20.4398 37.5108 20.6225C43.1738 20.6022 48.7557 20.6022 54.3782 20.6022ZM55.3322 22.5507C49.0805 22.5507 42.8491 22.5507 36.638 22.5507C36.638 23.18 36.638 23.7483 36.638 24.3369C42.8897 24.3369 49.1008 24.3369 55.3322 24.3369C55.3322 23.728 55.3322 23.1597 55.3322 22.5507Z" fill="#3498db"/>
<path d="M9.41832 35.6224C7.87569 35.6224 6.35336 35.6224 4.81074 35.6224C4.05972 35.6224 3.59288 35.0338 3.83645 34.3842C3.99883 33.9174 4.36419 33.755 4.83104 33.755C6.0083 33.755 7.18557 33.755 8.38313 33.755C10.2505 33.755 12.0976 33.755 13.965 33.755C14.5739 33.755 14.9393 34.0189 15.0205 34.4857C15.1423 35.1149 14.716 35.6021 14.0056 35.6224C12.4427 35.6427 10.9203 35.6224 9.41832 35.6224Z" fill="#3498db"/>
<path d="M9.39841 18.755C10.941 18.755 12.4634 18.755 14.006 18.755C14.4322 18.755 14.8179 18.9174 14.9194 19.3436C14.9803 19.6481 14.8991 20.0338 14.7367 20.3179C14.6352 20.5006 14.2699 20.6224 14.0263 20.6224C10.941 20.6427 7.83549 20.6427 4.75024 20.6224C4.1616 20.6224 3.75565 20.2367 3.73535 19.709C3.73535 19.161 4.14131 18.7753 4.77053 18.7753C6.33346 18.755 7.87608 18.755 9.39841 18.755Z" fill="#3498db"/>
<path d="M9.37832 28.1326C7.83569 28.1326 6.31336 28.1326 4.77074 28.1326C4.34449 28.1326 3.95883 27.9702 3.87764 27.544C3.81675 27.2395 3.89794 26.8539 4.06032 26.5697C4.16181 26.387 4.52717 26.2652 4.77074 26.2652C7.85599 26.2449 10.9615 26.2449 14.0468 26.2652C14.6557 26.2652 15.0414 26.6306 15.0414 27.1786C15.0414 27.747 14.6557 28.1123 14.0265 28.1123C12.4433 28.1326 10.9006 28.1326 9.37832 28.1326Z" fill="#3498db"/>
<path d="M9.37814 43.1325C7.87611 43.1325 6.37408 43.1325 4.87205 43.1325C4.4661 43.1325 4.10074 43.031 3.89776 42.6454C3.5933 42.0973 3.89776 41.4275 4.50669 41.3057C4.64878 41.2854 4.81116 41.2651 4.95324 41.2651C7.91671 41.2651 10.8599 41.2651 13.8233 41.2651C13.9654 41.2651 14.1278 41.2651 14.2699 41.3057C14.7164 41.4072 14.9803 41.6914 15.0006 42.1379C15.0412 42.6048 14.8179 42.9295 14.3714 43.0716C14.1887 43.1325 13.9654 43.1325 13.7827 43.1325C12.3213 43.1325 10.8396 43.1325 9.37814 43.1325Z" fill="#3498db"/>
<path d="M9.37851 54.3979C8.20124 54.3979 7.00368 54.4182 5.82641 54.3776C5.50165 54.3573 5.11599 54.2153 4.89272 53.992C4.44617 53.5251 4.75063 52.7132 5.37986 52.5711C5.58284 52.5305 5.78582 52.5103 5.98879 52.5103C8.24184 52.5103 10.5152 52.5103 12.7682 52.5103C12.8088 52.5103 12.8291 52.5103 12.8697 52.5103C13.641 52.5306 14.0673 52.8756 14.047 53.4642C14.047 54.0529 13.6207 54.3979 12.8494 54.3979C11.7127 54.3979 10.5558 54.3979 9.37851 54.3979Z" fill="#3498db"/>
<path d="M8.03867 30.0203C9.05356 30.0203 10.0684 30.0203 11.0833 30.0203C11.7937 30.0203 12.22 30.3856 12.1997 30.9742C12.1794 31.5426 11.7734 31.8876 11.0833 31.8876C9.01296 31.8876 6.9223 31.8876 4.85193 31.8876C4.18211 31.8876 3.75586 31.5223 3.75586 30.9539C3.75586 30.4059 4.18211 30.0203 4.85193 30.0203C5.90741 30 6.98319 30.0203 8.03867 30.0203Z" fill="#3498db"/>
<path d="M7.471 46.8877C6.6185 46.8877 5.7457 46.8877 4.89319 46.8877C4.20307 46.8877 3.77682 46.5223 3.75652 45.9743C3.73623 45.4059 4.18278 45.0203 4.8729 45C6.6388 44.9797 8.3844 44.9797 10.1503 45C10.881 45 11.2667 45.3653 11.2667 45.954C11.2464 46.5426 10.8607 46.8674 10.1097 46.8674C9.21661 46.8877 8.3438 46.8877 7.471 46.8877Z" fill="#3498db"/>
<path d="M6.61784 48.7551C7.18617 48.7551 7.7748 48.7348 8.34314 48.7551C8.97237 48.7754 9.39862 49.1408 9.39862 49.6888C9.39862 50.2369 8.97237 50.6225 8.30255 50.6428C7.14558 50.6631 5.96831 50.6631 4.81134 50.6428C4.18211 50.6428 3.75586 50.2571 3.75586 49.7091C3.75586 49.1814 4.16181 48.7957 4.79104 48.7551C5.39997 48.7551 6.0089 48.7551 6.61784 48.7551Z" fill="#3498db"/>
<path d="M6.11035 24.3774C5.6638 24.3774 5.19696 24.3977 4.75041 24.3774C4.16177 24.3571 3.75582 23.9512 3.77612 23.4438C3.77612 22.9363 4.18207 22.5507 4.73011 22.5304C5.6638 22.5101 6.5975 22.5101 7.5109 22.5304C8.07923 22.5304 8.46489 22.9363 8.46489 23.4438C8.46489 23.9715 8.05893 24.3571 7.4906 24.3774C7.45 24.3774 7.4297 24.3774 7.38911 24.3774C6.94256 24.3774 6.53661 24.3774 6.11035 24.3774Z" fill="#3498db"/>
<path d="M6.15074 39.3776C5.68389 39.3776 5.19675 39.3979 4.7299 39.3776C4.16156 39.3573 3.77591 38.9716 3.75561 38.4642C3.73531 37.9365 4.14127 37.5305 4.7299 37.5102C5.66359 37.4899 6.57699 37.4899 7.51068 37.5102C8.07902 37.5305 8.44438 37.9365 8.44438 38.4236C8.44438 38.931 8.05872 39.3167 7.51068 39.3573C7.06413 39.3979 6.59729 39.3776 6.15074 39.3776Z" fill="#3498db"/>
<path d="M45.954 35.6225C43.2341 35.6225 40.5142 35.6225 37.7943 35.6225C36.3938 35.6225 35.6631 34.8918 35.6631 33.5115C35.6631 32.3749 35.6631 31.2382 35.6631 30.1218C35.6631 28.9243 36.4344 28.1327 37.632 28.1327C43.1935 28.1124 48.7551 28.1124 54.3167 28.1327C55.5345 28.1327 56.3059 28.9446 56.3059 30.1624C56.3059 31.3194 56.3059 32.4967 56.3059 33.6536C56.3059 34.8309 55.5143 35.6225 54.337 35.6225C51.5359 35.6428 48.7348 35.6225 45.954 35.6225ZM54.3776 30.0609C48.7348 30.0609 43.1529 30.0609 37.5711 30.0609C37.5711 31.3194 37.5711 32.517 37.5711 33.7348C43.1935 33.7348 48.7754 33.7348 54.3776 33.7348C54.3776 32.4967 54.3776 31.2991 54.3776 30.0609Z" fill="#3498db"/>
<path d="M35.6633 50.6022C35.6633 49.4046 35.6633 48.2071 35.6633 47.0095C35.6633 45.8525 36.3534 45.1015 37.5307 45.0406C38.2208 45 38.9109 45 39.601 45.0609C40.5753 45.1421 41.2857 45.9134 41.2857 46.8877C41.2857 49.3843 41.2857 51.9013 41.2857 54.3979C41.2857 55.4128 40.5753 56.1841 39.5807 56.245C38.85 56.2856 38.1193 56.2856 37.4089 56.245C36.394 56.1841 35.6836 55.4331 35.6836 54.4182C35.643 53.1394 35.6633 51.8607 35.6633 50.6022ZM39.3778 54.3776C39.3778 51.8607 39.3778 49.3843 39.3778 46.908C38.7485 46.908 38.1599 46.908 37.5713 46.908C37.5713 49.4046 37.5713 51.881 37.5713 54.3776C38.1802 54.3776 38.7485 54.3776 39.3778 54.3776Z" fill="#3498db"/>
<path d="M53.4854 56.2652C51.9225 56.2652 50.6641 55.0271 50.6641 53.4845C50.6641 51.9418 51.9225 50.6631 53.4651 50.6631C55.0281 50.6428 56.3068 51.9215 56.3068 53.4845C56.2865 55.0068 55.0484 56.2449 53.4854 56.2652ZM54.3988 53.4439C54.3988 52.9161 53.9726 52.5305 53.4651 52.5305C52.9374 52.5305 52.5314 52.9567 52.5517 53.4642C52.5517 53.9716 52.978 54.3978 53.4854 54.3775C53.9929 54.3775 54.4191 53.9513 54.3988 53.4439Z" fill="#3498db"/>
<path d="M53.4854 37.5304C55.0484 37.5304 56.3068 38.7686 56.3068 40.3112C56.3068 41.8741 55.0281 43.1528 53.4651 43.1325C51.9225 43.1122 50.6641 41.8538 50.6641 40.3112C50.6641 38.7686 51.9225 37.5304 53.4854 37.5304ZM54.3988 40.3315C54.3988 39.824 53.9929 39.3978 53.4854 39.3775C52.978 39.3775 52.5517 39.7834 52.5314 40.2909C52.5314 40.7983 52.9374 41.2246 53.4448 41.2246C53.9929 41.2449 54.3988 40.8592 54.3988 40.3315Z" fill="#3498db"/>
<path d="M48.7961 53.4438C48.7961 54.9864 47.5579 56.2449 45.995 56.2449C44.4118 56.2652 43.1533 55.0067 43.1533 53.4235C43.1533 51.8809 44.4321 50.6224 45.9747 50.6224C47.5173 50.6427 48.7758 51.9012 48.7961 53.4438ZM46.9084 53.4641C46.9084 52.9567 46.5024 52.5507 45.9747 52.5507C45.4673 52.5507 45.041 52.9567 45.041 53.4641C45.041 53.9716 45.4673 54.3978 45.9747 54.3978C46.4821 54.3978 46.9084 53.9716 46.9084 53.4641Z" fill="#3498db"/>
<path d="M45.9749 37.5304C47.5378 37.5304 48.776 38.7686 48.776 40.3315C48.776 41.8944 47.4973 43.1732 45.9343 43.1529C44.3917 43.1326 43.1333 41.8741 43.1536 40.3315C43.1739 38.7483 44.412 37.5101 45.9749 37.5304ZM46.9086 40.3518C46.9289 39.8443 46.5027 39.4181 45.9952 39.3978C45.4878 39.3775 45.0412 39.8037 45.0412 40.3112C45.0209 40.8186 45.4472 41.2449 45.9546 41.2449C46.4621 41.2449 46.8883 40.8592 46.9086 40.3518Z" fill="#3498db"/>
<path d="M41.2863 40.3315C41.2863 41.8741 40.0278 43.1326 38.4649 43.1326C36.9223 43.1326 35.6639 41.8741 35.6436 40.3315C35.6436 38.7483 36.902 37.5101 38.4852 37.5101C40.0481 37.5304 41.2863 38.7686 41.2863 40.3315ZM39.3986 40.3518C39.4189 39.8444 38.9927 39.4181 38.4852 39.3978C37.9778 39.3775 37.5312 39.8038 37.5312 40.3112C37.5109 40.8187 37.9372 41.2449 38.4446 41.2449C38.9724 41.2449 39.3986 40.8593 39.3986 40.3518Z" fill="#3498db"/>
<path d="M56.2858 46.8877C56.2858 48.41 55.007 49.6887 53.4847 49.709C51.9624 49.709 50.6633 48.4303 50.6633 46.908C50.643 45.3653 51.9624 44.046 53.505 44.0663C55.0476 44.0866 56.3061 45.3653 56.2858 46.8877ZM53.4644 45.9743C52.9367 45.9743 52.5307 46.4005 52.551 46.908C52.551 47.4154 52.9773 47.8214 53.505 47.8214C54.0327 47.8214 54.4184 47.4154 54.4184 46.8877C54.3981 46.3599 53.9922 45.954 53.4644 45.9743Z" fill="#3498db"/>
<path d="M48.7965 46.8877C48.7965 48.4303 47.5381 49.6888 45.9954 49.7091C44.4528 49.7293 43.1538 48.4303 43.1741 46.8674C43.1944 45.345 44.4731 44.0663 45.9954 44.0663C47.5381 44.0866 48.7965 45.345 48.7965 46.8877ZM46.9088 46.908C46.9291 46.3802 46.5232 45.9743 45.9954 45.9743C45.4677 45.9743 45.0415 46.3599 45.0415 46.8877C45.0212 47.3951 45.4474 47.8214 45.9548 47.8214C46.4826 47.8214 46.8885 47.4357 46.9088 46.908Z" fill="#3498db"/>
<path d="M51.7395 7.40868C51.5365 7.73345 51.435 8.01761 51.2524 8.22059C47.8627 11.6306 44.4729 15.0203 41.0832 18.41C40.6367 18.8566 40.0683 18.8566 39.6827 18.4709C39.297 18.0853 39.3173 17.5372 39.7842 17.0704C41.6922 15.1624 43.6001 13.2341 45.5081 11.3261C46.9899 9.84441 48.4716 8.36268 49.9533 6.88094C50.2781 6.55618 50.6637 6.43439 51.0494 6.65767C51.3133 6.82005 51.4959 7.14481 51.7395 7.40868Z" fill="#3498db"/>
<path d="M52.5514 15.9336C52.5514 17.4763 51.293 18.7347 49.7503 18.755C48.2077 18.7753 46.9086 17.456 46.9289 15.9133C46.9492 14.391 48.2483 13.1123 49.7706 13.1326C51.293 13.1326 52.5514 14.391 52.5514 15.9336ZM49.7097 15.0202C49.2023 15.0405 48.776 15.4465 48.7963 15.9742C48.8166 16.4817 49.2429 16.8876 49.7503 16.8673C50.2781 16.847 50.6637 16.4411 50.6637 15.9133C50.6434 15.3856 50.2375 14.9999 49.7097 15.0202Z" fill="#3498db"/>
<path d="M45.0416 8.42351C45.0416 9.96613 43.7832 11.2246 42.2406 11.2449C40.7182 11.2652 39.4192 9.98643 39.4192 8.46411C39.3989 6.90118 40.6979 5.60213 42.2406 5.62243C43.7832 5.62243 45.0416 6.88088 45.0416 8.42351ZM43.154 8.44381C43.154 7.93636 42.748 7.51011 42.2203 7.51011C41.7128 7.51011 41.2866 7.91607 41.2663 8.42351C41.2663 8.93095 41.6722 9.3572 42.2 9.3572C42.7277 9.3572 43.154 8.95125 43.154 8.44381Z" fill="#3498db"/>
</g>
<defs>
<clipPath id="clip0">
<rect width="60.0406" height="60" fill="white"/>
</clipPath>
</defs>
</svg>
