<svg width="57" height="60" viewBox="0 0 57 60" fill="none" xmlns="http://www.w3.org/2000/svg">
<g clip-path="url(#clip0)">
<path d="M56.8231 60C56.5449 60 56.3363 60 56.1508 60C46.1353 60 36.1431 60 26.1276 60C24.2497 60 22.6964 59.3972 21.514 57.9134C20.7721 56.9629 20.4012 55.8964 20.4012 54.6909C20.4012 54.3431 20.4012 53.9954 20.4012 53.5781C20.1462 53.5781 19.9143 53.5781 19.6825 53.5781C14.3965 53.5781 9.08741 53.5085 3.80148 53.6012C1.34398 53.6476 -0.0238705 51.932 -0.000686589 49.8223C0.0688652 41.4992 0.0224973 33.1762 0.0224973 24.8532C0.0224973 22.813 1.36717 21.4451 3.43054 21.4451C8.80921 21.4451 14.2111 21.4451 19.5897 21.4451C19.8216 21.4451 20.0534 21.4451 20.3316 21.4451C20.3316 20.0077 20.3316 18.6167 20.3316 17.1793C17.5032 17.1793 14.6979 17.1793 11.7999 17.1793C11.7999 16.9243 11.7999 16.7156 11.7999 16.507C11.7999 12.8671 11.7999 9.20402 11.7999 5.56414C11.8231 2.31839 14.1183 0 17.3177 0C28.6315 0 39.9684 0 51.2822 0C54.5511 0 56.7999 2.29521 56.7999 5.56414C56.7999 23.4621 56.7999 41.3833 56.7999 59.2813C56.8231 59.49 56.8231 59.6986 56.8231 60ZM34.3579 37.4884C39.3424 37.4884 44.3038 37.4884 49.2884 37.4884C49.2884 38.2303 49.2884 38.9258 49.2884 39.6677C44.2806 39.6677 39.3193 39.6677 34.3579 39.6677C34.3579 40.7573 34.3579 41.7774 34.3579 42.8671C39.3424 42.8671 44.3038 42.8671 49.2884 42.8671C49.2884 43.609 49.2884 44.2813 49.2884 45.0232C44.2806 45.0232 39.3193 45.0232 34.3579 45.0232C34.3579 46.1128 34.3579 47.1329 34.3579 48.2226C39.3424 48.2226 44.3038 48.2226 49.2884 48.2226C49.2884 48.9413 49.2884 49.6136 49.2884 50.3555C44.2806 50.3555 39.3193 50.3555 34.3579 50.3555C34.1029 52.442 32.8509 53.5549 30.8108 53.5549C28.2837 53.5549 25.7567 53.5549 23.2296 53.5549C23.021 53.5549 22.8123 53.5549 22.6268 53.5549C22.2095 56.1747 23.6237 57.8439 26.1972 57.8439C35.4707 57.8439 44.7443 57.8439 54.0179 57.8439C54.2265 57.8439 54.4352 57.8439 54.6902 57.8439C54.6902 57.5425 54.6902 57.3339 54.6902 57.102C54.6902 39.8995 54.6902 22.6739 54.6902 5.47141C54.6902 5.26275 54.6902 5.0541 54.6438 4.84544C54.3424 3.12983 53.021 2.13292 51.0735 2.13292C41.4754 2.13292 31.8772 2.13292 22.2791 2.13292C22.0936 2.13292 21.9081 2.15611 21.6531 2.15611C22.2327 3.12983 22.5573 4.10355 22.5573 5.17002C22.5573 10.3632 22.5573 15.5564 22.5573 20.7496C22.5573 20.9583 22.5805 21.1669 22.5805 21.4219C22.8587 21.4219 23.0905 21.4219 23.3223 21.4219C25.9885 21.4219 28.6547 21.3988 31.3208 21.4451C32.99 21.4683 34.3115 22.9057 34.3347 24.575C34.3347 25.2937 34.3347 25.9892 34.3347 26.7543C39.3656 26.7543 44.3038 26.7543 49.2884 26.7543C49.2884 27.4961 49.2884 28.1685 49.2884 28.9104C44.2806 28.9104 39.3193 28.9104 34.3579 28.9104C34.3579 30 34.3579 31.0433 34.3579 32.1329C39.3424 32.1329 44.3038 32.1329 49.2652 32.1329C49.2652 32.8748 49.2652 33.5471 49.2652 34.289C44.2574 34.289 39.3193 34.289 34.3347 34.289C34.3579 35.4019 34.3579 36.3988 34.3579 37.4884ZM2.20179 29.9768C2.41044 29.9768 2.54955 30 2.66547 30C12.31 30 21.9777 30 31.6222 30.0232C32.1091 30.0232 32.2018 29.8377 32.1786 29.4204C32.1554 28.0062 32.1786 26.592 32.1786 25.2009C32.1786 23.9026 31.8772 23.5781 30.5789 23.5781C21.6299 23.5781 12.7041 23.5781 3.75511 23.5781C3.4769 23.5781 3.22188 23.6012 2.94367 23.6476C2.47999 23.7403 2.1786 24.0649 2.1786 24.5518C2.1786 26.3138 2.20179 28.1221 2.20179 29.9768ZM20.378 10.6646C20.378 8.67079 20.378 6.70015 20.378 4.72952C20.378 4.63679 20.3316 4.54405 20.3084 4.45131C19.8911 2.92118 18.4769 1.97063 16.9468 2.15611C15.1848 2.36476 13.9792 3.61669 13.9792 5.28594C13.956 6.88563 13.9792 8.48532 13.9792 10.085C13.9792 10.2705 14.0024 10.456 14.0256 10.6646C16.1353 10.6646 18.2219 10.6646 20.378 10.6646ZM14.0024 14.9304C16.1585 14.9304 18.2683 14.9304 20.3548 14.9304C20.3548 14.2117 20.3548 13.5626 20.3548 12.8903C18.2219 12.8903 16.1353 12.8903 14.0024 12.8903C14.0024 13.5858 14.0024 14.2349 14.0024 14.9304ZM7.58046 32.1561C7.58046 33.2458 7.58046 34.289 7.58046 35.3091C8.64692 35.3091 9.6902 35.3091 10.7103 35.3091C10.7103 34.2427 10.7103 33.1994 10.7103 32.1561C9.66701 32.1561 8.64692 32.1561 7.58046 32.1561ZM16.089 32.1793C14.9993 32.1793 13.9792 32.1793 12.9359 32.1793C12.9359 33.2458 12.9359 34.289 12.9359 35.3323C14.0024 35.3323 15.0225 35.3323 16.089 35.3323C16.089 34.2658 16.089 33.2458 16.089 32.1793ZM32.1554 32.1793C31.0658 32.1793 30.0457 32.1793 29.0024 32.1793C29.0024 33.2458 29.0024 34.289 29.0024 35.3323C30.0689 35.3323 31.089 35.3323 32.1554 35.3323C32.1554 34.2658 32.1554 33.2458 32.1554 32.1793ZM10.7103 40.6646C10.7103 39.5981 10.7103 38.5549 10.7103 37.5116C9.62065 37.5116 8.60055 37.5116 7.58046 37.5116C7.58046 38.5781 7.58046 39.6213 7.58046 40.6646C8.64692 40.6646 9.66701 40.6646 10.7103 40.6646ZM5.3548 35.3323C5.3548 34.2427 5.3548 33.2226 5.3548 32.1793C4.28834 32.1793 3.26825 32.1793 2.22497 32.1793C2.22497 33.2458 2.22497 34.289 2.22497 35.3323C3.26825 35.3323 4.28834 35.3323 5.3548 35.3323ZM5.30843 40.6878C5.30843 39.5981 5.30843 38.5549 5.30843 37.5348C4.21879 37.5348 3.24506 37.5348 2.22497 37.5348C2.22497 38.6244 2.22497 39.6677 2.22497 40.6878C3.31462 40.6878 4.31152 40.6878 5.30843 40.6878ZM12.9128 40.6646C13.9792 40.6646 15.0225 40.6646 16.0658 40.6646C16.0658 39.5981 16.0658 38.5781 16.0658 37.5116C14.9993 37.5116 13.9792 37.5116 12.9128 37.5116C12.9128 38.5781 12.9128 39.5981 12.9128 40.6646ZM29.0024 40.6646C30.0921 40.6646 31.1121 40.6646 32.1554 40.6646C32.1554 39.5981 32.1554 38.5549 32.1554 37.5348C31.089 37.5348 30.0457 37.5348 29.0024 37.5348C29.0024 38.6012 29.0024 39.6213 29.0024 40.6646ZM16.089 48.2689C15.0225 48.2689 13.9792 48.2689 12.9359 48.2689C12.9359 49.3122 12.9359 50.3323 12.9359 51.3756C14.0024 51.3756 15.0225 51.3756 16.089 51.3756C16.089 50.3323 16.089 49.3354 16.089 48.2689ZM7.58046 51.3756C8.64692 51.3756 9.66701 51.3756 10.7335 51.3756C10.7335 50.3091 10.7335 49.289 10.7335 48.2689C9.66701 48.2689 8.62374 48.2689 7.58046 48.2689C7.58046 49.3122 7.58046 50.3323 7.58046 51.3756ZM29.0024 46.0201C30.0921 46.0201 31.1121 46.0201 32.1554 46.0201C32.1554 44.9536 32.1554 43.9335 32.1554 42.8903C31.089 42.8903 30.0457 42.8903 29.0024 42.8903C29.0024 43.9567 29.0024 44.9768 29.0024 46.0201ZM12.9359 42.8903C12.9359 43.9799 12.9359 45 12.9359 46.0201C14.0024 46.0201 15.0457 46.0201 16.089 46.0201C16.089 44.9536 16.089 43.9335 16.089 42.8903C15.0225 42.8903 14.0024 42.8903 12.9359 42.8903ZM10.7335 46.0433C10.7335 44.9536 10.7335 43.9567 10.7335 42.8903C9.66701 42.8903 8.64692 42.8903 7.58046 42.8903C7.58046 43.9567 7.58046 44.9768 7.58046 46.0433C8.64692 46.0433 9.66701 46.0433 10.7335 46.0433ZM5.40117 46.0201C5.40117 45.0464 5.40117 44.0958 5.40117 43.1685C5.40117 43.0757 5.23888 42.8671 5.14615 42.8671C4.17242 42.8439 3.1987 42.8439 2.22497 42.8439C2.22497 43.9567 2.22497 44.9768 2.22497 45.9969C3.26825 46.0201 4.28834 46.0201 5.40117 46.0201ZM23.6701 37.5116C23.6701 38.6012 23.6701 39.6445 23.6701 40.6646C24.7366 40.6646 25.7567 40.6646 26.7768 40.6646C26.7768 39.5981 26.7768 38.5781 26.7768 37.5116C25.7335 37.5116 24.7134 37.5116 23.6701 37.5116ZM18.2914 40.6646C19.3579 40.6646 20.378 40.6646 21.4213 40.6646C21.4213 39.5981 21.4213 38.5549 21.4213 37.5116C20.3548 37.5116 19.3579 37.5116 18.2914 37.5116C18.2914 38.5781 18.2914 39.5981 18.2914 40.6646ZM23.6469 32.1561C23.6469 33.2226 23.6469 34.2658 23.6469 35.3091C24.7134 35.3091 25.7335 35.3091 26.7536 35.3091C26.7536 34.2427 26.7536 33.1994 26.7536 32.1561C25.7335 32.1561 24.7134 32.1561 23.6469 32.1561ZM21.4213 32.1561C20.3548 32.1561 19.3347 32.1561 18.3146 32.1561C18.3146 33.2226 18.3146 34.2658 18.3146 35.3091C19.3811 35.3091 20.4012 35.3091 21.4213 35.3091C21.4213 34.2658 21.4213 33.2458 21.4213 32.1561ZM5.3548 51.3988C5.3548 50.3323 5.3548 49.3122 5.3548 48.2689C4.28834 48.2689 3.26825 48.2689 2.1786 48.2689C2.1786 49.034 2.15542 49.7527 2.1786 50.4714C2.20179 50.9815 2.52636 51.3524 3.05959 51.3756C3.82466 51.422 4.58973 51.3988 5.3548 51.3988ZM29.0024 48.2458C29.0024 49.3122 29.0024 50.3323 29.0024 51.3756C29.7675 51.3756 30.5325 51.3988 31.2744 51.3756C31.8077 51.3524 32.1322 50.9583 32.1554 50.4714C32.2018 49.7527 32.1786 49.0108 32.1786 48.2458C31.089 48.2458 30.0689 48.2458 29.0024 48.2458ZM21.4213 51.3988C21.4213 50.3323 21.4213 49.289 21.4213 48.2689C20.3548 48.2689 19.3579 48.2689 18.3146 48.2689C18.3146 49.3354 18.3146 50.3555 18.3146 51.3988C19.3579 51.3988 20.3548 51.3988 21.4213 51.3988ZM18.2914 42.8903C18.2914 43.9567 18.2914 44.9768 18.2914 46.0201C19.3579 46.0201 20.378 46.0201 21.3981 46.0201C21.3981 44.9536 21.3981 43.9335 21.3981 42.8903C20.3548 42.8903 19.3347 42.8903 18.2914 42.8903ZM23.6701 42.8903C23.6701 43.9799 23.6701 45 23.6701 46.0201C24.7366 46.0201 25.7335 46.0201 26.7768 46.0201C26.7768 44.9536 26.7768 43.9335 26.7768 42.8903C25.7335 42.8903 24.7134 42.8903 23.6701 42.8903ZM23.6469 51.3756C24.7134 51.3756 25.7335 51.3756 26.7536 51.3756C26.7536 50.3091 26.7536 49.289 26.7536 48.2458C25.6871 48.2458 24.6902 48.2458 23.6469 48.2458C23.6469 49.3122 23.6469 50.3091 23.6469 51.3756Z" fill="#3498db"/>
<path d="M5.40184 7.5116C6.14372 7.5116 6.79287 7.5116 7.51158 7.5116C7.51158 7.72025 7.53476 7.92891 7.53476 8.13756C7.53476 9.99228 7.53476 11.847 7.53476 13.7017C7.53476 15.6492 6.42193 16.9475 4.49767 17.1097C3.40802 17.2025 2.29519 17.1329 1.15918 17.1329C1.15918 16.4142 1.15918 15.7419 1.15918 15C2.1329 15 3.06026 15 4.0108 15C5.05408 15 5.40184 14.6522 5.40184 13.609C5.40184 11.8238 5.40184 10.0155 5.40184 8.2303C5.40184 7.99846 5.40184 7.7898 5.40184 7.5116Z" fill="#3498db"/>
<path d="M17.1331 57.8208C14.6293 57.8208 12.195 57.8208 9.66791 57.8208C9.66791 57.1948 9.64472 56.6152 9.69109 56.0124C9.69109 55.8965 9.87656 55.7111 9.99248 55.7111C12.3572 55.6879 14.7452 55.6879 17.1331 55.6879C17.1331 56.4298 17.1331 57.1021 17.1331 57.8208Z" fill="#3498db"/>
<path d="M6.44593 57.8207C5.75041 57.8207 5.07808 57.8207 4.35938 57.8207C4.35938 57.1483 4.35938 56.4528 4.35938 55.7341C5.05489 55.7341 5.72723 55.7341 6.44593 55.7341C6.44593 56.4296 6.44593 57.102 6.44593 57.8207Z" fill="#3498db"/>
<path d="M5.44824 3.22253C6.16694 3.22253 6.81609 3.22253 7.48843 3.22253C7.48843 3.91805 7.48843 4.59039 7.48843 5.30909C6.81609 5.30909 6.14376 5.30909 5.44824 5.30909C5.44824 4.63675 5.44824 3.96442 5.44824 3.22253Z" fill="#3498db"/>
<path d="M37.5347 6.44507C38.2766 6.44507 38.9257 6.44507 39.6676 6.44507C39.6676 7.07103 39.6908 7.697 39.6676 8.29978C39.6444 8.62436 39.7604 8.80983 40.0849 8.97212C41.1978 9.52853 41.731 10.4791 41.8469 11.8006C41.1746 11.8006 40.5486 11.8237 39.9226 11.7774C39.8299 11.7774 39.714 11.5919 39.6444 11.476C39.3431 10.8732 38.9257 10.6414 38.3461 10.7805C37.8361 10.9196 37.5347 11.3137 37.5579 11.8469C37.5811 12.3802 37.9288 12.7975 38.5548 12.8438C39.5981 12.9134 40.4559 13.2611 41.1282 14.0958C42.357 15.6259 41.9165 17.9443 40.1777 18.8717C39.7835 19.0803 39.6444 19.289 39.6676 19.7063C39.714 20.2627 39.6676 20.8191 39.6676 21.4219C38.9489 21.4219 38.2766 21.4219 37.5347 21.4219C37.5347 20.8423 37.5115 20.2627 37.5347 19.6831C37.5579 19.289 37.4652 19.0803 37.071 18.8948C35.9814 18.3384 35.4713 17.3879 35.3554 16.136C36.0973 16.136 36.7696 16.136 37.442 16.136C37.7665 16.9706 38.1607 17.272 38.833 17.1097C39.3199 16.9938 39.5981 16.6692 39.6213 16.1591C39.6444 15.6491 39.4126 15.255 38.9026 15.0927C38.7171 15.0231 38.5316 14.9999 38.323 14.9999C36.9319 14.884 35.68 13.8407 35.425 12.5656C35.1236 11.0355 35.7495 9.64445 37.0942 8.97212C37.4188 8.80983 37.5115 8.62436 37.4883 8.29978C37.5347 7.697 37.5347 7.09422 37.5347 6.44507Z" fill="#3498db"/>
<path d="M33.2233 14.9536C32.5046 14.9536 31.8322 14.9536 31.1367 14.9536C31.1367 14.2581 31.1367 13.609 31.1367 12.8903C31.8322 12.8903 32.5046 12.8903 33.2233 12.8903C33.2233 13.5858 33.2233 14.2349 33.2233 14.9536Z" fill="#3498db"/>
<path d="M46.0673 14.9536C45.3718 14.9536 44.7226 14.9536 44.0039 14.9536C44.0039 14.2813 44.0039 13.609 44.0039 12.8903C44.6994 12.8903 45.3486 12.8903 46.0673 12.8903C46.0673 13.5626 46.0673 14.2581 46.0673 14.9536Z" fill="#3498db"/>
<path d="M10.7812 27.8207C10.7812 27.1252 10.7812 26.476 10.7812 25.7805C15.0471 25.7805 19.2898 25.7805 23.5788 25.7805C23.5788 26.4529 23.5788 27.1252 23.5788 27.8207C19.3361 27.8207 15.0935 27.8207 10.7812 27.8207Z" fill="#3498db"/>
<path d="M25.7803 25.7573C26.4758 25.7573 27.1481 25.7573 27.8668 25.7573C27.8668 26.4297 27.8668 27.102 27.8668 27.8207C27.1945 27.8207 26.5222 27.8207 25.7803 27.8207C25.7803 27.1484 25.7803 26.476 25.7803 25.7573Z" fill="#3498db"/>
<path d="M8.55484 27.8207C7.85932 27.8207 7.21017 27.8207 6.51465 27.8207C6.51465 27.1484 6.51465 26.4528 6.51465 25.7573C7.18698 25.7573 7.85932 25.7573 8.55484 25.7573C8.55484 26.4297 8.55484 27.102 8.55484 27.8207Z" fill="#3498db"/>
</g>
<defs>
<clipPath id="clip0">
<rect width="56.8238" height="60" fill="white"/>
</clipPath>
</defs>
</svg>
