<svg width="59" height="60" viewBox="0 0 59 60" fill="none" xmlns="http://www.w3.org/2000/svg">
<path d="M25.8305 35.5321C28.0007 38.0428 29.1922 40.9364 29.4688 44.213C31.4476 44.213 33.3838 44.213 35.405 44.213C35.405 44.0002 35.405 43.8088 35.405 43.596C35.405 40.9789 35.405 38.3406 35.405 35.7236C35.405 34.7236 35.7029 34.4044 36.6816 34.4044C43.6817 34.4044 50.6817 34.4044 57.6818 34.4044C58.6605 34.4044 58.9796 34.7236 58.9796 35.7236C58.9796 43.3619 58.9796 51.0003 58.9796 58.6386C58.9796 59.6599 58.6605 59.979 57.6392 59.979C50.6817 59.979 43.703 59.979 36.7455 59.979C35.7029 59.979 35.3838 59.6599 35.3838 58.6173C35.3838 54.7237 35.3838 50.8088 35.3838 46.9151C35.3838 46.7024 35.3838 46.4896 35.3838 46.2556C33.3838 46.2556 31.4476 46.2556 29.4688 46.2556C28.9582 51.2556 26.639 55.1918 22.3199 57.8727C19.2135 59.7876 15.7879 60.3833 12.2134 59.7663C5.06445 58.5322 -0.0632408 52.3194 0.000589336 44.979C0.0644195 37.7874 5.68147 31.1704 13.7028 30.5108C13.7241 30.4044 13.7453 30.2768 13.7453 30.1704C13.7453 28.447 13.7453 26.7235 13.7453 25.0214C13.7453 24.681 13.6602 24.532 13.2773 24.4895C8.08574 23.7661 4.04316 19.298 3.93678 14.149C3.8304 8.6809 7.55382 4.0213 12.8304 3.1064C15.8943 2.57448 18.7028 3.25534 21.2135 5.10641C21.3411 5.19152 21.4688 5.2979 21.5965 5.38301C21.6177 5.38301 21.639 5.38301 21.7028 5.40428C22.256 4.85109 22.8305 4.27662 23.3837 3.68087C23.5114 3.55321 23.5752 3.29789 23.5752 3.1064C23.5965 2.08512 23.5752 1.06384 23.5752 0C24.2348 0 24.8518 0 25.5326 0C25.5326 0.957452 25.5326 1.9149 25.5326 2.91491C26.5326 2.91491 27.4901 2.91491 28.4688 2.91491C28.4688 3.57449 28.4688 4.19151 28.4688 4.87237C27.6816 4.87237 26.8731 4.9362 26.0858 4.85109C25.256 4.76598 24.6603 5.0213 24.1497 5.65961C23.8305 6.06386 23.405 6.38301 23.022 6.74472C25.639 10.1703 26.3412 13.8724 24.7029 17.8299C23.0858 21.7448 20.0007 23.915 15.7666 24.5108C15.7666 26.4895 15.7666 28.447 15.7666 30.4895C19.022 30.7448 21.8943 31.9363 24.405 34.0853C24.5326 33.9789 24.639 33.8938 24.7454 33.7874C26.9582 31.5746 29.171 29.3406 31.405 27.1278C31.6391 26.8938 31.7029 26.7235 31.5965 26.4044C31.4901 26.0852 31.4476 25.7023 31.4476 25.3618C31.4476 18.2129 31.4476 11.0639 31.4476 3.93619C31.4476 2.1915 32.7242 0.978729 34.5752 0.957452C36.3838 0.936175 38.1923 0.957452 40.0008 0.957452C45.2349 0.957452 50.469 0.957452 55.6817 0.957452C56.8945 0.957452 57.9371 1.34043 58.5328 2.44682C58.7669 2.87236 58.9371 3.40427 58.9371 3.89364C58.9584 11.1064 58.9584 18.3192 58.9584 25.5321C58.9584 27.064 57.852 28.2767 56.3413 28.4682C56.086 28.4895 55.852 28.4895 55.5966 28.4895C48.6604 28.4895 41.7242 28.4895 34.8093 28.4895C34.405 28.4895 33.9582 28.4895 33.5965 28.3619C33.171 28.1916 32.9582 28.3619 32.6816 28.6172C30.4476 30.9151 28.1497 33.1917 25.8305 35.5321ZM33.4263 14.7235C33.4263 18.2341 33.4263 21.7448 33.4263 25.2555C33.4263 26.1916 33.7455 26.5321 34.7029 26.5321C41.7242 26.5321 48.7455 26.5321 55.7456 26.5321C56.703 26.5321 57.0222 26.1916 57.0222 25.2555C57.0222 18.2554 57.0222 11.2554 57.0222 4.25534C57.0222 3.27661 56.703 2.95746 55.7243 2.95746C48.7243 2.95746 41.7242 2.95746 34.7242 2.95746C33.7242 2.95746 33.4263 3.27661 33.4263 4.25534C33.4263 7.74472 33.4263 11.2341 33.4263 14.7235ZM25.5539 51.8513C28.405 47.7237 28.4901 40.7875 23.639 36.0215C18.8092 31.2768 10.9155 31.2129 5.97935 35.9151C1.06442 40.596 1.02187 47.596 3.93678 51.8513C3.80912 49.745 4.36232 47.9152 5.76658 46.4258C7.17084 44.9151 8.93681 44.2343 11.0432 44.2343C10.9155 44.0215 10.8517 43.8939 10.7666 43.7662C9.36234 41.447 9.51128 38.4257 11.1709 36.2555C13.0432 33.7874 16.4475 33.7874 18.3198 36.2555C19.9581 38.4257 20.1284 41.4258 18.7241 43.7662C18.639 43.9151 18.5539 44.0428 18.4475 44.2343C20.5752 44.2556 22.3199 44.9364 23.7241 46.4258C25.1071 47.9364 25.6603 49.745 25.5539 51.8513ZM14.7454 46.2556C14.7454 46.2343 14.7454 46.213 14.7454 46.213C13.5113 46.213 12.256 46.1917 11.0219 46.213C8.23468 46.2556 6.19211 48.0003 5.93679 50.7024C5.83041 51.8513 5.89424 53.0428 5.89424 54.2131C5.89424 54.3833 6.0219 54.5748 6.17084 54.6811C10.9368 59.1067 18.5752 59.1067 23.3199 54.6811C23.4688 54.5535 23.5752 54.2982 23.5752 54.1067C23.5965 53.1067 23.5965 52.0854 23.5752 51.0854C23.5114 48.5322 21.6177 46.4683 19.0645 46.2981C17.639 46.1705 16.1922 46.2556 14.7454 46.2556ZM37.3838 50.0854C43.937 50.0854 50.4689 50.0854 56.9796 50.0854C56.9796 48.1279 56.9796 46.1917 56.9796 44.2768C50.4264 44.2768 43.9157 44.2768 37.3838 44.2768C37.3838 46.2343 37.3838 48.1492 37.3838 50.0854ZM37.3838 57.9578C43.9583 57.9578 50.4689 57.9578 56.9796 57.9578C56.9796 56.0003 56.9796 54.0641 56.9796 52.1492C50.4264 52.1492 43.9157 52.1492 37.3838 52.1492C37.3838 54.0854 37.3838 56.0003 37.3838 57.9578ZM37.3625 42.213C43.9583 42.213 50.4689 42.213 57.0009 42.213C57.0009 40.2555 57.0009 38.3194 57.0009 36.4045C50.4477 36.4045 43.937 36.4045 37.3838 36.4045C37.3838 36.5108 37.3625 36.5959 37.3625 36.6811C37.3625 38.5108 37.3625 40.3406 37.3625 42.213ZM20.2986 9.70218C21.3624 11.1915 21.8518 12.8937 21.5539 14.766C21.256 16.6597 20.3411 18.1916 18.7879 19.3193C15.8943 21.3831 12.1921 20.915 9.95809 18.681C7.46871 16.1916 7.17084 12.4682 9.14958 9.76601C10.1709 8.38302 11.49 7.46812 13.1709 7.06387C15.2347 6.59578 17.1496 7.00004 18.8092 8.19153C19.2986 7.72345 19.7454 7.27663 20.2135 6.8511C17.1496 4.27662 11.9794 4.08513 8.5751 7.44685C5.02189 10.9575 5.00062 16.4256 8.46872 20.0001C11.7453 23.3618 17.3198 23.4895 20.7667 20.2342C24.4901 16.7235 24.256 11.3618 21.6816 8.34047C21.2347 8.766 20.7879 9.21282 20.2986 9.70218ZM17.4049 9.6809C15.4475 8.25536 12.49 8.74473 10.9155 10.6809C9.25596 12.7447 9.51128 15.7448 11.5113 17.4682C13.4262 19.1278 16.4688 19.0001 18.1922 17.2554C20.0645 15.3618 20.0007 12.5107 18.873 11.2128C18.0432 12.0426 17.1922 12.8937 16.3198 13.7448C16.7454 13.7448 17.1922 13.7448 17.639 13.7448C17.639 14.4256 17.639 15.0639 17.639 15.7235C16.3411 15.7235 15.0858 15.7448 13.8305 15.7235C13.1283 15.7022 12.7879 15.3192 12.7666 14.5958C12.7666 14.0001 12.7666 13.3831 12.7666 12.7873C12.7666 12.149 12.7666 11.4894 12.7666 10.8511C13.4687 10.8511 14.0645 10.8511 14.7666 10.8511C14.7666 11.3192 14.7666 11.766 14.7666 12.3618C15.5964 11.5107 16.3198 10.7873 17.0432 10.0639C17.1709 9.93622 17.2773 9.82984 17.4049 9.6809ZM17.6815 40.2981C17.7241 39.2768 17.4049 38.3619 16.8305 37.5534C15.7666 36.0002 13.7028 36.0002 12.639 37.5534C11.49 39.2343 11.49 41.4258 12.6602 43.0853C13.7241 44.596 15.7666 44.596 16.8305 43.0853C17.4049 42.2343 17.7454 41.3194 17.6815 40.2981Z" fill="#3498db"/>
<path d="M34.4263 22.5958C35.0859 22.5958 35.7029 22.5958 36.3625 22.5958C36.3625 22.3405 36.3625 22.1703 36.3625 21.9788C36.3625 19.3617 36.3625 16.7234 36.3625 14.1064C36.3625 13.0638 36.6604 12.766 37.7242 12.766C38.554 12.766 39.3838 12.766 40.2987 12.766C40.2987 11.8511 40.2987 10.9787 40.2987 10.0851C40.2987 9.17019 40.6391 8.82976 41.5328 8.82976C42.4051 8.82976 43.2775 8.82976 44.2136 8.82976C44.2136 8.10636 44.2136 7.40422 44.2136 6.70209C44.2136 6.44677 44.2136 6.21273 44.2136 5.95741C44.2349 5.31911 44.5328 4.93613 45.1711 4.91485C46.4902 4.8723 47.7881 4.8723 49.1073 4.91485C49.7669 4.93613 50.086 5.31911 50.086 5.99996C50.086 6.91486 50.086 7.82976 50.086 8.85104C50.7243 8.85104 51.3413 8.85104 51.9584 8.85104C52.2562 8.85104 52.5541 8.85104 52.852 8.85104C53.6605 8.87232 54.0222 9.23402 54.0222 10.0213C54.0222 13.9787 54.0222 17.9149 54.0222 21.8724C54.0222 22.0852 54.0222 22.2979 54.0222 22.6171C54.5541 22.6171 55.0648 22.6383 55.5541 22.6171C55.8945 22.5958 56.0222 22.7235 56.0009 23.0639C55.9797 23.532 56.0009 24.0213 56.0009 24.532C48.7881 24.532 41.5966 24.532 34.3838 24.532C34.4263 23.915 34.4263 23.3192 34.4263 22.5958ZM46.2349 6.91486C46.2349 12.1702 46.2349 17.3617 46.2349 22.5745C46.8945 22.5745 47.5115 22.5745 48.1498 22.5745C48.1498 17.3404 48.1498 12.1489 48.1498 6.91486C47.4902 6.91486 46.8945 6.91486 46.2349 6.91486ZM50.1498 10.8511C50.1498 14.7872 50.1498 18.6596 50.1498 22.5745C50.8094 22.5745 51.4264 22.5745 52.0647 22.5745C52.0647 18.6383 52.0647 14.766 52.0647 10.8511C51.4264 10.8511 50.8094 10.8511 50.1498 10.8511ZM44.2136 22.5745C44.2136 18.6596 44.2136 14.766 44.2136 10.8723C43.5541 10.8723 42.937 10.8723 42.2987 10.8723C42.2987 14.7872 42.2987 18.6596 42.2987 22.5745C42.937 22.5745 43.5753 22.5745 44.2136 22.5745ZM38.3625 14.7872C38.3625 17.383 38.3625 19.9788 38.3625 22.5745C39.0221 22.5745 39.6391 22.5745 40.2774 22.5745C40.2774 19.9575 40.2774 17.383 40.2774 14.7872C39.6391 14.7872 39.0221 14.7872 38.3625 14.7872Z" fill="#3498db"/>
<path d="M49.1709 48.1279C49.1709 47.4683 49.1709 46.8513 49.1709 46.213C49.8092 46.213 50.4262 46.213 51.0645 46.213C51.0645 46.83 51.0645 47.4683 51.0645 48.1279C50.4475 48.1279 49.8092 48.1279 49.1709 48.1279Z" fill="#3498db"/>
<path d="M47.1495 48.1704C46.5112 48.1704 45.8942 48.1704 45.2559 48.1704C45.2559 47.5321 45.2559 46.9151 45.2559 46.2555C45.8516 46.2555 46.4899 46.2555 47.1495 46.2555C47.1495 46.8725 47.1495 47.4895 47.1495 48.1704Z" fill="#3498db"/>
<path d="M53.1289 46.2343C53.7672 46.2343 54.3842 46.2343 55.0225 46.2343C55.0225 46.8726 55.0225 47.4896 55.0225 48.1492C54.4055 48.1492 53.7885 48.1492 53.1289 48.1492C53.1289 47.5321 53.1289 46.8938 53.1289 46.2343Z" fill="#3498db"/>
<path d="M49.1924 54.0854C49.8307 54.0854 50.4264 54.0854 51.086 54.0854C51.086 54.7238 51.086 55.3621 51.086 56.0216C50.4477 56.0216 49.852 56.0216 49.1924 56.0216C49.1924 55.4046 49.1924 54.7663 49.1924 54.0854Z" fill="#3498db"/>
<path d="M45.2559 54.0854C45.8942 54.0854 46.5112 54.0854 47.1495 54.0854C47.1495 54.745 47.1495 55.3621 47.1495 56.0216C46.5112 56.0216 45.8942 56.0216 45.2559 56.0216C45.2559 55.3833 45.2559 54.7663 45.2559 54.0854Z" fill="#3498db"/>
<path d="M55.0225 54.0854C55.0225 54.745 55.0225 55.3621 55.0225 56.0216C54.3842 56.0216 53.7672 56.0216 53.1289 56.0216C53.1289 55.3621 53.1289 54.745 53.1289 54.0854C53.7672 54.0854 54.363 54.0854 55.0225 54.0854Z" fill="#3498db"/>
<path d="M51.086 38.3619C51.086 39.0002 51.086 39.6385 51.086 40.2768C50.4477 40.2768 49.8307 40.2768 49.1924 40.2768C49.1924 39.6385 49.1924 39.0215 49.1924 38.3619C49.8094 38.3619 50.4264 38.3619 51.086 38.3619Z" fill="#3498db"/>
<path d="M47.1708 38.3619C47.1708 39.0215 47.1708 39.6385 47.1708 40.2768C46.5325 40.2768 45.8942 40.2768 45.2559 40.2768C45.2559 39.6385 45.2559 39.0215 45.2559 38.3619C45.8942 38.3619 46.4899 38.3619 47.1708 38.3619Z" fill="#3498db"/>
<path d="M55.0013 40.2981C54.363 40.2981 53.7672 40.2981 53.1289 40.2981C53.1289 39.6598 53.1289 39.0428 53.1289 38.3619C53.7459 38.3619 54.3417 38.3619 55.0013 38.3619C55.0013 39.0002 55.0013 39.6173 55.0013 40.2981Z" fill="#3498db"/>
</svg>
