<svg width="69" height="68" viewBox="0 0 69 68" fill="none" xmlns="http://www.w3.org/2000/svg">
<g clip-path="url(#clip0)">
<path d="M42.8807 58.8967C43.223 59.8892 43.4967 60.7105 43.839 61.5319C43.9416 61.7372 44.2838 61.9083 44.5234 61.9425C46.0292 62.0794 46.7136 62.7981 46.7136 64.3381C46.7136 64.9199 46.7479 65.4674 46.7136 66.0492C46.6794 67.1443 45.9265 67.8972 44.8314 68.0341C44.7972 68.0341 44.763 68.0341 44.763 68.0341C37.9527 68.0341 31.1424 68.0341 24.3322 68.0341C23.1344 68.0341 22.4157 67.2128 22.3473 66.015C22.313 65.399 22.313 64.7488 22.3473 64.1328C22.3815 62.8323 23.1344 62.011 24.4348 62.011C25.0851 62.011 25.3931 61.8056 25.5984 61.1896C25.8379 60.471 26.1802 59.7865 26.5224 58.9652C26.146 58.931 25.8722 58.931 25.5642 58.931C19.2672 58.931 12.9703 58.931 6.67338 58.931C2.49824 58.8967 0 56.3985 0 52.2576C0 41.0668 0 29.9103 0 18.7196C0 14.7498 2.53246 12.2173 6.50226 12.1831C9.54806 12.1831 12.5939 12.1831 15.6397 12.1831C15.7423 12.1831 15.8792 12.1831 15.9819 12.1831C16.6663 12.1831 17.2139 12.4569 17.2139 13.1756C17.2139 13.8942 16.7006 14.2022 16.0161 14.2022C15.537 14.2022 15.0579 14.2022 14.5788 14.2022C11.8752 14.2022 9.17162 14.2707 6.46804 14.168C3.69602 14.0653 1.9849 16.3582 2.01912 18.5827C2.08757 29.8761 2.08757 41.1695 2.01912 52.4629C2.01912 54.6189 3.69602 56.8434 6.36538 56.8434C24.4691 56.8092 42.5727 56.8092 60.6764 56.8092C63.3115 56.8092 65.0227 55.098 65.0227 52.4629C65.0227 45.2078 65.0227 37.9184 65.0227 30.6632C65.0227 30.3894 64.92 30.0472 65.0569 29.8077C65.2622 29.4654 65.6387 28.9521 65.9467 28.9521C66.3231 28.9521 66.7338 29.3628 67.0076 29.705C67.1444 29.8761 67.076 30.2526 67.076 30.5263C67.076 37.7815 67.076 45.0709 67.076 52.326C67.076 56.2274 64.5093 58.7941 60.5737 58.7941C55.0297 58.7941 49.5199 58.7941 43.9758 58.7941C43.6336 58.8967 43.3256 58.8967 42.8807 58.8967ZM24.4006 65.9466C31.2109 65.9466 37.9185 65.9466 44.6261 65.9466C44.6261 65.2621 44.6261 64.6461 44.6261 64.0643C37.85 64.0643 31.1424 64.0643 24.4006 64.0643C24.4006 64.7145 24.4006 65.2963 24.4006 65.9466ZM40.6905 58.8967C36.8234 58.8967 32.9904 58.8967 29.1575 58.8967C28.9864 58.8967 28.7469 58.9994 28.6784 59.1363C28.2677 60.0261 27.8913 60.9501 27.4806 61.9083C32.306 61.9083 36.9945 61.9083 41.7856 61.9083C41.4092 60.8816 41.0669 59.9234 40.6905 58.8967Z" fill="#FFD93D"/>
<path d="M62.9694 24.3322C64.0303 24.3322 64.9543 24.3322 66.0152 24.3322C66.0152 23.9558 66.0152 23.6478 66.0152 23.3056C66.0152 18.1037 66.0152 12.9362 66.0152 7.73435C66.0152 7.46057 65.9467 7.08412 66.0836 6.91301C66.2889 6.60501 66.6654 6.22856 66.9734 6.19434C67.2814 6.19434 67.6921 6.53656 67.9316 6.84456C68.1027 7.0499 68.0343 7.46057 68.0343 7.76857C68.0343 13.4495 68.0343 19.1304 68.0343 24.7771C68.0343 26.2145 67.7947 26.4198 66.4258 26.4198C59.7182 26.4198 53.0106 26.4198 46.3373 26.4198C46.0977 26.4198 45.8239 26.4882 45.6528 26.3856C45.3106 26.1802 44.8315 25.9407 44.763 25.6327C44.6946 25.3247 44.9341 24.7429 45.2079 24.606C45.687 24.3665 45.687 24.0585 45.687 23.6478C45.687 22.9291 45.687 22.2104 45.687 21.526C45.687 20.8415 45.995 20.4309 46.6795 20.3967C47.3982 20.3967 47.7062 20.8415 47.7062 21.4918C47.7404 22.4158 47.7062 23.374 47.7062 24.3322C48.7328 24.3322 49.6911 24.3322 50.752 24.3322C50.752 23.7162 50.752 23.1687 50.752 22.6211C50.752 20.602 50.752 18.5829 50.752 16.5637C50.752 15.8793 50.9573 15.366 51.7102 15.2975C52.3604 15.2633 52.7711 15.7082 52.7711 16.5637C52.7711 19.1304 52.7711 21.6971 52.7711 24.3322C53.7635 24.3322 54.7218 24.3322 55.7827 24.3322C55.7827 23.8189 55.7827 23.2713 55.7827 22.758C55.7827 21.0469 55.7827 19.3358 55.7827 17.6246C55.7827 16.7691 56.1591 16.3242 56.8093 16.3242C57.4596 16.3242 57.8018 16.7348 57.836 17.6246C57.836 19.8491 57.836 22.0736 57.836 24.3665C58.8627 24.3665 59.7867 24.3665 60.8818 24.3665C60.8818 24.0927 60.8818 23.7847 60.8818 23.5109C60.8818 19.5411 60.8818 15.5713 60.8818 11.6357C60.8818 10.917 61.0529 10.3695 61.84 10.2668C62.4903 10.1984 62.9009 10.7459 62.9009 11.6015C62.9009 15.3317 62.9009 19.062 62.9009 22.7922C62.9694 23.2371 62.9694 23.7162 62.9694 24.3322Z" fill="#FFD93D"/>
<path d="M38.295 39.3901C36.5154 36.9261 37.3025 34.8385 38.7398 33.5723C40.2456 32.2034 42.7781 32.1692 44.4208 33.4696C46.2003 34.8727 46.4399 36.8576 45.071 39.2874C45.687 39.8008 46.4741 40.1772 46.8506 40.8274C47.3297 41.5461 47.6377 42.5043 47.7061 43.3599C47.843 45.071 47.7404 46.7821 47.7404 48.4933C47.7404 49.9306 46.9875 50.7519 45.5501 50.7862C42.915 50.8204 40.3141 50.8204 37.6789 50.7862C36.2758 50.7519 35.5572 49.9648 35.5572 48.5617C35.5572 47.0901 35.6256 45.5844 35.5572 44.1128C35.4203 41.9226 36.1389 40.2799 38.295 39.3901ZM45.687 48.6986C45.687 48.3906 45.687 48.2195 45.687 48.0142C45.687 46.4057 45.7212 44.8315 45.687 43.223C45.6528 42.1621 44.9683 41.3066 43.9074 41.2723C42.3674 41.1697 40.8274 41.2039 39.2874 41.2723C38.3976 41.3066 37.6789 42.0252 37.6447 42.8808C37.5763 44.7972 37.6105 46.7479 37.6105 48.7328C40.3141 48.6986 42.9492 48.6986 45.687 48.6986ZM41.6488 38.7399C42.9492 38.7399 43.9759 37.7816 43.9759 36.6181C43.9417 35.4545 42.915 34.5305 41.6145 34.5647C40.3483 34.599 39.3558 35.4887 39.3558 36.6523C39.3216 37.8159 40.3141 38.7399 41.6488 38.7399Z" fill="#FFD93D"/>
<path d="M23.0318 8.86349C21.3549 6.60481 21.9709 4.44879 23.5109 3.0799C25.0509 1.711 27.6861 1.711 29.2603 3.0799C31.0057 4.55146 31.1768 6.60481 29.7736 8.86349C29.9448 8.96616 30.0816 9.06882 30.2528 9.17149C31.827 10.0271 32.5114 11.3275 32.5114 13.0729C32.5114 14.7155 32.5114 16.3924 32.5114 18.0351C32.5114 19.4382 31.7928 20.2596 30.3896 20.2938C27.7545 20.3622 25.0852 20.3622 22.45 20.2938C21.0469 20.2596 20.3625 19.4724 20.3282 18.0351C20.3282 16.5978 20.3282 15.1946 20.3282 13.7573C20.3282 10.9853 20.6362 10.3693 23.0318 8.86349ZM30.4581 18.2404C30.4581 17.8298 30.4581 17.5218 30.4581 17.2138C30.4581 15.708 30.4923 14.2022 30.4581 12.6964C30.4239 11.704 29.7394 10.8484 28.7127 10.8142C27.1727 10.7115 25.6327 10.7457 24.1269 10.8142C23.2714 10.8484 22.5185 11.4302 22.4843 12.2857C22.3816 14.2706 22.45 16.2555 22.45 18.2747C25.0852 18.2404 27.7203 18.2404 30.4581 18.2404ZM26.3856 8.28171C27.6861 8.28171 28.7127 7.32348 28.7127 6.15992C28.7127 5.03058 27.6861 4.10657 26.4198 4.07235C25.0852 4.03812 24.0927 4.96213 24.0585 6.15992C24.0927 7.3577 25.0852 8.28171 26.3856 8.28171Z" fill="#FFD93D"/>
<path d="M7.83687 39.3559C6.15997 37.0972 6.70753 34.9754 8.21332 33.5723C9.75333 32.135 12.4227 32.135 14.0311 33.5039C15.7765 34.9754 15.9476 37.0288 14.5102 39.3217C14.8182 39.4928 15.1262 39.6981 15.4343 39.9035C16.5978 40.6564 17.1796 41.7857 17.248 43.1204C17.3165 44.9684 17.2823 46.8164 17.248 48.6644C17.248 49.828 16.5294 50.6835 15.3658 50.7178C12.5596 50.7862 9.7191 50.7862 6.91286 50.7178C5.7493 50.6835 5.09907 49.8622 5.06485 48.6644C5.03063 46.8506 5.03063 45.0026 5.06485 43.1888C5.1333 41.3408 6.12575 40.143 7.83687 39.3559ZM7.18664 48.6986C9.89022 48.6986 12.5596 48.6986 15.2289 48.6986C15.2289 46.8164 15.2631 45.0026 15.2289 43.1888C15.1947 42.1964 14.476 41.3408 13.4836 41.3066C11.9436 41.2039 10.4036 41.2381 8.89777 41.3066C8.00798 41.3408 7.25509 42.0253 7.22087 42.8466C7.1182 44.7631 7.18664 46.7137 7.18664 48.6986ZM11.1564 34.5648C9.85599 34.5648 8.86354 35.4888 8.86354 36.6866C8.89776 37.8501 9.85599 38.7399 11.1564 38.7399C12.4569 38.7399 13.5178 37.8159 13.5178 36.6523C13.4836 35.4888 12.4569 34.5648 11.1564 34.5648Z" fill="#FFD93D"/>
<path d="M56.3301 9.78758C59.6497 6.77601 62.8666 3.83288 66.0835 0.889748C66.3231 0.650191 66.5626 0.410634 66.8364 0.205299C67.3155 -0.136925 67.7946 -0.136925 68.2053 0.307966C68.616 0.752858 68.5475 1.23197 68.1711 1.67686C68.0684 1.81375 67.9315 1.91642 67.7946 2.01909C64.304 5.16755 60.8475 8.35024 57.3568 11.4987C56.4328 12.3543 56.0906 12.32 55.2008 11.4303C54.2083 10.4378 53.2501 9.44536 52.2234 8.41869C50.3412 10.1298 48.5274 11.8067 46.7136 13.4836C46.5083 13.6889 46.2687 13.9627 46.0292 13.9627C45.6527 13.9969 45.1052 13.9627 44.8998 13.7232C44.6945 13.4836 44.7629 12.9703 44.7972 12.5938C44.8314 12.4227 45.0709 12.2516 45.242 12.0805C47.2612 10.2325 49.2461 8.38446 51.2652 6.50223C52.0181 5.81778 52.4972 5.81778 53.2159 6.57067C54.311 7.70002 55.2692 8.72669 56.3301 9.78758Z" fill="#FFD93D"/>
<path d="M22.6211 23.7502C22.4158 24.1266 22.2789 24.4346 22.0736 24.6399C19.8491 26.9671 17.6247 29.2942 15.4002 31.6213C14.9553 32.1004 14.4078 32.2373 13.8944 31.7582C13.4153 31.2791 13.4838 30.7315 13.9286 30.2524C16.1873 27.8911 18.446 25.4955 20.7389 23.1684C20.9785 22.9288 21.526 22.8262 21.8683 22.8946C22.1763 22.9973 22.3816 23.4422 22.6211 23.7502Z" fill="#FFD93D"/>
<path d="M37.9868 32.0322C37.8499 31.9295 37.5419 31.7926 37.3366 31.5531C35.1463 29.2602 32.9561 27.0015 30.7659 24.7086C30.1841 24.0926 30.1499 23.5108 30.629 23.0659C31.0739 22.621 31.6214 22.7237 32.2374 23.3397C34.3592 25.5642 36.481 27.7886 38.6028 30.0131C38.8081 30.2184 39.0135 30.4237 39.1161 30.6975C39.3899 31.3478 38.8766 32.0664 37.9868 32.0322Z" fill="#FFD93D"/>
<path d="M38.8424 14.2364C38.1238 14.2364 37.4051 14.2364 36.7207 14.2364C36.0704 14.2364 35.5913 13.9284 35.5913 13.244C35.5913 12.5253 36.0362 12.2173 36.6864 12.2173C38.1238 12.1831 39.5953 12.1831 41.0327 12.2173C41.6829 12.2173 42.1278 12.5595 42.1278 13.244C42.0936 13.9627 41.6145 14.2364 40.9985 14.2364C40.2456 14.2364 39.5269 14.2364 38.8424 14.2364Z" fill="#FFD93D"/>
</g>
<defs>
<clipPath id="clip0">
<rect width="68.5476" height="68" fill="white"/>
</clipPath>
</defs>
</svg>
