<svg width="75" height="68" viewBox="0 0 75 68" fill="none" xmlns="http://www.w3.org/2000/svg">
<path d="M15.0431 64.9447C14.4231 67.1935 13.2638 68.0001 10.7566 68.0001C8.46513 68.0001 6.17362 68.0001 3.8821 68.0001C1.45579 68.0001 0 66.6557 0 64.4559C0 58.5163 0 52.5522 0 46.6126C0 44.3883 1.42883 43.0684 3.8821 43.0684C6.20057 43.0684 8.51905 43.1417 10.8106 43.0439C13.183 42.9462 14.8275 44.1927 15.0701 46.4659C16.5798 46.3682 18.1434 46.7592 19.5992 46.0015C19.7879 45.9037 20.0306 45.8548 20.2193 45.7571C22.8343 44.4372 25.638 44.0705 28.6305 44.1683C33.0787 44.3149 37.527 44.2172 41.9752 44.1927C43.6736 44.1927 45.2103 44.5838 46.2886 45.8304C46.8278 46.4415 47.1513 47.1748 47.6096 47.8836C47.8253 47.7614 48.1488 47.6147 48.4454 47.4436C51.5726 45.806 54.6999 44.1438 57.8271 42.5306C60.3073 41.2351 63.5963 41.9684 65.16 44.1439C66.7775 46.3682 66.2922 49.4235 63.9468 50.939C57.881 54.8254 51.7883 58.6873 45.6147 62.4271C42.9188 64.0648 39.9802 65.3602 37.1495 66.8268C34.4536 68.2445 31.6229 68.1712 28.7383 67.4623C26.0694 66.8024 23.4004 66.1669 20.7854 65.4091C18.8444 64.8469 16.9572 64.9447 15.0431 64.9447ZM15.0162 62.6471C15.5823 62.6471 16.1215 62.6715 16.6337 62.6471C18.3861 62.5738 20.0575 62.8671 21.729 63.307C24.2362 63.9914 26.7703 64.6025 29.3045 65.2625C31.8656 65.9469 34.2919 65.8002 36.6373 64.5292C39.495 62.9893 42.4605 61.6205 45.2103 59.9584C50.8717 56.5119 56.4252 52.9188 62.0327 49.3746C63.5963 48.3969 64.0007 46.8081 63.0302 45.4393C62.1405 44.1683 60.3343 43.8261 58.7707 44.6571C54.9425 46.6615 51.1143 48.6658 47.3131 50.6945C47.1244 50.7923 46.9087 50.9145 46.8009 51.0612C45.6416 52.6011 44.0241 53.261 41.9752 53.261C38.3627 53.2366 34.7502 53.261 31.1377 53.261C30.7333 53.261 30.3289 53.261 29.9245 53.2366C29.1427 53.1877 28.7114 52.7233 28.7653 52.0144C28.8192 51.33 29.3045 51.0123 30.248 51.0123C34.1301 51.0123 38.0122 51.0123 41.8943 51.0123C42.2717 51.0123 42.6492 50.9878 43.0266 50.9145C44.2397 50.6945 45.0485 49.7168 44.9676 48.6169C44.9137 47.4192 43.7814 46.5148 42.2987 46.5148C38.2818 46.5148 34.2649 46.5148 30.248 46.5148C28.3878 46.5148 26.4738 46.2704 24.6675 46.6126C22.9152 46.9303 21.2707 47.8592 19.5722 48.4702C19.1409 48.6413 18.6287 48.7147 18.1434 48.7391C17.119 48.788 16.0945 48.7391 15.0431 48.7391C15.0162 53.3832 15.0162 57.9785 15.0162 62.6471ZM12.4551 55.5098C12.4551 52.5278 12.4551 49.5702 12.4551 46.5881C12.4551 45.6593 12.1316 45.3415 11.0802 45.3415C8.65385 45.3415 6.22753 45.3415 3.80122 45.3415C2.8307 45.3415 2.45327 45.6837 2.45327 46.5637C2.45327 52.5522 2.45327 58.5407 2.45327 64.5047C2.45327 65.3847 2.80374 65.7024 3.80122 65.7269C6.20057 65.7269 8.59993 65.7269 10.9993 65.7269C12.1316 65.7269 12.4281 65.4336 12.4551 64.4314C12.4551 61.4494 12.4551 58.4674 12.4551 55.5098Z" fill="#3498db"/>
<path d="M43.7276 0C52.7319 0 61.7362 0 70.7405 0C72.358 0 73.679 0.439971 74.4339 1.78433C74.7035 2.27318 74.9191 2.85981 74.9191 3.39756C74.9461 13.5902 74.9461 23.8073 74.9461 34C74.9461 35.7843 73.4094 37.2509 71.4684 37.3487C70.0935 37.3976 68.7186 37.3731 67.3706 37.3731C61.8171 37.3731 56.2635 37.3731 50.7369 37.3731C50.2516 37.3731 49.9012 37.4953 49.5507 37.8131C48.4184 38.8886 47.2592 39.9396 46.1 40.9907C44.725 42.2372 42.7301 42.2617 41.3552 41.0151C40.169 39.9641 38.9828 38.8886 37.8505 37.8131C37.527 37.5198 37.2035 37.3976 36.7452 37.3976C30.0593 37.422 23.3465 37.3976 16.6607 37.422C15.0971 37.422 13.803 37.0065 13.0482 35.7354C12.7516 35.2221 12.509 34.5866 12.509 34C12.4821 23.8073 12.4821 13.6391 12.4821 3.44644C12.4821 1.66211 13.9648 0.195543 15.9328 0.0733285C16.2833 0.0488857 16.6607 0.0488857 17.0112 0.0488857C25.9076 0 34.8041 0 43.7276 0ZM43.7815 2.27318C34.8041 2.27318 25.8268 2.27318 16.8225 2.27318C15.3128 2.27318 14.9892 2.5665 14.9892 3.95974C14.9892 12.0748 14.9892 20.2142 14.9892 28.3293C14.9892 30.1869 14.9892 32.0446 14.9892 33.8778C14.9892 34.6111 15.3936 35.0022 16.2024 35.0999C16.4181 35.1244 16.6607 35.1244 16.8764 35.1244C23.724 35.1244 30.5716 35.1244 37.4191 35.1244C38.147 35.1244 38.6862 35.3199 39.1984 35.8088C40.4116 36.982 41.6787 38.1064 42.9457 39.2308C43.5928 39.8174 43.8893 39.793 44.5094 39.2308C45.7764 38.082 47.0435 36.9576 48.2567 35.8088C48.7689 35.3199 49.3081 35.1244 50.036 35.1244C56.8566 35.1488 63.7042 35.1244 70.5248 35.1244C72.1693 35.1244 72.4659 34.8555 72.4659 33.34C72.4659 26.2027 72.4659 19.041 72.4659 11.9037C72.4659 9.16607 72.4659 6.40403 72.4659 3.66643C72.4659 2.68871 72.0345 2.29763 70.9562 2.29763C70.7675 2.29763 70.6057 2.29763 70.417 2.29763C61.5205 2.27318 52.651 2.27318 43.7815 2.27318Z" fill="#3498db"/>
<path d="M6.22754 63.4536C5.55357 63.4536 4.98743 62.9403 4.98743 62.3292C4.98743 61.7181 5.55357 61.2048 6.22754 61.2048C6.90152 61.2048 7.46766 61.7181 7.46766 62.3292C7.46766 62.9403 6.90152 63.4536 6.22754 63.4536Z" fill="#3498db"/>
<path d="M53.4868 26.9848C52.8128 28.7203 51.5188 29.9424 49.5238 30.4068C48.9577 30.5535 48.3376 30.6024 47.7176 30.6024C45.1565 30.6268 42.5953 30.5779 40.0342 30.6268C37.0687 30.6757 34.9929 29.5513 33.9145 27.0093C30.976 27.3759 28.0105 27.1559 25.045 27.1804C22.0256 27.2048 20.0037 25.2738 19.9228 22.5118C19.8689 19.9453 20.5968 17.6966 22.6726 15.8878C23.1309 15.4723 23.6701 15.1545 24.1823 14.7879C22.5918 11.9036 22.8883 9.58154 25.072 7.94387C27.0669 6.45285 29.9785 6.45285 31.9735 7.91942C34.1841 9.53265 34.5076 11.8547 32.9171 14.7634C33.5371 15.2523 34.2111 15.7167 34.7772 16.2544C35.3164 16.7922 35.7478 17.4032 36.233 17.9654C37.0687 17.3788 37.9584 16.7433 38.902 16.0833C37.6079 14.5923 37.1227 12.8813 37.6888 10.9992C38.0393 9.75264 38.7941 8.72604 39.9534 7.96831C42.3258 6.35508 45.6148 6.45285 47.7984 8.16385C49.0925 9.16601 49.8204 10.4859 49.9552 12.0258C50.1169 13.5657 49.5238 14.8856 48.5263 16.0833C49.4429 16.7433 50.3326 17.3544 51.2492 17.9899C52.031 16.6944 53.0824 15.5945 54.5921 14.8123C53.5137 13.4435 53.1633 11.9525 53.6755 10.3393C54.026 9.26378 54.6999 8.38384 55.6974 7.74832C57.8002 6.40397 60.6579 6.52618 62.4911 8.04164C64.5669 9.72819 64.8365 12.1236 63.219 14.7879C63.3538 14.8856 63.5155 15.0078 63.6773 15.1056C66.1306 16.6944 67.3976 18.8454 67.4246 21.583C67.4246 22.2429 67.4785 22.9029 67.3437 23.5384C66.9124 25.6649 65.0252 27.1559 62.6259 27.1804C60.1187 27.2293 57.5846 27.2048 55.0774 27.1804C54.5921 27.1804 54.0799 27.0582 53.4868 26.9848ZM43.7276 28.3292C45.1834 28.3292 46.6392 28.3536 48.095 28.3292C49.9282 28.2803 51.1953 27.0826 51.2222 25.4449C51.2222 24.9805 51.2492 24.5161 51.2222 24.0517C51.0335 21.1919 49.5508 19.0898 46.6122 17.9165C46.3696 17.8188 45.9922 17.8188 45.7226 17.8677C44.3746 18.2343 43.0267 18.2343 41.6787 17.8677C41.4091 17.7943 41.0587 17.8188 40.7891 17.9165C39.2794 18.4298 38.1741 19.3831 37.3383 20.6053C36.3409 22.0474 36.1521 23.6362 36.1791 25.2983C36.233 27.1804 37.4731 28.3536 39.522 28.3536C40.9508 28.3292 42.3258 28.3292 43.7276 28.3292ZM28.5497 24.9316C28.5497 24.9072 28.5497 24.9072 28.5497 24.8828C29.8976 24.8828 31.2456 24.9316 32.5935 24.8583C33.5102 24.8094 33.645 24.5406 33.7528 23.7339C33.8876 22.8051 34.1572 21.9007 34.3459 20.9963C34.3998 20.6786 34.4807 20.3364 34.3998 20.0675C33.8606 18.4787 32.8092 17.2566 31.1108 16.5722C30.8412 16.45 30.4907 16.4989 30.1672 16.4989C29.2506 16.5233 28.3071 16.7433 27.4444 16.5477C26.393 16.3278 25.6651 16.6211 24.9372 17.1344C23.0231 18.5032 22.3761 20.3364 22.4839 22.4629C22.5648 24.0028 23.4275 24.8828 25.1529 24.9072C26.2582 24.9316 27.3905 24.9316 28.5497 24.9316ZM58.8516 24.9316V24.9072C60.1457 24.9072 61.4667 24.9561 62.7607 24.8828C64.0547 24.8094 64.9444 23.9295 64.9713 22.7562C64.9983 22.2918 64.9983 21.8274 64.9713 21.363C64.7826 19.1876 63.6773 17.5499 61.4936 16.5722C61.1971 16.45 60.8196 16.4744 60.4961 16.4989C59.5526 16.4989 58.5551 16.67 57.6385 16.5233C56.8836 16.4011 56.3444 16.5233 55.7513 16.8411C54.4304 17.5988 53.5407 18.6743 53.1094 20.0186C53.0015 20.3119 53.0824 20.6786 53.1363 21.0208C53.325 21.9496 53.5677 22.8784 53.7025 23.8317C53.8103 24.5161 53.9181 24.7605 54.6999 24.8828C55.0235 24.9316 55.3739 24.9561 55.6974 24.9561C56.7219 24.9316 57.8002 24.9316 58.8516 24.9316ZM43.7276 15.8389C45.8304 15.8389 47.4749 14.299 47.4749 12.4169C47.448 10.5837 45.7765 9.06824 43.7007 9.06824C41.6248 9.06824 39.9264 10.6081 39.9534 12.4902C39.9803 14.3723 41.6518 15.8633 43.7276 15.8389ZM25.6112 11.7814C25.6112 13.2724 26.9591 14.4701 28.5767 14.4212C30.2212 14.3968 31.4613 13.1991 31.4613 11.6836C31.4343 10.2171 30.1403 9.06824 28.5227 9.06824C26.8782 9.09268 25.6112 10.2659 25.6112 11.7814ZM55.967 11.757C55.967 13.2235 57.315 14.4457 58.9325 14.4212C60.55 14.3968 61.8171 13.2235 61.8441 11.757C61.8441 10.2659 60.577 9.06824 58.9325 9.06824C57.2611 9.09268 55.967 10.2659 55.967 11.757Z" fill="#3498db"/>
</svg>
