<svg width="60" height="60" viewBox="0 0 60 60" fill="none" xmlns="http://www.w3.org/2000/svg">
<g clip-path="url(#clip0)">
<path d="M5.81952 11.623C5.14959 11.623 4.56341 11.623 3.93536 11.623C3.91442 11.4346 3.89349 11.267 3.89349 11.0995C3.89349 9.06806 3.89349 7.01571 3.89349 4.98429C3.89349 2.09424 5.96606 0 8.85511 0C24.2424 0 39.6297 0 55.017 0C57.9479 0 60.0205 2.09424 60.0205 5.02618C60.0205 7.03665 60.0205 9.04712 60.0205 11.0366C60.0205 11.2042 59.9995 11.3717 59.9995 11.5812C59.3715 11.5812 58.7644 11.5812 58.0945 11.5812C58.0945 25.1309 58.0945 38.6597 58.0945 52.2094C52.9235 52.2094 47.7944 52.2094 42.6444 52.2094C42.6444 52.8586 42.6444 53.466 42.6444 54.1361C43.2515 54.1361 43.8586 54.1361 44.5285 54.1361C44.5285 54.8063 44.5285 55.4136 44.5285 56.0838C38.1014 56.0838 31.6953 56.0838 25.2682 56.0838C25.1007 58.1989 23.74 59.9581 21.2696 59.9581C19.4273 59.9581 17.6269 58.6387 17.4385 56.1047C16.4964 56.1047 15.5334 56.1047 14.5704 56.1047C13.6283 56.1047 12.6862 56.1047 11.7023 56.1047C11.5976 57.4241 11.0952 58.534 9.9856 59.3089C9.25287 59.8115 8.4364 60.0209 7.55713 59.9791C5.96606 59.8953 4.12377 58.7225 3.89349 56.1257C3.62133 56.1257 3.32824 56.1257 3.03515 56.1257C1.2766 56.0838 0.0623645 54.8691 0.0623645 53.1099C0.0623645 51.9162 0.12517 50.7225 0.0414294 49.5497C-0.063246 48.0838 1.15099 46.4293 3.01421 46.4503C3.91442 46.4503 3.91442 46.4293 3.91442 45.5288C3.91442 43.623 3.91442 41.7173 3.91442 39.8325C3.91442 38.5759 4.4378 37.6335 5.5683 37.089C5.90326 36.9215 5.84045 36.6911 5.84045 36.4398C5.84045 29.6963 5.84045 22.9319 5.84045 16.1885C5.81952 14.6806 5.81952 13.1937 5.81952 11.623ZM13.5864 25.1728C13.5864 29.0681 13.5864 32.9005 13.5864 36.7539C14.696 36.7539 15.7846 36.7539 16.8523 36.7539C18.3596 36.7749 19.3017 37.4031 19.867 38.8063C20.83 41.1937 21.7721 43.6021 22.756 45.9895C22.8188 46.1571 22.9444 46.3037 23.0491 46.4712C23.1119 46.4503 23.1747 46.4293 23.2375 46.3874C23.2375 39.9581 23.2375 33.5497 23.2375 27.1204C25.2054 27.1204 27.1105 27.1204 29.0365 27.1204C29.0365 28.3979 29.0365 29.6544 29.0365 30.9738C33.5795 30.9738 38.0596 30.9738 42.5815 30.9738C42.5815 37.445 42.5815 43.8534 42.5815 50.2618C45.1775 50.2618 47.7106 50.2618 50.2647 50.2618C50.2647 41.8639 50.2647 33.5288 50.2647 25.1728C38.0177 25.1728 25.8125 25.1728 13.5864 25.1728ZM52.2745 15.5183C52.2745 27.1414 52.2745 38.7016 52.2745 50.2827C53.5725 50.2827 54.8495 50.2827 56.1056 50.2827C56.1056 37.3822 56.1056 24.5236 56.1056 11.644C39.9856 11.644 23.9074 11.644 7.78742 11.644C7.78742 20.0209 7.78742 28.377 7.78742 36.733C9.06446 36.733 10.3206 36.733 11.6185 36.733C11.6185 29.6544 11.6185 22.5969 11.6185 15.5183C25.2054 15.5183 38.6876 15.5183 52.2745 15.5183ZM50.2857 17.445C38.0177 17.445 25.7916 17.445 13.5864 17.445C13.5864 19.3717 13.5864 21.2775 13.5864 23.2042C25.8335 23.2042 38.0386 23.2042 50.2857 23.2042C50.2857 21.2775 50.2857 19.3717 50.2857 17.445ZM23.1956 48.4188C23.07 48.3979 22.9654 48.3979 22.8607 48.3979C16.2661 48.3979 9.69251 48.3979 3.09795 48.3979C2.28148 48.3979 1.94652 48.7749 1.94652 49.6126C1.94652 50.7016 1.94652 51.7696 1.94652 52.8586C1.94652 53.3403 1.94652 53.9267 2.4699 54.0524C3.09795 54.199 3.76788 54.1361 4.41686 54.1571C4.45873 54.1571 4.52154 54.0314 4.58435 53.9686C6.30102 51.7277 9.23194 51.7068 10.9486 53.9476C11.0533 54.0942 11.2836 54.1989 11.4511 54.1989C13.5027 54.2199 15.5543 54.2199 17.6269 54.1989C17.7944 54.1989 18.0247 54.0733 18.1294 53.9267C19.1133 52.6702 20.3694 52.0628 21.9814 52.356C22.4001 52.4188 22.7979 52.5864 23.2166 52.6911C23.1956 51.2461 23.1956 49.8429 23.1956 48.4188ZM5.81952 46.4084C10.8439 46.4084 15.8056 46.4084 20.7881 46.4084C20.7253 46.2199 20.6834 46.0733 20.6206 45.9267C19.7832 43.8115 18.9249 41.6963 18.0665 39.5812C17.7735 38.8691 17.585 38.7225 16.8104 38.7225C14.6751 38.7225 12.5187 38.7225 10.3834 38.7225C9.19007 38.7225 8.0177 38.7225 6.8244 38.7225C6.23822 38.7225 5.81952 39.0785 5.79858 39.623C5.79858 41.8848 5.81952 44.1257 5.81952 46.4084ZM57.8851 3.8534C57.7804 3.64398 57.7176 3.4555 57.6129 3.3089C56.9221 2.28272 55.9381 1.9267 54.7448 1.9267C39.546 1.9267 24.368 1.9267 9.16913 1.9267C8.85511 1.9267 8.54108 1.94764 8.22705 1.98953C7.2431 2.11518 6.21728 2.99476 6.09167 3.83246C23.3213 3.8534 40.5508 3.8534 57.8851 3.8534ZM38.7086 48.356C36.1126 48.356 33.5585 48.356 30.9626 48.356C30.9626 47.0785 30.9626 45.822 30.9626 44.5445C30.3136 44.5445 29.7065 44.5445 29.0993 44.5445C29.0993 47.7696 29.0993 50.9529 29.0993 54.1571C32.9723 54.1571 36.8035 54.1571 40.6346 54.1571C40.6346 50.9319 40.6346 47.7487 40.6346 44.5445C39.9856 44.5445 39.3785 44.5445 38.7086 44.5445C38.7086 45.8429 38.7086 47.0785 38.7086 48.356ZM29.0784 42.555C32.9514 42.555 36.7825 42.555 40.6137 42.555C40.6137 39.3298 40.6137 36.1257 40.6137 32.9215C39.9647 32.9215 39.3785 32.9215 38.6876 32.9215C38.6876 34.2199 38.6876 35.4764 38.6876 36.733C36.0707 36.733 33.5376 36.733 30.9416 36.733C30.9416 35.4555 30.9416 34.199 30.9416 32.9215C30.2926 32.9215 29.6855 32.9215 29.0575 32.9215C29.0784 36.1466 29.0784 39.3298 29.0784 42.555ZM27.0686 54.178C27.0686 45.7801 27.0686 37.445 27.0686 29.0681C26.4406 29.0681 25.8335 29.0681 25.2054 29.0681C25.2054 37.445 25.2054 45.801 25.2054 54.178C25.8335 54.178 26.4197 54.178 27.0686 54.178ZM11.5976 5.84293C9.65064 5.84293 7.74555 5.84293 5.86139 5.84293C5.86139 7.14136 5.86139 8.37696 5.86139 9.63351C7.78742 9.63351 9.69251 9.63351 11.5976 9.63351C11.5976 8.35602 11.5976 7.12042 11.5976 5.84293ZM52.2954 5.82199C52.2954 7.12042 52.2954 8.35602 52.2954 9.61257C54.2215 9.61257 56.1266 9.61257 58.0107 9.61257C58.0107 8.31414 58.0107 7.07853 58.0107 5.82199C56.1056 5.82199 54.2215 5.82199 52.2954 5.82199ZM46.4127 5.84293C44.4657 5.84293 42.5815 5.84293 40.6974 5.84293C40.6974 7.12042 40.6974 8.37696 40.6974 9.63351C42.6234 9.63351 44.5076 9.63351 46.4127 9.63351C46.4127 8.35602 46.4127 7.12042 46.4127 5.84293ZM34.7937 5.84293C32.8677 5.84293 30.9626 5.84293 29.0575 5.84293C29.0575 7.12042 29.0575 8.37696 29.0575 9.63351C30.9835 9.63351 32.8677 9.63351 34.7937 9.63351C34.7937 8.35602 34.7937 7.12042 34.7937 5.84293ZM17.4385 9.63351C19.3855 9.63351 21.2696 9.63351 23.1956 9.63351C23.1956 8.35602 23.1956 7.12042 23.1956 5.84293C21.2696 5.84293 19.3645 5.84293 17.4385 5.84293C17.4385 7.12042 17.4385 8.35602 17.4385 9.63351ZM9.69251 56.1466C9.69251 55.0785 8.83417 54.2199 7.76648 54.2199C6.69879 54.2199 5.81952 55.0785 5.81952 56.1466C5.81952 57.2147 6.67786 58.0733 7.74554 58.0733C8.81324 58.0524 9.69251 57.1937 9.69251 56.1466ZM21.2696 54.2199C20.2019 54.2199 19.3436 55.0995 19.3645 56.1675C19.3855 57.2356 20.2438 58.0733 21.3115 58.0733C22.3792 58.0524 23.2375 57.2147 23.2166 56.1257C23.2166 55.0366 22.3582 54.199 21.2696 54.2199ZM32.9305 32.9215C32.9305 33.5707 32.9305 34.178 32.9305 34.8063C34.2075 34.8063 35.4846 34.8063 36.7197 34.8063C36.7197 34.1571 36.7197 33.5288 36.7197 32.9215C35.4636 32.9215 34.2284 32.9215 32.9305 32.9215ZM32.9514 46.4293C34.2494 46.4293 35.4846 46.4293 36.7616 46.4293C36.7616 45.7801 36.7616 45.1728 36.7616 44.5445C35.4846 44.5445 34.2284 44.5445 32.9514 44.5445C32.9514 45.1728 32.9514 45.7801 32.9514 46.4293ZM13.5864 5.82199C13.5864 7.12042 13.5864 8.37696 13.5864 9.63351C14.2354 9.63351 14.8216 9.63351 15.4497 9.63351C15.4497 8.35602 15.4497 7.09948 15.4497 5.82199C14.8216 5.82199 14.2145 5.82199 13.5864 5.82199ZM48.4224 5.82199C48.4224 7.12042 48.4224 8.37696 48.4224 9.63351C49.0505 9.63351 49.6576 9.63351 50.2647 9.63351C50.2647 8.35602 50.2647 7.09948 50.2647 5.82199C49.6367 5.82199 49.0505 5.82199 48.4224 5.82199ZM38.6667 9.63351C38.6667 8.33508 38.6667 7.07853 38.6667 5.82199C38.0386 5.82199 37.4315 5.82199 36.8244 5.82199C36.8244 7.12042 36.8244 8.37696 36.8244 9.63351C37.4524 9.63351 38.0386 9.63351 38.6667 9.63351ZM27.0477 9.63351C27.0477 8.33508 27.0477 7.09948 27.0477 5.82199C26.3987 5.82199 25.8125 5.82199 25.1845 5.82199C25.1845 7.09948 25.1845 8.35602 25.1845 9.63351C25.8335 9.63351 26.4197 9.63351 27.0477 9.63351Z" fill="#3498db"/>
<path d="M27.1318 19.3927C27.7599 19.3927 28.367 19.3927 28.9951 19.3927C28.9951 20 28.9951 20.6074 28.9951 21.2356C28.3879 21.2356 27.7808 21.2356 27.1318 21.2356C27.1318 20.6283 27.1318 20.021 27.1318 19.3927Z" fill="#3498db"/>
<path d="M31.0049 19.3927C31.6539 19.3927 32.261 19.3927 32.889 19.3927C32.889 20.021 32.889 20.6074 32.889 21.2566C32.261 21.2566 31.6329 21.2566 31.0049 21.2566C31.0049 20.6283 31.0049 20.021 31.0049 19.3927Z" fill="#3498db"/>
<path d="M34.8574 21.2565C34.8574 20.6492 34.8574 20.0418 34.8574 19.4136C35.4855 19.4136 36.0926 19.4136 36.7416 19.4136C36.7416 20.0209 36.7416 20.6282 36.7416 21.2565C36.1345 21.2565 35.5064 21.2565 34.8574 21.2565Z" fill="#3498db"/>
</g>
<defs>
<clipPath id="clip0">
<rect width="60" height="60" fill="white"/>
</clipPath>
</defs>
</svg>
