<svg width="60" height="61" viewBox="0 0 60 61" fill="none" xmlns="http://www.w3.org/2000/svg">
<path d="M39.9859 54.9935C39.9859 56.2485 39.9859 57.4385 39.9859 58.6286C39.9859 59.6455 39.6614 60.0133 38.6444 60.0133C26.203 60.0133 13.7616 60.0133 1.32024 60.0133C0.324931 60.0133 0.000373065 59.6672 0.000373065 58.6718C0.000373065 46.6199 0.000373065 34.5463 0.000373065 22.4944C0.000373065 21.2827 0.216745 21.0447 1.42843 21.0015C1.49334 21.0015 1.55825 20.9798 1.51498 20.9798C1.08223 19.9629 0.519666 18.9676 0.26002 17.9073C-1.05985 12.8226 2.81321 7.97585 8.07106 8.01912C8.48216 8.01912 8.69853 7.91093 8.91491 7.5431C10.4079 4.88172 13.6102 3.45367 16.4663 4.1677C19.7119 4.96827 21.8107 7.49983 21.9838 10.7454C21.9838 10.9401 22.0703 11.1782 22.2002 11.308C24.6019 13.9694 24.5586 18.1237 22.1352 20.7202C22.092 20.7634 22.0487 20.8284 21.9621 20.9365C23.3037 20.9365 24.6019 20.9365 25.965 20.9365C25.965 20.7418 25.965 20.5471 25.965 20.3523C25.965 17.6477 25.965 14.943 25.965 12.2384C25.965 10.2478 27.22 8.97116 29.2539 8.97116C33.4731 8.97116 37.6924 8.97116 41.9117 8.97116C42.3228 8.97116 42.7555 8.97116 43.1666 8.97116C43.1666 8.94952 43.1666 8.90625 43.1666 8.88461C40.8731 8.56005 38.5795 8.21386 36.286 7.8893C31.8936 7.24018 27.5229 6.6127 23.1306 5.96359C22.7844 5.92031 22.4165 5.72558 22.1352 5.48757C21.3347 4.81681 20.5774 4.10279 19.7984 3.38876C19.0628 2.718 19.1709 1.98234 20.0581 1.54959C21.0317 1.07357 22.0054 0.597556 22.9791 0.164812C23.2604 0.0349883 23.6066 -0.0299233 23.9095 0.0133511C29.189 0.770654 34.4685 1.54959 39.7263 2.32853C44.7894 3.0642 49.8525 3.79986 54.9156 4.53553C55.7595 4.66535 56.6033 4.7519 57.4255 4.925C59.6975 5.40102 60.6279 7.73784 59.308 9.64191C59.2431 9.72846 59.1782 9.81501 59.0916 9.94483C59.8706 10.7454 59.9355 11.7191 59.9355 12.7577C59.9138 25.7616 59.9355 38.7656 59.9355 51.7479C59.9355 53.7169 58.7238 54.9719 56.7548 54.9719C54.0285 54.9935 51.3022 54.9719 48.5976 54.9719C45.9578 54.9719 43.3397 54.9719 40.7 54.9719C40.5052 54.9935 40.2889 54.9935 39.9859 54.9935ZM27.9773 21.0015C28.2586 21.0015 28.4533 21.0015 28.648 21.0015C31.7638 21.0015 34.8796 21.0015 37.9953 21.0015C38.255 21.0015 38.5363 21.0015 38.7959 21.0015C39.5748 21.0447 39.9427 21.4126 39.9427 22.1915C39.9427 23.2517 39.9427 24.3119 39.9427 25.3722C39.9427 25.5669 39.9643 25.7616 39.9643 25.9564C45.9795 25.9564 51.9297 25.9564 57.9016 25.9564C57.9016 25.8266 57.9232 25.74 57.9232 25.6535C57.9232 21.1529 57.9232 16.6307 57.9232 12.1302C57.9232 11.3729 57.5337 11.0051 56.7332 11.0051C47.5373 11.0051 38.3415 11.0051 29.1457 11.0051C28.2802 11.0051 27.934 11.3513 27.934 12.2167C27.934 14.6185 27.934 17.0202 27.934 19.4003C27.9773 19.9196 27.9773 20.4172 27.9773 21.0015ZM40.0076 44.9755C40.1807 44.9971 40.3105 44.9971 40.462 44.9971C45.8929 44.9971 51.3238 44.9971 56.7332 44.9971C57.6203 44.9971 57.9665 44.6293 57.9665 43.7422C57.9665 38.6791 57.9665 33.6159 57.9665 28.5528C57.9665 28.3797 57.9665 28.2066 57.9665 28.0552C51.9297 28.0552 45.9795 28.0552 40.0076 28.0552C40.0076 33.7025 40.0076 39.3282 40.0076 44.9755ZM1.991 57.9578C13.9997 57.9578 25.965 57.9578 37.9304 57.9578C37.9304 51.2936 37.9304 44.6726 37.9304 38.0516C25.9434 38.0516 13.978 38.0516 1.991 38.0516C1.991 44.6942 1.991 51.3152 1.991 57.9578ZM7.94123 21.0015C8.93654 21.0015 9.93186 21.0231 10.9055 21.0015C11.1435 21.0015 11.4032 20.9149 11.5979 20.7634C13.6535 19.2056 14.454 16.6307 13.6967 14.2074C12.9394 11.8056 10.819 10.1828 8.28743 10.0314C5.62605 9.87992 3.31087 11.4378 2.35883 13.991C1.45007 16.4144 2.25064 19.1623 4.34945 20.7418C4.52255 20.8716 4.80383 20.9798 5.02021 20.9798C5.99388 21.0015 6.96756 21.0015 7.94123 21.0015ZM52.8601 8.27877C52.9683 7.56474 53.0548 6.9589 53.1414 6.30978C50.8478 5.96359 48.6192 5.63903 46.4122 5.31447C39.1421 4.25425 31.872 3.21566 24.6019 2.11216C23.6282 1.9607 22.9791 2.43672 22.1136 2.80455C22.806 3.25893 23.1306 3.97296 23.9311 4.08115C27.7393 4.62208 31.5474 5.18465 35.3772 5.74721C39.7047 6.37469 44.0321 7.00217 48.3596 7.65129C49.8309 7.84602 51.3238 8.0624 52.8601 8.27877ZM21.9189 35.9744C21.9189 31.647 21.9189 27.3628 21.9189 23.0354C20.599 23.0354 19.3008 23.0354 18.0025 23.0354C18.0025 27.3628 18.0025 31.647 18.0025 35.9744C19.3224 35.9744 20.6206 35.9744 21.9189 35.9744ZM16.0336 15.8734C18.3055 15.3758 19.9715 13.3635 19.9715 11.1349C19.9932 8.68987 18.3704 6.65598 15.9686 6.11505C13.9564 5.66066 11.533 6.74252 10.7108 8.4735C13.978 9.83665 15.709 12.3249 16.0336 15.8734ZM2.01263 33.0101C2.01263 34.0271 2.01263 34.9791 2.01263 35.9528C6.68627 35.9528 11.3166 35.9528 15.947 35.9528C15.947 34.9358 15.947 33.9838 15.947 33.0101C11.2734 33.0101 6.66464 33.0101 2.01263 33.0101ZM15.947 28.0552C11.2734 28.0552 6.643 28.0552 1.96936 28.0552C1.96936 28.8774 1.991 29.6563 1.96936 30.4569C1.94772 30.9113 2.09918 31.0411 2.53193 31.0411C6.83773 31.0195 11.1435 31.0411 15.4493 31.0195C15.6224 31.0195 15.7955 30.9978 15.9686 30.9762C15.947 29.9593 15.947 29.0072 15.947 28.0552ZM24.0393 33.0317C24.0393 34.0271 24.0393 35.0007 24.0393 35.9744C28.713 35.9744 33.3217 35.9744 37.9304 35.9744C37.9304 34.9791 37.9304 34.0054 37.9304 33.0317C33.2784 33.0317 28.6697 33.0317 24.0393 33.0317ZM37.952 28.0552C33.2784 28.0552 28.648 28.0552 24.0393 28.0552C24.0393 29.0505 24.0393 30.0025 24.0393 30.9762C28.6913 30.9762 33.3217 30.9762 37.952 30.9762C37.952 29.9809 37.952 29.0289 37.952 28.0552ZM15.947 25.978C15.947 24.9611 15.947 24.009 15.947 23.0786C11.2734 23.0786 6.643 23.0786 2.01263 23.0786C2.01263 24.0739 2.01263 25.026 2.01263 25.978C6.66464 25.978 11.295 25.978 15.947 25.978ZM37.952 23.057C33.2784 23.057 28.6697 23.057 24.0393 23.057C24.0393 24.0523 24.0393 25.0043 24.0393 25.9564C28.713 25.9564 33.3217 25.9564 37.952 25.9564C37.952 24.9827 37.952 24.0523 37.952 23.057ZM57.9448 51.0339C51.9513 51.0339 46.0011 51.0339 40.0076 51.0339C40.0076 51.683 40.0076 52.3105 40.0076 53.0029C40.2456 53.0029 40.462 53.0029 40.6783 53.0029C45.8496 53.0029 51.0209 53.0029 56.1922 53.0029C57.8367 53.0029 58.0747 52.7432 57.9448 51.0339ZM57.9448 46.9661C51.9297 46.9661 45.9795 46.9661 40.0076 46.9661C40.0076 47.6801 40.0076 48.3076 40.0076 48.9567C46.0011 48.9567 51.9513 48.9567 57.9448 48.9567C57.9448 48.2643 57.9448 47.572 57.9448 46.9661ZM14.4108 21.0015C15.2762 21.0015 16.185 21.0231 17.0938 21.0015C19.3224 20.9365 21.1616 19.4868 21.7891 17.3448C22.0703 16.3927 22.0271 14.6401 21.3779 13.8828C20.2528 16.1331 18.4786 17.5395 15.947 17.9506C15.8388 17.9722 15.7306 18.1021 15.6657 18.2103C15.2546 19.119 14.8435 20.0278 14.4108 21.0015ZM54.8291 8.60333C55.5864 8.68987 56.2788 8.8197 56.9712 8.86297C57.4688 8.90625 57.8799 8.51678 57.9448 8.04076C58.0098 7.58638 57.7285 7.06708 57.2525 6.9589C56.5601 6.80744 55.846 6.72089 55.1104 6.6127C55.0238 7.28346 54.9373 7.91093 54.8291 8.60333Z" fill="#FFD93D"/>
<path d="M34.9873 18.9892C34.9873 18.3185 34.9873 17.7126 34.9873 17.0419C38.644 17.0419 42.2574 17.0419 45.9357 17.0419C45.9357 17.6693 45.9357 18.3185 45.9357 18.9892C42.3007 18.9892 38.6873 18.9892 34.9873 18.9892Z" fill="#FFD93D"/>
<path d="M34.9873 14.9647C34.9873 14.2939 34.9873 13.6881 34.9873 13.0173C38.644 13.0173 42.279 13.0173 45.9357 13.0173C45.9357 13.6665 45.9357 14.2939 45.9357 14.9647C42.3007 14.9647 38.6873 14.9647 34.9873 14.9647Z" fill="#FFD93D"/>
<path d="M41.998 22.9705C41.998 22.3214 41.998 21.6939 41.998 21.0232C43.2963 21.0232 44.5945 21.0232 45.936 21.0232C45.936 21.6507 45.936 22.2782 45.936 22.9705C44.6378 22.9705 43.3179 22.9705 41.998 22.9705Z" fill="#FFD93D"/>
<path d="M29.9678 18.9676C29.9678 18.3185 29.9678 17.691 29.9678 17.0419C30.9631 17.0419 31.9367 17.0419 32.9321 17.0419C32.9321 17.6693 32.9321 18.2968 32.9321 18.9676C31.98 18.9676 31.0064 18.9676 29.9678 18.9676Z" fill="#FFD93D"/>
<path d="M29.9893 13.0173C30.9846 13.0173 31.9582 13.0173 32.9536 13.0173C32.9536 13.6665 32.9536 14.2939 32.9536 14.9647C31.9799 14.9647 31.0062 14.9647 29.9893 14.9647C29.9893 14.3372 29.9893 13.7097 29.9893 13.0173Z" fill="#FFD93D"/>
<path d="M50.9122 18.9893C49.9169 18.9893 48.9865 18.9893 47.9912 18.9893C47.9912 18.3185 47.9912 17.691 47.9912 17.0203C48.9649 17.0203 49.9169 17.0203 50.9122 17.0203C50.9122 17.6694 50.9122 18.2969 50.9122 18.9893Z" fill="#FFD93D"/>
<path d="M53.0117 17.0203C54.007 17.0203 54.9374 17.0203 55.9111 17.0203C55.9111 17.691 55.9111 18.3185 55.9111 18.9893C54.9374 18.9893 53.9854 18.9893 53.0117 18.9893C53.0117 18.3401 53.0117 17.7127 53.0117 17.0203Z" fill="#FFD93D"/>
<path d="M50.9345 12.9956C50.9345 13.7096 50.9345 14.3155 50.9345 14.9862C49.9392 14.9862 48.9872 14.9862 47.9703 14.9862C47.9703 14.402 47.9486 13.8395 47.9919 13.2985C47.9919 13.1903 48.165 13.0172 48.2732 13.0172C49.1387 12.9956 50.0041 12.9956 50.9345 12.9956Z" fill="#FFD93D"/>
<path d="M55.9326 13.0389C55.9326 13.6881 55.9326 14.3372 55.9326 14.9863C54.9589 14.9863 54.0069 14.9863 53.0332 14.9863C53.0332 14.3372 53.0332 13.7097 53.0332 13.0389C53.9852 13.0389 54.9373 13.0389 55.9326 13.0389Z" fill="#FFD93D"/>
<path d="M48.0137 21.0232C49.009 21.0232 49.961 21.0232 50.9347 21.0232C50.9347 21.6939 50.9347 22.3214 50.9347 22.9922C49.961 22.9922 49.009 22.9922 48.0137 22.9922C48.0137 22.3431 48.0137 21.6939 48.0137 21.0232Z" fill="#FFD93D"/>
<path d="M53.0117 22.9705C53.0117 22.2782 53.0117 21.6723 53.0117 21.0232C53.9854 21.0232 54.9591 21.0232 55.9327 21.0232C55.9327 21.6723 55.9327 22.3214 55.9327 22.9705C54.9374 22.9705 53.9638 22.9705 53.0117 22.9705Z" fill="#FFD93D"/>
<path d="M44.9407 36.9698C43.9454 36.9698 42.9717 36.9698 41.998 36.9698C41.998 36.3207 41.998 35.6932 41.998 35.0441C42.9934 35.0441 43.9454 35.0441 44.9407 35.0441C44.9407 35.6715 44.9407 36.299 44.9407 36.9698Z" fill="#FFD93D"/>
<path d="M44.9407 39.0469C44.9407 39.696 44.9407 40.3235 44.9407 40.9726C43.9454 40.9726 42.9934 40.9726 41.998 40.9726C41.998 40.3451 41.998 39.7176 41.998 39.0469C42.9717 39.0469 43.9238 39.0469 44.9407 39.0469Z" fill="#FFD93D"/>
<path d="M41.998 31.0411C42.9934 31.0411 43.9454 31.0411 44.9407 31.0411C44.9407 31.6903 44.9407 32.3177 44.9407 32.9669C43.967 32.9669 42.9934 32.9669 41.998 32.9669C41.998 32.3394 41.998 31.7335 41.998 31.0411Z" fill="#FFD93D"/>
<path d="M50.9339 35.0441C50.9339 35.6932 50.9339 36.3207 50.9339 36.9698C49.9386 36.9698 48.9865 36.9698 47.9912 36.9698C47.9912 36.3207 47.9912 35.6932 47.9912 35.0441C48.9865 35.0441 49.9386 35.0441 50.9339 35.0441Z" fill="#FFD93D"/>
<path d="M55.9327 35.0441C55.9327 35.6932 55.9327 36.3207 55.9327 36.9698C54.9591 36.9698 54.007 36.9698 53.0117 36.9698C53.0117 36.3207 53.0117 35.7148 53.0117 35.0441C53.9854 35.0441 54.9374 35.0441 55.9327 35.0441Z" fill="#FFD93D"/>
<path d="M48.0137 39.0469C48.9873 39.0469 49.9394 39.0469 50.9131 39.0469C50.9131 39.696 50.9131 40.3235 50.9131 40.9942C49.9394 40.9942 49.009 40.9942 48.0137 40.9942C48.0137 40.3451 48.0137 39.7393 48.0137 39.0469Z" fill="#FFD93D"/>
<path d="M53.0117 40.9509C53.0117 40.3017 53.0117 39.6743 53.0117 39.0251C53.9854 39.0251 54.9374 39.0251 55.9327 39.0251C55.9327 39.6526 55.9327 40.2801 55.9327 40.9509C54.9807 40.9509 54.007 40.9509 53.0117 40.9509Z" fill="#FFD93D"/>
<path d="M53.0117 31.0411C53.9854 31.0411 54.9374 31.0411 55.9111 31.0411C55.9111 31.6686 55.9111 32.2961 55.9111 32.9669C54.9591 32.9669 54.007 32.9669 53.0117 32.9669C53.0117 32.3394 53.0117 31.7335 53.0117 31.0411Z" fill="#FFD93D"/>
<path d="M50.9347 31.0411C50.9347 31.6903 50.9347 32.3177 50.9347 32.9669C49.9394 32.9669 48.9873 32.9669 48.0137 32.9669C48.0137 32.3177 48.0137 31.6903 48.0137 31.0411C48.9873 31.0411 49.9394 31.0411 50.9347 31.0411Z" fill="#FFD93D"/>
<path d="M19.9715 40.0206C23.8662 40.0206 27.7609 40.0206 31.6556 40.0206C32.6076 40.0206 32.8889 40.2803 32.9755 41.2323C33.062 42.0978 33.776 42.8118 34.6632 42.9633C35.8099 43.1364 35.983 43.3311 35.983 44.5212C35.983 46.9229 35.983 49.3246 35.983 51.7047C35.983 52.5919 35.7018 52.8948 34.8363 53.003C33.7544 53.1328 33.062 53.8685 32.9755 54.9287C32.9322 55.5778 32.6293 55.924 31.9802 55.9889C31.8287 56.0105 31.6989 56.0105 31.5474 56.0105C23.8229 56.0105 16.1201 56.0105 8.39559 56.0105C8.0494 56.0105 7.65993 55.9456 7.37864 55.7725C7.18391 55.6427 7.03245 55.3181 6.98917 55.0585C6.81607 53.7819 6.25351 53.1761 4.99855 53.0246C4.26288 52.9381 3.95996 52.5919 3.95996 51.8346C3.95996 49.303 3.95996 46.7498 3.95996 44.2183C3.95996 43.4826 4.21961 43.158 4.93364 43.0282C6.31842 42.7902 6.7728 42.3142 6.96753 40.9294C7.05408 40.3452 7.42192 40.0206 8.11431 40.0206C10.278 40.0206 12.4417 40.0206 14.6055 40.0206C16.4014 40.0206 18.1972 40.0206 19.9715 40.0206ZM33.9708 51.1205C33.9708 49.1083 33.9708 47.1609 33.9491 45.2136C33.9491 45.0621 33.7328 44.8241 33.5813 44.7592C32.4778 44.3048 31.6989 43.5691 31.2661 42.4656C31.1147 42.0762 30.9199 41.968 30.5305 41.968C26.2247 41.9896 21.9188 41.968 17.613 41.968C14.8651 41.968 12.0956 41.968 9.34763 41.9896C9.17453 41.9896 8.87161 42.1194 8.82833 42.2709C8.35232 43.4826 7.5301 44.3264 6.31842 44.7808C6.18859 44.8241 6.03713 45.0405 6.0155 45.1919C5.99386 47.0527 5.99386 48.9135 6.0155 50.7527C6.0155 50.8825 6.14532 51.1205 6.25351 51.1422C7.61665 51.6182 8.4605 52.5919 8.91488 53.955C9.08798 53.955 9.23944 53.955 9.41254 53.955C16.4879 53.955 23.5416 53.955 30.617 53.955C30.7036 53.955 30.8117 53.9766 30.8767 53.955C30.9848 53.9117 31.1363 53.8468 31.1796 53.7386C31.634 52.4404 32.5644 51.5533 33.9708 51.1205Z" fill="#FFD93D"/>
<path d="M15.9902 48.0048C15.9902 45.7545 17.7645 44.0019 20.0148 44.0235C22.2217 44.0452 23.996 45.8194 23.996 48.0048C23.996 50.2118 22.1352 52.0509 19.9498 52.0077C17.7212 51.9644 15.9902 50.2118 15.9902 48.0048ZM21.9621 47.9831C21.9621 46.9013 21.0317 45.9925 19.9498 45.9925C18.868 46.0141 17.9592 46.9445 17.9592 48.0048C17.9592 49.0866 18.8896 49.9738 19.9715 49.9738C21.0966 49.9738 21.9621 49.0866 21.9621 47.9831Z" fill="#FFD93D"/>
<path d="M30.9411 48.9782C29.275 48.9782 27.6739 48.9782 26.0078 48.9782C26.0078 48.3291 26.0078 47.7016 26.0078 47.0309C27.6522 47.0309 29.275 47.0309 30.9411 47.0309C30.9411 47.68 30.9411 48.3075 30.9411 48.9782Z" fill="#FFD93D"/>
<path d="M13.9352 47.0527C13.9352 47.7019 13.9352 48.3293 13.9352 48.9785C12.2908 48.9785 10.6464 48.9785 9.00195 48.9785C9.00195 48.3293 9.00195 47.7235 9.00195 47.0527C10.6247 47.0527 12.2475 47.0527 13.9352 47.0527Z" fill="#FFD93D"/>
</svg>
