<svg width="65" height="60" viewBox="0 0 65 60" fill="none" xmlns="http://www.w3.org/2000/svg">
<g clip-path="url(#clip0)">
<path d="M51.3605 41.7657C46.6891 44.2799 42.0177 46.7941 37.4189 49.284C37.4189 50.1627 37.5641 51.0171 37.3947 51.7982C36.8622 54.288 34.2966 55.6794 31.9246 54.8739C29.5284 54.0683 28.3182 51.4076 29.3105 49.0399C29.5042 48.5517 29.48 48.2587 29.1653 47.8682C27.3742 45.5736 25.6315 43.2791 23.8646 40.9845C23.7436 40.8381 23.6468 40.716 23.5015 40.5451C20.0645 42.5712 16.4823 42.9617 12.7549 41.546C12.2708 42.2783 11.8109 42.9862 11.3268 43.7673C10.7459 43.3035 10.1892 42.8641 9.60834 42.4003C9.9956 41.7901 10.3587 41.2286 10.7217 40.6428C6.5102 37.5183 4.59808 33.4174 5.56624 28.2425C6.55861 23.0675 9.92299 20.0407 14.9575 18.7469C14.4492 16.55 13.9409 14.3775 13.4326 12.205C13.2632 11.4483 13.0937 10.6916 12.8759 9.9593C12.8275 9.76402 12.5612 9.54433 12.3676 9.51992C10.3103 9.27582 8.66437 7.61593 8.51915 5.61431C8.39813 3.51504 9.68095 1.61105 11.6657 1.04962C14.3039 0.317317 16.9664 2.24571 17.1116 5.00405C17.1358 5.51667 17.3053 5.68754 17.7409 5.85841C25.1716 8.56793 32.6023 11.3263 40.033 14.0602C40.2992 14.1578 40.5413 14.2555 40.8075 14.3531C42.7438 11.8145 45.5757 12.205 47.1248 13.4499C48.577 14.6216 49.642 17.2335 47.5121 19.8454C49.6904 23.0919 51.8688 26.3385 54.0472 29.585C54.6523 29.4386 55.2332 29.2921 55.8383 29.1212C55.8383 25.24 55.8383 21.3588 55.8383 17.4044C56.5644 17.4044 57.2421 17.4044 57.9925 17.4044C57.9925 21.31 57.9925 25.2156 57.9925 29.0724C61.8409 30.0244 64.0677 32.3678 64.3824 36.3222C64.6002 39.227 62.8575 42.083 60.0982 43.3767C57.5084 44.6216 54.0714 44.4263 51.3605 41.7657ZM16.7728 40.2278C21.9041 40.4719 26.4544 36.5419 26.7691 31.074C27.0595 25.7038 22.9206 21.0171 17.4747 20.7974C12.3676 20.5777 7.81723 24.4345 7.47837 29.9023C7.16372 35.3458 11.3752 40.0325 16.7728 40.2278ZM29.1411 31.2693C35.8699 32.3434 42.7438 33.4418 49.6178 34.5647C50.1019 32.9536 50.9975 31.7087 52.1835 30.6591C50.0535 27.4369 47.9477 24.288 45.842 21.1391C45.7694 21.0171 45.5273 20.9683 45.3579 20.9683C44.8496 20.9927 44.3655 21.0903 43.8572 21.0659C42.6712 21.0171 41.7273 20.3824 40.9285 19.5036C39.5247 20.3092 38.145 21.0903 36.7654 21.8714C34.1029 23.3849 31.4405 24.8983 28.778 26.4361C28.6086 26.5338 28.3908 26.8267 28.415 26.9975C28.6328 28.3645 28.8749 29.7315 29.1411 31.2693ZM49.2063 36.6884C42.405 35.5899 35.531 34.4914 28.6086 33.393C27.9793 35.6875 26.8175 37.6159 25.1716 39.227C27.1806 41.8389 29.1411 44.3775 31.0774 46.9162C33.0864 46.0618 34.1998 46.1595 35.9667 47.3067C36.1119 47.4044 36.4265 47.3556 36.596 47.2579C40.9043 44.939 45.2127 42.5956 49.5452 40.2766C49.7388 40.179 49.9325 40.0569 50.0293 40.0081C49.7388 38.8853 49.4726 37.8356 49.2063 36.6884ZM27.7131 24.703C27.7615 24.6786 27.9067 24.6054 28.0761 24.5077C31.9488 22.3108 35.8214 20.0895 39.7183 17.9414C40.2266 17.6485 40.2024 17.3312 40.2024 16.8674C40.2024 16.3792 39.8635 16.3792 39.5731 16.2815C33.6915 14.109 27.8341 11.9365 21.9525 9.73961C20.1371 9.08054 18.3218 8.39706 16.6033 7.76239C16.0466 8.2506 15.5384 8.68998 15.0301 9.12936C15.0785 9.34905 15.1511 9.59315 15.1995 9.83725C15.8288 12.5956 16.4581 15.3783 17.0632 18.1611C17.16 18.5761 17.3053 18.7225 17.7167 18.7225C20.3066 18.8202 22.6786 19.6745 24.6149 21.4076C25.7525 22.3596 26.6481 23.5313 27.7131 24.703ZM51.5057 36.6395C51.5057 39.642 53.8535 42.0342 56.8307 42.0586C59.7836 42.083 62.2282 39.642 62.2524 36.6639C62.2524 33.6615 59.8804 31.2693 56.8549 31.2449C53.9262 31.2449 51.5057 33.6859 51.5057 36.6395ZM33.2316 52.8722C34.4418 52.8722 35.3858 51.9447 35.3858 50.7242C35.3858 49.5281 34.4418 48.5761 33.2316 48.5761C32.0214 48.5761 31.0774 49.5281 31.0774 50.7242C31.0774 51.9202 32.0214 52.8722 33.2316 52.8722ZM14.9817 5.27257C14.9817 4.05206 14.0861 3.10007 12.8759 3.07566C11.6899 3.05125 10.7217 4.00324 10.6975 5.19934C10.6975 6.44425 11.5931 7.37183 12.8033 7.39624C14.0135 7.42065 14.9575 6.49307 14.9817 5.27257ZM46.4955 16.8185C46.4955 15.598 45.6241 14.6949 44.4623 14.7193C43.2037 14.7193 42.2113 15.6957 42.2113 16.8674C42.2113 18.039 43.2279 19.0643 44.3655 19.0399C45.5515 18.991 46.4955 18.039 46.4955 16.8185Z" fill="#3498db"/>
<path d="M-0.000209898 43.9626C0.846936 43.9626 1.64567 43.9626 2.49282 43.9626C2.49282 47.4045 2.49282 50.8463 2.49282 54.4102C4.25972 53.4338 5.90561 52.5062 7.67251 51.5298C7.67251 52.555 7.67251 53.4582 7.67251 54.4834C9.41521 53.507 11.0611 52.5794 12.8038 51.6274C12.8038 52.6038 12.8038 53.4826 12.8038 54.5078C14.5707 53.5314 16.2408 52.6038 17.9109 51.6762C17.9109 54.4834 17.9109 57.2417 17.9109 60.0245C11.9082 60.0245 5.97822 60.0245 -0.0244141 60.0245C-0.000209898 54.6787 -0.000209898 49.3573 -0.000209898 43.9626Z" fill="#3498db"/>
<path d="M58.1136 11.5948C58.0652 11.6924 58.041 11.6924 58.041 11.7168C57.9442 13.7429 57.9684 13.8161 59.8805 13.7673C60.1467 13.7673 60.3888 13.7673 60.6792 13.7673C60.6792 14.2799 60.6792 14.6949 60.6792 15.2075C60.4372 15.2075 60.2194 15.2075 60.0015 15.2075C57.6779 15.2075 55.3543 15.2075 53.0549 15.2075C52.2562 15.2075 52.2562 15.2075 52.2804 14.4264C52.2804 14.2311 52.3046 14.0358 52.3046 13.7673C52.9581 13.7673 53.5874 13.7673 54.1925 13.7673C54.8218 13.7673 55.1123 13.4744 55.1365 12.8397C55.1607 12.4491 55.1365 12.0586 55.1365 11.5948C54.9186 11.5948 54.725 11.5948 54.5314 11.5948C53.1759 11.5948 51.8205 11.5948 50.4893 11.5948C49.3033 11.5948 48.916 11.2042 48.916 10.0325C48.916 7.20098 48.916 4.39382 48.916 1.56225C48.916 0.366151 49.2791 0 50.4409 0C54.604 0 58.7429 0.0244101 62.906 0.0244101C64.1162 0.0244101 64.5277 0.439382 64.5277 1.6843C64.5277 4.44264 64.5277 7.22539 64.5277 9.98373C64.5277 11.2042 64.1404 11.5948 62.9544 11.5948C61.3327 11.5948 59.7353 11.5948 58.1136 11.5948ZM50.4409 9.88609C54.5798 9.88609 58.6461 9.88609 62.7608 9.88609C62.7608 7.15216 62.7608 4.46705 62.7608 1.75753C58.6461 1.75753 54.5314 1.75753 50.4409 1.75753C50.4409 4.49146 50.4409 7.15216 50.4409 9.88609Z" fill="#3498db"/>
<path d="M10.3594 28.389C10.1415 28.1449 9.89948 27.8764 9.68164 27.6323C12.9734 23.8243 20.1136 23.2385 24.2041 27.5835C23.9621 27.8276 23.7201 28.0961 23.478 28.3402C19.92 24.8007 13.9416 24.7763 10.3594 28.389Z" fill="#3498db"/>
<path d="M22.2677 29.6583C22.0015 29.9024 21.7594 30.1221 21.469 30.3662C20.2346 29.2189 18.7339 28.5599 16.9912 28.5599C15.2485 28.5599 13.7237 29.1945 12.465 30.4883C12.2472 30.1953 12.0294 29.9268 11.8115 29.6583C13.7963 27.022 19.2422 26.363 22.2677 29.6583Z" fill="#3498db"/>
<path d="M20.2582 31.6598C19.992 31.9283 19.7741 32.1724 19.5079 32.4409C17.862 31.0496 16.1919 31.0252 14.5218 32.4409C14.2556 32.1724 14.0135 31.9039 13.7715 31.6598C15.1995 29.8291 18.5639 29.8047 20.2582 31.6598Z" fill="#3498db"/>
<path d="M18.6369 34.4915C18.6369 35.3214 17.9834 36.0049 17.1604 36.0049C16.3375 36.0049 15.6598 35.3458 15.6598 34.5159C15.6356 33.6615 16.3375 32.9536 17.1847 32.978C17.9834 32.978 18.6369 33.6615 18.6369 34.4915Z" fill="#3498db"/>
</g>
<defs>
<clipPath id="clip0">
<rect width="64.5283" height="60" fill="white"/>
</clipPath>
</defs>
</svg>
