<svg width="60" height="60" viewBox="0 0 60 60" fill="none" xmlns="http://www.w3.org/2000/svg">
<g clip-path="url(#clip0)">
<path d="M29.026 25.0036C28.0311 25.0036 27.1443 25.0036 26.2358 25.0036C25.3058 25.0036 24.9813 24.6359 25.003 23.7058C25.0462 21.9106 26.4521 19.9856 28.1609 19.3583C28.4204 19.2718 28.7016 19.1853 28.9611 19.0988C28.9611 18.0606 28.9611 17.0656 28.9611 16.0058C27.7499 16.0058 26.5603 16.0058 25.3707 16.0058C24.2892 16.0058 23.9864 15.7246 23.9864 14.6431C23.9864 12.4585 23.9864 10.2956 23.9864 8.06778C22.6454 8.06778 21.3476 8.06778 19.9849 8.06778C19.9849 8.26244 19.9849 8.45711 19.9849 8.65177C19.9849 10.0577 19.9849 11.4636 19.9849 12.8695C19.9849 13.6049 19.6389 13.9726 18.9035 14.0159C18.7521 14.0375 18.6223 14.0159 18.4709 14.0159C13.4745 14.0159 8.47808 14.0159 3.50332 14.0159C2.24881 14.0159 1.98926 13.7347 1.98926 12.4802C1.98926 8.75992 1.98926 5.06129 1.98926 1.34103C1.98926 0.346078 2.33533 7.71135e-06 3.30865 7.71135e-06C8.43482 7.71135e-06 13.5394 7.71135e-06 18.6655 7.71135e-06C19.6389 7.71135e-06 19.9849 0.367708 20.0066 1.34103C20.0066 2.83346 20.0066 4.32589 20.0066 5.81832C20.0066 5.86158 20.0282 5.88321 20.0498 5.96973C21.326 5.96973 22.6021 5.96973 23.9647 5.96973C23.9647 5.77506 23.9864 5.60203 23.9864 5.40736C23.9864 4.00145 23.9864 2.59554 23.9864 1.18963C23.9864 0.389337 24.3324 7.71135e-06 25.1327 7.71135e-06C28.3771 7.71135e-06 31.5999 7.71135e-06 34.8227 7.71135e-06C35.623 7.71135e-06 35.9907 0.410967 35.9907 1.21125C35.9907 2.76857 35.9907 4.34752 35.9907 5.9481C37.3101 5.9481 38.6079 5.9481 39.9489 5.9481C39.9489 5.77506 39.9705 5.5804 39.9705 5.38573C39.9705 4.02308 39.9705 2.6388 39.9705 1.27614C39.9705 0.346078 40.3166 -0.0216217 41.225 -0.0216217C46.3728 -0.0216217 51.5423 -0.0216217 56.6901 -0.0216217C57.5985 -0.0216217 57.9662 0.346078 57.9662 1.25451C57.9662 5.08292 57.9662 8.8897 57.9662 12.7181C57.9662 13.6049 57.6201 13.9726 56.7333 13.9726C51.5639 13.9726 46.3945 13.9726 41.225 13.9726C40.3382 13.9726 39.9921 13.6049 39.9921 12.7181C39.9921 11.3555 39.9921 9.97117 39.9921 8.60851C39.9921 8.41385 39.9921 8.21918 39.9921 8.00289C38.6511 8.00289 37.3534 8.00289 35.9907 8.00289C35.9907 8.21918 35.9907 8.41385 35.9907 8.60851C35.9907 10.2307 35.9691 11.8529 35.9907 13.4751C36.034 16.0707 35.9691 16.0058 33.4601 15.9841C32.6598 15.9625 31.8379 15.9841 31.0159 15.9841C30.9943 16.1356 30.9727 16.2437 30.9727 16.3518C30.9727 17.2603 30.9727 18.1471 30.9727 18.9257C31.7513 19.3583 32.4867 19.6611 33.114 20.137C34.282 21.0454 34.9309 22.2999 34.9741 23.814C34.9957 24.5927 34.628 24.982 33.8278 24.982C32.9193 24.982 31.9893 24.982 30.9943 24.982C30.9943 26.323 30.9943 27.6208 30.9943 28.9402C30.3022 28.9402 29.6749 28.9402 29.0044 28.9402C29.026 27.664 29.026 26.3663 29.026 25.0036ZM33.9792 2.0548C31.2971 2.0548 28.68 2.0548 26.0412 2.0548C26.0412 6.03461 26.0412 9.9928 26.0412 13.9726C28.7016 13.9726 31.3404 13.9726 33.9792 13.9726C33.9792 9.9928 33.9792 6.05624 33.9792 2.0548ZM32.7679 22.9921C32.4867 21.8241 31.1457 20.9373 29.9128 21.0022C28.6151 21.0887 27.4038 21.9755 27.274 22.9921C29.0909 22.9921 30.9078 22.9921 32.7679 22.9921ZM46.0268 10.0361C46.0268 10.7066 46.0268 11.3122 46.0268 11.9611C46.6973 11.9611 47.3245 11.9611 47.9518 11.9611C47.9518 11.2906 47.9518 10.6849 47.9518 10.0361C47.3029 10.0361 46.6973 10.0361 46.0268 10.0361ZM42.0253 11.9611C42.6958 11.9611 43.3231 11.9611 43.9503 11.9611C43.9503 11.2906 43.9503 10.6849 43.9503 10.0577C43.2798 10.0577 42.6526 10.0577 42.0253 10.0577C42.0253 10.6849 42.0253 11.2906 42.0253 11.9611ZM46.0268 2.0548C46.0268 2.72531 46.0268 3.33094 46.0268 3.97982C46.6973 3.97982 47.3245 3.97982 47.9518 3.97982C47.9518 3.30931 47.9518 2.70368 47.9518 2.0548C47.3029 2.0548 46.6973 2.0548 46.0268 2.0548ZM42.0253 3.95819C42.6958 3.95819 43.3447 3.95819 43.9503 3.95819C43.9503 3.28768 43.9503 2.68206 43.9503 2.0548C43.2798 2.0548 42.6526 2.0548 42.0253 2.0548C42.0253 2.70368 42.0253 3.30931 42.0253 3.95819ZM46.0051 7.98126C46.6756 7.98126 47.3029 7.98126 47.9301 7.98126C47.9301 7.33238 47.9301 6.6835 47.9301 6.05624C47.2596 6.05624 46.6324 6.05624 46.0051 6.05624C46.0051 6.70513 46.0051 7.31075 46.0051 7.98126ZM43.972 6.05624C43.3014 6.05624 42.6742 6.05624 42.0469 6.05624C42.0469 6.72676 42.0469 7.35401 42.0469 7.98126C42.7174 7.98126 43.3447 7.98126 43.972 7.98126C43.972 7.33238 43.972 6.72676 43.972 6.05624ZM5.96907 6.05624C5.27693 6.05624 4.67131 6.05624 4.04405 6.05624C4.04405 6.72676 4.04405 7.33238 4.04405 7.95963C4.69294 7.95963 5.32019 7.95963 5.96907 7.95963C5.96907 7.31075 5.96907 6.70513 5.96907 6.05624ZM54.0296 2.0548C54.0296 2.72531 54.0296 3.35257 54.0296 3.97982C54.7001 3.97982 55.3274 3.97982 55.933 3.97982C55.933 3.33094 55.933 2.70368 55.933 2.0548C55.3058 2.0548 54.6785 2.0548 54.0296 2.0548ZM50.0282 2.0548C50.0282 2.72531 50.0282 3.35257 50.0282 3.95819C50.6987 3.95819 51.326 3.95819 51.9316 3.95819C51.9316 3.30931 51.9316 2.68206 51.9316 2.0548C51.2827 2.0548 50.6771 2.0548 50.0282 2.0548ZM16.0484 3.95819C16.6973 3.95819 17.3245 3.95819 17.9734 3.95819C17.9734 3.30931 17.9734 2.68206 17.9734 2.0548C17.3245 2.0548 16.6973 2.0548 16.0484 2.0548C16.0484 2.70368 16.0484 3.30931 16.0484 3.95819ZM12.0469 2.0548C12.0469 2.72531 12.0469 3.35257 12.0469 3.97982C12.6958 3.97982 13.3231 3.97982 13.9503 3.97982C13.9503 3.33094 13.9503 2.70368 13.9503 2.0548C13.3231 2.0548 12.6958 2.0548 12.0469 2.0548ZM9.97051 3.97982C9.97051 3.30931 9.97051 2.68206 9.97051 2.0548C9.32163 2.0548 8.69438 2.0548 8.06712 2.0548C8.06712 2.72531 8.06712 3.35257 8.06712 3.97982C8.71601 3.97982 9.32163 3.97982 9.97051 3.97982ZM4.04405 3.95819C4.71456 3.95819 5.34182 3.95819 5.96907 3.95819C5.96907 3.30931 5.96907 2.68206 5.96907 2.03317C5.32019 2.03317 4.69294 2.03317 4.04405 2.03317C4.04405 2.70368 4.04405 3.30931 4.04405 3.95819ZM54.0296 10.0577C54.0296 10.7066 54.0296 11.3555 54.0296 11.9827C54.7001 11.9827 55.3058 11.9827 55.9547 11.9827C55.9547 11.3338 55.9547 10.7066 55.9547 10.0577C55.2841 10.0577 54.6785 10.0577 54.0296 10.0577ZM50.0066 11.9611C50.6771 11.9611 51.326 11.9611 51.9316 11.9611C51.9316 11.2906 51.9316 10.6849 51.9316 10.0577C51.2611 10.0577 50.6338 10.0577 50.0066 10.0577C50.0066 10.7066 50.0066 11.3122 50.0066 11.9611ZM16.0484 10.0577C16.0484 10.7282 16.0484 11.3555 16.0484 11.9827C16.7189 11.9827 17.3245 11.9827 17.9518 11.9827C17.9518 11.3338 17.9518 10.7066 17.9518 10.0577C17.3245 10.0577 16.6973 10.0577 16.0484 10.0577ZM13.972 11.9827C13.972 11.3122 13.972 10.6849 13.972 10.0361C13.3231 10.0361 12.6958 10.0361 12.0686 10.0361C12.0686 10.6849 12.0686 11.3338 12.0686 11.9827C12.6958 11.9827 13.3014 11.9827 13.972 11.9827ZM9.97051 10.0577C9.27837 10.0577 8.67275 10.0577 8.04549 10.0577C8.04549 10.7282 8.04549 11.3338 8.04549 11.9611C8.69438 11.9611 9.32163 11.9611 9.97051 11.9611C9.97051 11.3338 9.97051 10.7066 9.97051 10.0577ZM4.04405 11.9827C4.71456 11.9827 5.32019 11.9827 5.96907 11.9827C5.96907 11.3122 5.96907 10.6849 5.96907 10.0793C5.29856 10.0793 4.69294 10.0793 4.04405 10.0793C4.04405 10.7066 4.04405 11.3122 4.04405 11.9827ZM8.04549 7.98126C8.71601 7.98126 9.32163 7.98126 9.97051 7.98126C9.97051 7.31075 9.97051 6.6835 9.97051 6.07787C9.3 6.07787 8.69438 6.07787 8.04549 6.07787C8.04549 6.70513 8.04549 7.31075 8.04549 7.98126ZM54.0296 6.03461C54.0296 6.70513 54.0296 7.33238 54.0296 7.95963C54.7001 7.95963 55.3274 7.95963 55.933 7.95963C55.933 7.31075 55.933 6.6835 55.933 6.03461C55.2841 6.03461 54.6785 6.03461 54.0296 6.03461ZM50.0066 7.95963C50.6771 7.95963 51.326 7.95963 51.9316 7.95963C51.9316 7.28912 51.9316 6.6835 51.9316 6.05624C51.2611 6.05624 50.6338 6.05624 50.0066 6.05624C50.0066 6.70513 50.0066 7.31075 50.0066 7.95963ZM17.9734 6.05624C17.3029 6.05624 16.6756 6.05624 16.0484 6.05624C16.0484 6.70513 16.0484 7.33238 16.0484 7.95963C16.6973 7.95963 17.3245 7.95963 17.9734 7.95963C17.9734 7.33238 17.9734 6.70513 17.9734 6.05624ZM13.972 6.05624C13.3014 6.05624 12.6742 6.05624 12.0469 6.05624C12.0469 6.70513 12.0469 7.33238 12.0469 7.95963C12.6958 7.95963 13.3231 7.95963 13.972 7.95963C13.972 7.33238 13.972 6.70513 13.972 6.05624Z" fill="#3498db"/>
<path d="M48.1689 53.987C48.3851 55.3497 48.6014 56.6475 48.8394 57.9885C49.8776 57.9885 50.9158 57.9885 51.954 57.9885C51.954 58.6806 51.954 59.3295 51.954 59.9784C47.3037 59.9784 42.675 59.9784 38.0247 59.9784C38.0247 59.3295 38.0247 58.7022 38.0247 57.9885C38.8033 57.9885 39.582 57.9452 40.3606 58.0101C40.9446 58.0534 41.2042 57.902 41.2691 57.2531C41.3772 56.1932 41.6151 55.1334 41.7882 53.987C41.5286 53.987 41.334 53.987 41.1393 53.987C39.171 53.987 37.2027 53.987 35.2561 53.987C32.0766 53.987 29.9785 51.8674 29.9785 48.6878C29.9785 44.8594 29.9785 41.0526 29.9785 37.2242C29.9785 34.1745 32.1198 32.0115 35.1696 32.0115C41.7017 32.0115 48.2554 31.9899 54.7875 32.0115C57.8372 32.0115 59.9569 34.1529 59.9569 37.181C59.9569 41.0526 59.9569 44.9243 59.9569 48.796C59.9569 51.8457 57.8372 53.9438 54.7875 53.9654C52.7976 53.987 50.786 53.9654 48.7961 53.9654C48.6231 53.987 48.4284 53.987 48.1689 53.987ZM32.0117 46.9575C40.7283 46.9575 49.3368 46.9575 57.967 46.9575C57.967 46.8493 57.9886 46.7628 57.9886 46.6979C57.9886 43.4102 57.9886 40.1442 57.9886 36.8565C57.9886 36.6835 57.967 36.4888 57.9237 36.3158C57.556 34.8234 56.4097 34.0015 54.7009 34.0015C48.2337 34.0015 41.7665 34.0015 35.2994 34.0015C35.1479 34.0015 34.9749 34.0231 34.8235 34.0231C33.1364 34.1961 32.0333 35.3857 32.0333 37.0945C32.0333 40.1658 32.0333 43.2156 32.0333 46.287C32.0117 46.5033 32.0117 46.7196 32.0117 46.9575ZM31.9468 49.0123C32.0549 49.4232 32.0982 49.7909 32.228 50.1154C32.812 51.4348 33.8718 51.9971 35.2777 51.9971C41.7449 51.9971 48.2121 51.9971 54.6793 51.9971C55.0038 51.9971 55.3282 51.9755 55.6526 51.9106C56.972 51.6511 58.0535 50.2668 57.9454 49.0339C49.3152 49.0123 40.7067 49.0123 31.9468 49.0123ZM43.843 53.987C43.6267 55.3497 43.4104 56.6258 43.1941 57.9452C44.4053 57.9452 45.595 57.9452 46.8062 57.9452C46.5899 56.6907 46.4169 55.4795 46.2006 54.2898C46.1789 54.1817 45.9843 54.0087 45.8545 54.0087C45.184 53.9654 44.5351 53.987 43.843 53.987Z" fill="#3498db"/>
<path d="M11.1821 51.6727C11.7661 53.987 12.3501 56.2581 12.9124 58.5508C13.1287 59.4376 12.761 60 11.8526 60C8.6298 60.0216 5.40702 60.0216 2.18424 60C1.2758 60 0.886473 59.4593 1.08114 58.5724C1.90306 54.8738 2.72497 51.1536 3.56852 47.4549C3.65504 47.0656 3.61178 46.7628 3.35223 46.4383C-1.42788 40.3821 -1.06018 32.1846 4.2174 26.5393C4.88791 25.8255 5.38539 25.8255 6.07753 26.5177C8.91099 29.3511 11.7661 32.2062 14.5995 35.0397C14.7293 35.1694 14.8374 35.3641 14.9672 35.5371C15.7459 34.7152 16.4597 33.9582 17.1518 33.2444C17.6925 33.8068 18.1467 34.261 18.6659 34.7801C17.9521 35.4506 17.1951 36.1428 16.3299 36.9647C16.5894 37.1377 16.7841 37.2242 16.9139 37.3756C19.7906 40.2523 22.6889 43.129 25.5656 46.0058C26.3227 46.7628 26.3443 47.2386 25.5656 47.9524C22.2563 51.0238 18.3414 52.4081 13.8425 52.0404C12.9773 51.9755 12.1121 51.8024 11.1821 51.6727ZM23.5974 47.0223C17.433 40.858 11.2902 34.7152 5.12584 28.5508C1.10277 33.0497 0.518772 41.0094 6.01264 46.4167C11.0523 51.3699 18.9254 51.1752 23.5974 47.0223ZM3.26571 57.9452C5.77472 57.9452 8.21885 57.9452 10.663 57.9452C10.663 57.8587 10.663 57.7938 10.6413 57.7505C10.079 55.5227 9.51661 53.2949 8.93262 51.0454C8.88936 50.9156 8.82447 50.7642 8.71632 50.6993C7.59159 50.0288 6.46686 49.3583 5.3205 48.6662C4.67162 51.7159 3.97948 54.8089 3.26571 57.9452Z" fill="#3498db"/>
<path d="M10.0352 24.0303C10.7057 24.0303 11.3329 24.0303 11.9818 24.0303C11.9818 24.6792 11.9818 25.2848 11.9818 25.9553C11.3546 25.9553 10.7057 25.9553 10.0352 25.9553C10.0352 25.3064 10.0352 24.7008 10.0352 24.0303Z" fill="#3498db"/>
<path d="M12.0034 20.0288C12.0034 20.6777 12.0034 21.2834 12.0034 21.9539C11.3546 21.9539 10.7057 21.9539 10.0352 21.9539C10.0352 21.305 10.0352 20.6994 10.0352 20.0288C10.684 20.0288 11.3113 20.0288 12.0034 20.0288Z" fill="#3498db"/>
<path d="M11.9818 17.9741C11.3329 17.9741 10.684 17.9741 10.0352 17.9741C10.0352 17.3252 10.0352 16.6979 10.0352 16.049C10.684 16.049 11.3113 16.049 11.9818 16.049C11.9818 16.6763 11.9818 17.3035 11.9818 17.9741Z" fill="#3498db"/>
<path d="M11.9818 28.0317C11.9818 28.6806 11.9818 29.3079 11.9818 29.9784C11.3329 29.9784 10.7057 29.9784 10.0352 29.9784C10.0352 29.3295 10.0352 28.7022 10.0352 28.0317C10.684 28.0317 11.3113 28.0317 11.9818 28.0317Z" fill="#3498db"/>
<path d="M49.9641 24.0303C49.9641 24.7008 49.9641 25.3281 49.9641 25.9769C49.3152 25.9769 48.6879 25.9769 48.0391 25.9769C48.0391 25.3281 48.0391 24.7008 48.0391 24.0303C48.6879 24.0303 49.2936 24.0303 49.9641 24.0303Z" fill="#3498db"/>
<path d="M48.0166 21.9755C48.0166 21.3266 48.0166 20.6994 48.0166 20.0505C48.6655 20.0505 49.2927 20.0505 49.9632 20.0505C49.9632 20.6994 49.9632 21.305 49.9632 21.9755C49.336 21.9755 48.6871 21.9755 48.0166 21.9755Z" fill="#3498db"/>
<path d="M49.9632 16.0707C49.9632 16.6763 49.9632 17.3035 49.9632 17.9741C49.336 17.9741 48.6871 17.9741 48.0166 17.9741C48.0166 17.3468 48.0166 16.7412 48.0166 16.0707C48.6439 16.0707 49.2711 16.0707 49.9632 16.0707Z" fill="#3498db"/>
<path d="M49.9641 29.9784C49.3152 29.9784 48.6879 29.9784 48.0391 29.9784C48.0391 29.3295 48.0391 28.7022 48.0391 28.0534C48.6663 28.0534 49.3152 28.0534 49.9641 28.0534C49.9641 28.659 49.9641 29.2862 49.9641 29.9784Z" fill="#3498db"/>
<path d="M46.4375 43.2805C48.3625 41.3555 50.3524 39.3656 52.3423 37.3756C52.7317 37.7866 53.1643 38.2408 53.532 38.6518C51.6069 40.5768 49.617 42.5667 47.6487 44.5566C47.281 44.1673 46.8268 43.7131 46.4375 43.2805Z" fill="#3498db"/>
<path d="M37.6341 44.5999C37.2448 44.2105 36.8122 43.7563 36.4229 43.367C38.3911 41.3987 40.3594 39.4304 42.3277 37.4622C42.6738 37.8299 43.128 38.2841 43.5173 38.7167C41.5923 40.6417 39.624 42.61 37.6341 44.5999Z" fill="#3498db"/>
</g>
<defs>
<clipPath id="clip0">
<rect width="59.9784" height="60" fill="white"/>
</clipPath>
</defs>
</svg>
