<svg width="43" height="61" viewBox="0 0 43 61" fill="none" xmlns="http://www.w3.org/2000/svg">
<path d="M0 30.0105C0 21.6812 0 13.3519 0 5.02267C0 2.46948 1.54866 0.544123 3.95535 0.0837112C4.35298 0.0209278 4.75061 0 5.14824 0C15.8423 0 26.5155 0 37.2096 0C40.3488 0 42.3788 2.03 42.3788 5.16917C42.3788 21.744 42.3788 38.2979 42.3788 54.8727C42.3788 57.9491 40.3488 60.0209 37.2933 60.0209C26.5574 60.0209 15.8214 60.0209 5.06453 60.0209C2.03 60 0 57.97 0 54.9145C0 46.6062 0 38.3188 0 30.0105ZM40.4744 48.4478C40.4744 36.1214 40.4744 23.8368 40.4744 11.5731C27.5828 11.5731 14.7541 11.5731 1.90443 11.5731C1.90443 23.8786 1.90443 36.1632 1.90443 48.4478C14.775 48.4478 27.6038 48.4478 40.4744 48.4478ZM40.5162 9.62679C40.5162 7.88978 40.5371 6.21556 40.4953 4.54133C40.4953 4.18556 40.3488 3.82979 40.1814 3.49494C39.5954 2.34391 38.6118 1.84165 37.3143 1.84165C26.5783 1.8835 15.8423 1.8835 5.08545 1.8835C4.91803 1.8835 4.72968 1.8835 4.56226 1.90443C3.20195 1.98814 1.96721 3.11824 1.90443 4.47855C1.84165 6.1737 1.8835 7.84792 1.90443 9.54308C1.90443 9.564 1.94629 9.58493 1.96721 9.62679C14.796 9.62679 27.6247 9.62679 40.5162 9.62679ZM40.5162 50.3941C27.6247 50.3941 14.775 50.3941 1.92536 50.3941C1.90443 50.4778 1.8835 50.5406 1.8835 50.6034C1.8835 52.1939 1.86257 53.7844 1.8835 55.354C1.8835 55.7307 2.00907 56.1074 2.17649 56.4423C2.80432 57.6979 3.87164 58.1165 5.23195 58.1165C15.8633 58.0956 26.4946 58.1165 37.1468 58.1165C37.3143 58.1165 37.5026 58.1165 37.67 58.0956C39.3233 58.0119 40.5162 56.7353 40.5162 55.082C40.5162 54.5169 40.5162 53.9309 40.5162 53.3659C40.5162 52.3823 40.5162 51.3987 40.5162 50.3941Z" fill="#3498db"/>
<path d="M8.62236 20.3418C8.62236 19.714 8.62236 19.149 8.62236 18.6048C8.62236 17.7677 8.91535 17.4747 9.75246 17.4538C10.3175 17.4329 10.9035 17.4538 11.5523 17.4538C11.5523 16.7423 11.5523 16.0726 11.5523 15.3819C11.5523 14.6495 11.8662 14.2728 12.494 14.2728C13.1009 14.2728 13.4358 14.6704 13.4358 15.4029C13.4358 16.0516 13.4358 16.7213 13.4358 17.4119C14.7542 17.4119 16.0099 17.4119 17.3493 17.4119C17.3493 16.7004 17.3493 15.9889 17.3493 15.2773C17.3702 14.6495 17.6841 14.2937 18.2491 14.2728C18.8351 14.2518 19.2118 14.5867 19.2118 15.1936C19.2328 15.9261 19.2118 16.6585 19.2118 17.4119C20.5512 17.4119 21.8278 17.4119 23.1672 17.4119C23.1672 16.7213 23.1672 16.0307 23.1672 15.361C23.1672 14.6495 23.4811 14.2937 24.088 14.2728C24.6949 14.2518 25.0507 14.6495 25.0507 15.361C25.0507 16.0307 25.0507 16.7213 25.0507 17.4119C26.3691 17.4119 27.6457 17.4119 28.9851 17.4119C28.9851 16.6795 28.9851 15.9679 28.9851 15.2564C28.9851 14.6704 29.2781 14.3356 29.7804 14.2728C30.4082 14.1891 30.8477 14.5658 30.8477 15.2355C30.8686 15.947 30.8477 16.6585 30.8477 17.4329C31.4546 17.4329 32.0196 17.4329 32.5638 17.4329C33.4637 17.4538 33.7357 17.7259 33.7357 18.6258C33.7357 19.1699 33.7357 19.6931 33.7357 20.3209C34.3636 20.3209 34.9705 20.3209 35.5774 20.3209C36.5191 20.3209 36.9377 20.593 36.9377 21.2417C36.9586 21.9114 36.5191 22.2044 35.5564 22.2044C34.9705 22.2044 34.3845 22.2044 33.7566 22.2044C33.7566 23.5229 33.7566 24.8204 33.7566 26.1598C34.4682 26.1598 35.1588 26.1598 35.8494 26.1598C36.5191 26.1598 36.8958 26.4946 36.9167 27.0387C36.9377 27.6038 36.561 28.0014 35.8704 28.0223C35.1797 28.0433 34.4891 28.0223 33.7357 28.0223C33.7357 29.3199 33.7357 30.5965 33.7357 31.9358C34.0915 31.9358 34.4473 31.9358 34.803 31.9358C36.4773 31.9358 36.8749 32.1242 36.8958 32.8567C36.9167 33.6101 36.4982 33.7984 34.7821 33.7984C34.4473 33.7984 34.0915 33.7984 33.7148 33.7984C33.7148 35.1378 33.7148 36.4144 33.7148 37.7538C34.4891 37.7538 35.2425 37.7538 35.975 37.7538C36.3726 37.7538 36.7284 37.9421 36.7912 38.3397C36.833 38.6537 36.7912 39.0722 36.6028 39.3024C36.4354 39.5117 36.0168 39.5954 35.7239 39.6163C35.0751 39.6582 34.4054 39.6373 33.6729 39.6373C33.6729 40.2651 33.6729 40.8511 33.6729 41.437C33.6729 42.2114 33.3799 42.5044 32.6056 42.5462C32.0196 42.5672 31.4337 42.5462 30.764 42.5462C30.764 43.3205 30.7849 44.0321 30.764 44.7227C30.743 45.3715 30.3873 45.7272 29.8013 45.7063C29.2572 45.6854 28.9223 45.3505 28.9014 44.7646C28.8805 44.053 28.9014 43.3415 28.9014 42.5881C27.5829 42.5881 26.3064 42.5881 24.967 42.5881C24.967 43.2578 24.967 43.9275 24.967 44.6181C24.967 45.3505 24.6321 45.7272 24.0043 45.7272C23.3974 45.7272 23.0835 45.3505 23.0835 44.639C23.0835 43.9693 23.0835 43.2787 23.0835 42.5881C21.7441 42.5881 20.4675 42.5881 19.1281 42.5881C19.1281 43.2996 19.1281 43.9693 19.1281 44.639C19.1281 45.3505 18.8142 45.7063 18.2073 45.7272C17.6004 45.7272 17.2655 45.3505 17.2446 44.6599C17.2446 43.9902 17.2446 43.2996 17.2446 42.5881C15.9471 42.5881 14.6705 42.5881 13.3311 42.5881C13.3311 43.2787 13.3311 43.9902 13.3311 44.7018C13.3311 45.3296 12.9963 45.6854 12.4521 45.7272C11.8871 45.7691 11.4685 45.4133 11.4685 44.8273C11.4476 44.0949 11.4685 43.3624 11.4685 42.5462C10.9244 42.5462 10.4012 42.5462 9.87803 42.5462C8.81071 42.5462 8.53865 42.2951 8.53865 41.2278C8.53865 40.7255 8.53865 40.2232 8.53865 39.6373C7.84803 39.6373 7.15741 39.6791 6.48772 39.6163C6.15288 39.5954 5.73432 39.4489 5.54597 39.2187C5.37855 39.0094 5.35762 38.5281 5.48319 38.256C5.58783 38.0258 5.98546 37.7956 6.25752 37.7747C6.98999 37.7119 7.72246 37.7538 8.49679 37.7538C8.49679 36.4353 8.49679 35.1587 8.49679 33.7984C7.76432 33.7984 7.03185 33.8193 6.29937 33.7984C5.58783 33.7775 5.16927 33.1287 5.44133 32.48C5.62968 32.0195 6.04824 31.9358 6.48772 31.9358C7.15741 31.9149 7.80618 31.9358 8.51772 31.9358C8.51772 30.6383 8.51772 29.3617 8.51772 28.0223C7.84803 28.0223 7.19927 28.0642 6.55051 28.0014C6.19473 27.9596 5.75525 27.834 5.54597 27.5829C5.06463 27.0178 5.50412 26.2016 6.25752 26.1388C6.63422 26.1179 7.03185 26.1388 7.40855 26.1388C7.76432 26.1388 8.14102 26.1388 8.53865 26.1388C8.53865 24.8204 8.53865 23.5229 8.53865 22.1835C7.80617 22.1835 7.0737 22.2044 6.34123 22.1835C5.62968 22.1626 5.21113 21.5975 5.42041 20.9278C5.58783 20.4255 5.98546 20.3 6.4668 20.3C7.19927 20.3209 7.86896 20.3418 8.62236 20.3418ZM31.8313 30.3662C31.8313 26.6411 31.8313 22.9997 31.8313 19.3373C28.1271 19.3373 24.4438 19.3373 20.7396 19.3373C20.7396 19.5675 20.7396 19.7559 20.7396 19.9442C20.7396 22.0161 20.7396 24.0879 20.7396 26.1598C20.7396 26.9341 20.4466 27.248 19.6722 27.2689C19.4002 27.2899 19.1072 27.2689 18.8351 27.2689C18.3119 27.2689 17.8097 27.2689 17.2446 27.2689C17.2446 28.1479 17.2446 28.9222 17.2446 29.7175C17.2446 30.6592 16.9726 30.9313 16.0308 30.9313C14.4821 30.9313 12.9335 30.9313 11.3848 30.9313C11.1128 30.9313 10.8407 30.9313 10.5477 30.9313C10.5477 34.2379 10.5477 37.4817 10.5477 40.7464C12.787 40.7464 14.9844 40.7464 17.2655 40.7464C17.2655 40.5162 17.2655 40.3279 17.2655 40.1395C17.2655 38.5281 17.2865 36.9376 17.2655 35.3261C17.2655 34.8029 17.433 34.4053 17.8097 34.0286C18.877 33.0031 19.9234 31.9568 20.9488 30.8894C21.3255 30.5127 21.7232 30.3453 22.2464 30.3453C24.381 30.3662 26.5366 30.3453 28.6712 30.3453C29.6967 30.3662 30.743 30.3662 31.8313 30.3662ZM31.8313 40.6836C31.8313 37.8165 31.8313 35.0122 31.8313 32.166C28.6712 32.166 25.5529 32.166 22.4347 32.166C22.2882 32.166 22.1208 32.2916 21.9952 32.3962C21.1163 33.2543 20.2373 34.1332 19.3792 35.0122C19.2537 35.1378 19.149 35.3261 19.149 35.4936C19.1281 37.1469 19.149 38.8001 19.149 40.4534C19.149 40.5162 19.1909 40.579 19.2118 40.6418C23.3974 40.6836 27.6039 40.6836 31.8313 40.6836ZM10.5268 29.0269C12.1382 29.0269 13.7287 29.0269 15.3611 29.0269C15.3611 28.8385 15.382 28.6502 15.382 28.4827C15.382 27.7921 15.382 27.0806 15.382 26.39C15.403 25.7412 15.675 25.4273 16.3447 25.4064C16.7214 25.3854 17.119 25.4064 17.4957 25.4064C17.9352 25.4064 18.3956 25.4064 18.8142 25.4064C18.8142 23.3136 18.8142 21.3254 18.8142 19.3373C16.0308 19.3373 13.2893 19.3373 10.5268 19.3373C10.5268 22.5811 10.5268 25.804 10.5268 29.0269Z" fill="#3498db"/>
<path d="M21.1787 5.98538C20.2997 5.98538 19.3998 5.98538 18.5209 5.98538C17.8302 5.98538 17.4326 5.62961 17.4326 5.04363C17.4326 4.45765 17.8302 4.10188 18.5209 4.10188C20.2997 4.08095 22.0786 4.08095 23.8575 4.10188C24.5899 4.10188 24.9666 4.45765 24.9457 5.06456C24.9248 5.65053 24.569 5.96445 23.8365 5.96445C22.9576 6.00631 22.0577 5.98538 21.1787 5.98538Z" fill="#3498db"/>
<path d="M21.2212 53.3659C22.749 53.3659 24.2976 53.345 25.8254 53.3659C26.516 53.3659 26.9973 53.9728 26.7671 54.5379C26.6625 54.8099 26.3485 55.0192 26.0974 55.1657C25.93 55.2703 25.6998 55.2285 25.4905 55.2285C22.6234 55.2285 19.7772 55.2285 16.9101 55.2285C15.9684 55.2285 15.5707 54.9355 15.5498 54.2867C15.5498 53.638 15.9474 53.345 16.8892 53.345C18.3332 53.3659 19.7772 53.3659 21.2212 53.3659Z" fill="#3498db"/>
</svg>
