<svg width="60" height="60" viewBox="0 0 60 60" fill="none" xmlns="http://www.w3.org/2000/svg">
<g clip-path="url(#clip0)">
<path d="M59.9581 9.69295C59.9581 26.4829 59.9581 43.21 59.9581 59.9791C59.7697 59.9791 59.5813 60 59.3929 60C41.619 60 23.8451 60 6.07118 60C2.97278 60 0.669923 58.1577 0.104676 55.2059C0.0209351 54.829 0 54.4313 0 54.0544C0 38.0181 0 21.9819 0 5.9665C0 3.07746 1.73761 0.837404 4.50105 0.167481C4.94068 0.0628057 5.40126 0.0209355 5.84089 0.0209355C8.2903 3.58559e-07 10.7606 0.0209355 13.21 0.0209355C13.2938 0.0209355 13.3775 0.0418706 13.5031 0.0418706C13.5031 3.24494 13.5031 6.42708 13.5031 9.69295C14.2149 9.69295 14.9058 9.71389 15.5757 9.67202C15.7013 9.67202 15.8688 9.4208 15.9107 9.25331C17.2087 5.02442 19.9093 2.11445 24.0963 0.669924C30.7537 -1.63294 38.1647 2.30286 40.0907 9.08583C40.2373 9.58828 40.4466 9.71389 40.9281 9.71389C47.0412 9.69295 53.1333 9.69295 59.2463 9.69295C59.4766 9.69295 59.7069 9.69295 59.9581 9.69295ZM57.9902 58.074C57.9902 42.5401 57.9902 27.111 57.9902 11.6818C52.1703 11.6818 46.3922 11.6818 40.6141 11.6818C41.0537 18.6113 36.0084 24.4313 29.351 25.1221C26.2107 25.4361 23.3008 24.7244 20.7467 22.8402C16.9993 20.0558 15.2826 16.2875 15.492 11.6609C14.8221 11.6609 14.2149 11.6609 13.5241 11.6609C13.5241 24.5569 13.5241 37.411 13.5241 50.328C13.2729 50.328 13.0635 50.328 12.8542 50.328C10.4257 50.328 7.99721 50.307 5.58967 50.3489C4.06141 50.3908 2.95185 51.1863 2.30286 52.568C1.65387 53.9707 1.82135 55.3315 2.76343 56.5666C3.62177 57.6971 4.83601 58.074 6.21772 58.074C23.2798 58.074 40.3419 58.074 57.404 58.074C57.5715 58.074 57.7599 58.074 57.9902 58.074ZM11.5771 2.00977C11.4724 1.98883 11.4096 1.9679 11.3468 1.9679C9.46267 1.9679 7.57851 1.92603 5.69435 1.98883C3.47523 2.05164 1.92603 3.72645 1.92603 5.92463C1.92603 20.3908 1.92603 34.8569 1.92603 49.3022C1.92603 49.4487 1.94696 49.5953 1.9679 49.8046C3.20307 48.8207 4.54292 48.3601 6.02931 48.381C7.68318 48.381 9.33705 48.381 10.9909 48.381C11.1793 48.381 11.3678 48.381 11.5562 48.381C11.5771 32.889 11.5771 17.4389 11.5771 2.00977ZM38.6881 12.582C38.6881 6.72017 33.9567 1.98883 28.074 1.9679C22.2121 1.94696 17.418 6.72017 17.418 12.582C17.418 18.4438 22.1912 23.238 28.074 23.238C33.9358 23.238 38.6881 18.4648 38.6881 12.582Z" fill="#FFD93D"/>
<path d="M29.0576 42.582C30.3347 42.582 31.5908 42.582 32.8887 42.582C32.8887 41.9331 32.8887 41.3259 32.8887 40.656C35.7987 40.656 38.6668 40.656 41.5977 40.656C41.5977 40.3839 41.5977 40.1954 41.5977 39.9861C41.5977 39.0649 41.5768 38.1438 41.6187 37.2227C41.6396 36.783 41.514 36.5527 41.1162 36.3434C40.0067 35.7572 39.4414 34.3545 39.7554 33.1612C40.0904 31.8633 41.2628 30.9631 42.6236 30.984C43.9425 30.984 45.052 31.8842 45.4079 33.1822C45.7429 34.3755 45.1776 35.7572 44.0471 36.3643C43.6494 36.5737 43.5447 36.8249 43.5447 37.2645C43.5656 38.3741 43.5447 39.4836 43.5447 40.656C46.4547 40.656 49.3018 40.656 52.2328 40.656C52.2328 41.3259 52.2328 41.9331 52.2328 42.603C53.5517 42.603 54.7868 42.603 56.0848 42.603C56.0848 45.1989 56.0848 47.753 56.0848 50.349C54.8287 50.349 53.5726 50.349 52.2746 50.349C52.2746 52.2959 52.2746 54.1801 52.2746 56.1061C45.8057 56.1061 39.3996 56.1061 32.9306 56.1061C32.9306 54.222 32.9306 52.3378 32.9306 50.3699C31.6117 50.3699 30.3556 50.3699 29.0576 50.3699C29.0576 47.753 29.0576 45.2199 29.0576 42.582ZM50.2649 42.6448C45.0939 42.6448 39.9648 42.6448 34.8566 42.6448C34.8566 46.5178 34.8566 50.328 34.8566 54.1801C35.5056 54.1801 36.0918 54.1801 36.7617 54.1801C36.7617 52.2541 36.7617 50.328 36.7617 48.4229C40.6557 48.4229 44.4868 48.4229 48.3807 48.4229C48.3807 50.3699 48.3807 52.275 48.3807 54.1592C49.0506 54.1592 49.6577 54.1592 50.2649 54.1592C50.2649 50.3071 50.2649 46.476 50.2649 42.6448ZM46.3919 54.1801C46.3919 52.8821 46.3919 51.626 46.3919 50.3699C43.8169 50.3699 41.2837 50.3699 38.7296 50.3699C38.7296 51.6469 38.7296 52.924 38.7296 54.1801C41.3046 54.1801 43.8169 54.1801 46.3919 54.1801ZM30.9836 44.5499C30.9836 45.8479 30.9836 47.0831 30.9836 48.3601C31.6326 48.3601 32.2398 48.3601 32.8678 48.3601C32.8678 47.0831 32.8678 45.827 32.8678 44.5499C32.2398 44.5499 31.6326 44.5499 30.9836 44.5499ZM54.1379 48.3601C54.1379 47.0622 54.1379 45.8061 54.1379 44.5499C53.5098 44.5499 52.9027 44.5499 52.2956 44.5499C52.2956 45.8479 52.2956 47.104 52.2956 48.3601C52.9236 48.3601 53.5098 48.3601 54.1379 48.3601ZM43.5238 33.873C43.5238 33.3497 43.0632 32.91 42.5398 32.931C42.0164 32.931 41.5768 33.3706 41.5768 33.894C41.5768 34.4174 42.0374 34.857 42.5608 34.857C43.0841 34.8361 43.5238 34.3964 43.5238 33.873Z" fill="#FFD93D"/>
<path d="M43.5664 17.4598C47.7534 17.4598 51.9195 17.4598 56.0856 17.4598C56.0856 18.1088 56.0856 18.695 56.0856 19.344C51.8986 19.344 47.7534 19.344 43.5664 19.344C43.5664 18.7159 43.5664 18.1298 43.5664 17.4598Z" fill="#FFD93D"/>
<path d="M43.5664 15.471C43.5664 14.843 43.5664 14.2358 43.5664 13.6078C47.7325 13.6078 51.8776 13.6078 56.0856 13.6078C56.0856 14.2358 56.0856 14.843 56.0856 15.471C51.8986 15.471 47.7534 15.471 43.5664 15.471Z" fill="#FFD93D"/>
<path d="M43.5664 27.09C43.5664 26.4619 43.5664 25.8548 43.5664 25.2058C47.7325 25.2058 51.8776 25.2058 56.0856 25.2058C56.0856 25.8129 56.0856 26.441 56.0856 27.09C51.8986 27.09 47.7534 27.09 43.5664 27.09Z" fill="#FFD93D"/>
<path d="M17.4395 50.307C17.4395 49.658 17.4395 49.0509 17.4395 48.4229C20.6425 48.4229 23.8247 48.4229 27.0487 48.4229C27.0487 49.0509 27.0487 49.658 27.0487 50.307C23.8456 50.307 20.6635 50.307 17.4395 50.307Z" fill="#FFD93D"/>
<path d="M27.0277 42.561C23.8247 42.561 20.6425 42.561 17.4395 42.561C17.4395 41.933 17.4395 41.3259 17.4395 40.6769C20.6216 40.6769 23.8037 40.6769 27.0277 40.6769C27.0277 41.3049 27.0277 41.9121 27.0277 42.561Z" fill="#FFD93D"/>
<path d="M27.0277 38.688C23.8247 38.688 20.6425 38.688 17.4395 38.688C17.4395 38.0599 17.4395 37.4528 17.4395 36.8038C20.6216 36.8038 23.8037 36.8038 27.0277 36.8038C27.0277 37.4319 27.0277 38.039 27.0277 38.688Z" fill="#FFD93D"/>
<path d="M27.0487 29.0579C27.0487 29.7278 27.0487 30.3349 27.0487 30.9629C23.8247 30.9629 20.6635 30.9629 17.4395 30.9629C17.4395 30.3349 17.4395 29.7068 17.4395 29.0579C20.6425 29.0579 23.8247 29.0579 27.0487 29.0579Z" fill="#FFD93D"/>
<path d="M52.2126 21.3329C52.2126 21.9609 52.2126 22.5681 52.2126 23.217C49.3236 23.217 46.4764 23.217 43.5664 23.217C43.5664 22.589 43.5664 21.9819 43.5664 21.3329C46.4554 21.3329 49.3236 21.3329 52.2126 21.3329Z" fill="#FFD93D"/>
<path d="M21.2496 44.5498C21.2496 45.1779 21.2496 45.785 21.2496 46.434C19.9935 46.434 18.7165 46.434 17.4395 46.434C17.4395 45.8059 17.4395 45.1988 17.4395 44.5498C18.6956 44.5498 19.9517 44.5498 21.2496 44.5498Z" fill="#FFD93D"/>
<path d="M27.0485 44.5498C27.0485 45.2197 27.0485 45.8059 27.0485 46.4549C25.7714 46.4549 24.5363 46.4549 23.2383 46.4549C23.2383 45.8268 23.2383 45.1988 23.2383 44.5498C24.5153 44.5498 25.7505 44.5498 27.0485 44.5498Z" fill="#FFD93D"/>
<path d="M17.4395 34.8151C17.4395 34.1661 17.4395 33.559 17.4395 32.9309C18.0675 32.9309 18.6746 32.9309 19.3027 32.9309C19.3027 33.538 19.3027 34.1661 19.3027 34.8151C18.6956 34.8151 18.0675 34.8151 17.4395 34.8151Z" fill="#FFD93D"/>
<path d="M54.2002 21.3329C54.8492 21.3329 55.4354 21.3329 56.0844 21.3329C56.0844 21.9819 56.0844 22.589 56.0844 23.217C55.4563 23.217 54.8492 23.217 54.2002 23.217C54.2002 22.6099 54.2002 21.9819 54.2002 21.3329Z" fill="#FFD93D"/>
<path d="M21.333 32.9309C21.9611 32.9309 22.5472 32.9309 23.1962 32.9309C23.1962 33.559 23.1962 34.1661 23.1962 34.8151C22.5891 34.8151 21.982 34.8151 21.333 34.8151C21.333 34.2079 21.333 33.6008 21.333 32.9309Z" fill="#FFD93D"/>
<path d="M27.0488 34.8359C26.3998 34.8359 25.8136 34.8359 25.1855 34.8359C25.1855 34.2079 25.1855 33.6008 25.1855 32.9518C25.7927 32.9518 26.3998 32.9518 27.0488 32.9518C27.0488 33.5798 27.0488 34.166 27.0488 34.8359Z" fill="#FFD93D"/>
<path d="M27.0691 3.91492C27.76 3.91492 28.3671 3.91492 29.0161 3.91492C29.0161 4.45923 29.037 4.98261 29.0161 5.50598C28.9952 5.86188 29.1208 6.00843 29.4557 6.13404C30.9212 6.67835 31.9679 8.20661 31.8842 9.67207C31.2771 9.67207 30.649 9.67207 30.021 9.67207C29.8954 8.8556 29.5395 8.20661 28.7439 7.91352C28.0112 7.64136 27.3203 7.76698 26.7551 8.31129C26.1898 8.8556 25.9386 9.54646 26.2317 10.3211C26.5248 11.1166 27.0901 11.5353 27.9484 11.6609C28.5764 11.7656 29.2464 11.8284 29.8116 12.1005C31.298 12.8123 32.0098 14.0894 31.947 15.7014C31.8633 17.3343 31.0049 18.5067 29.4557 19.1138C29.1208 19.2394 29.037 19.4069 29.058 19.7209C29.0789 20.2234 29.058 20.7258 29.058 21.2701C28.409 21.2701 27.8018 21.2701 27.111 21.2701C27.111 20.7886 27.0901 20.3071 27.111 19.8256C27.1319 19.4278 27.0272 19.2185 26.6085 19.0719C25.164 18.5486 24.1591 16.9994 24.2429 15.5548C24.85 15.5548 25.4571 15.5548 26.0433 15.5548C26.1689 15.8898 26.2736 16.2457 26.462 16.5388C26.9435 17.3343 27.8647 17.6274 28.7439 17.3134C29.6023 16.9994 30.1047 16.1829 30 15.2408C29.9163 14.4243 29.2045 13.7544 28.3462 13.5869C27.6553 13.4613 26.9016 13.3776 26.2945 13.0845C24.7872 12.3308 24.0963 11.0119 24.2429 9.33711C24.3685 7.78791 25.2478 6.69929 26.6923 6.1131C27.0063 5.98749 27.1319 5.84095 27.111 5.50598C27.0482 5.00354 27.0691 4.48016 27.0691 3.91492Z" fill="#FFD93D"/>
<path d="M34.815 11.6399C35.4849 11.6399 36.092 11.6399 36.7201 11.6399C36.7201 12.2679 36.7201 12.8751 36.7201 13.545C36.1548 13.545 35.6314 13.5659 35.0871 13.5241C34.9824 13.5241 34.815 13.3147 34.815 13.21C34.794 12.7285 34.815 12.2261 34.815 11.6399Z" fill="#FFD93D"/>
<path d="M21.2488 13.5659C20.7045 13.5659 20.1602 13.5869 19.6368 13.545C19.5322 13.545 19.3647 13.3775 19.3647 13.2728C19.3437 12.7285 19.3438 12.2051 19.3438 11.6399C20.0137 11.6399 20.5999 11.6399 21.2488 11.6399C21.2488 12.2679 21.2488 12.896 21.2488 13.5659Z" fill="#FFD93D"/>
<path d="M48.3392 44.5498C48.3392 45.1779 48.3392 45.785 48.3392 46.434C47.7112 46.434 47.1041 46.434 46.4551 46.434C46.4551 45.8059 46.4551 45.1988 46.4551 44.5498C47.0831 44.5498 47.6902 44.5498 48.3392 44.5498Z" fill="#FFD93D"/>
<path d="M38.6464 44.5498C38.6464 45.1988 38.6464 45.8059 38.6464 46.4549C38.0184 46.4549 37.4113 46.4549 36.7832 46.4549C36.7832 45.8059 36.7832 45.1988 36.7832 44.5498C37.4113 44.5498 38.0184 44.5498 38.6464 44.5498Z" fill="#FFD93D"/>
</g>
<defs>
<clipPath id="clip0">
<rect width="59.9581" height="60" fill="white"/>
</clipPath>
</defs>
</svg>
