<svg width="61" height="60" viewBox="0 0 61 60" fill="none" xmlns="http://www.w3.org/2000/svg">
<path d="M30.0914 0C38.9848 0 47.8985 0 56.7919 0C58.6802 0 60.0812 1.42132 60.0812 3.30964C60.0812 21.1168 60.0812 38.9035 60.0812 56.7107C60.0812 58.5584 58.6396 60 56.8122 60C38.9848 60 21.1574 60 3.30965 60C1.44162 60 0 58.5584 0 56.6904C0 40.4873 0 24.264 0 8.06091C0.0203046 6.47716 0.0203046 4.8731 0.0203046 3.28934C0.0203046 1.44162 1.46193 0 3.28934 0C12.2234 0 21.1574 0 30.0914 0ZM1.90863 11.269C1.90863 11.5127 1.90863 11.6954 1.90863 11.8782C1.90863 26.7411 1.90863 41.5838 1.90863 56.4467C1.90863 56.5888 1.90863 56.7107 1.90863 56.8528C1.94924 57.4619 2.39594 57.9898 2.98477 58.0914C3.26904 58.1523 3.5533 58.1523 3.83756 58.1523C21.0355 58.1523 38.2538 58.1523 55.4518 58.1523C55.8173 58.1523 56.203 58.1523 56.5685 58.1523C57.6447 58.132 58.1726 57.6041 58.1726 56.5076C58.1726 41.6041 58.1726 26.7005 58.1726 11.797C58.1726 11.6142 58.1523 11.4518 58.1523 11.269C39.3909 11.269 20.6904 11.269 1.90863 11.269ZM58.1523 9.3198C58.1726 9.23858 58.1929 9.19797 58.1929 9.15736C58.1929 7.16751 58.2335 5.15736 58.1726 3.16751C58.1726 2.80203 57.868 2.33503 57.5838 2.13198C57.2589 1.90863 56.7513 1.84772 56.3452 1.84772C38.8223 1.84772 21.3198 1.84772 3.79695 1.84772C3.65482 1.84772 3.533 1.84772 3.39086 1.84772C2.43655 1.90863 1.90863 2.45685 1.90863 3.41117C1.90863 5.23858 1.90863 7.06599 1.90863 8.8934C1.90863 9.03553 1.92893 9.17766 1.92893 9.3198C20.7107 9.3198 39.4315 9.3198 58.1523 9.3198Z" fill="#3498db"/>
<path d="M51.6547 52.5076C52.2842 52.5076 52.8324 52.4873 53.3603 52.5076C54.0304 52.5279 54.4568 52.8934 54.4568 53.4619C54.4568 54.0101 54.0304 54.3959 53.3603 54.3959C52.67 54.4162 51.9796 54.3959 51.2892 54.3959C43.7562 54.3959 36.2233 54.3959 28.7106 54.3959C28.4669 54.3959 28.203 54.3756 27.9593 54.335C27.4923 54.2335 27.2689 53.8883 27.2689 53.4619C27.2689 53.0152 27.4923 52.6497 27.9593 52.5888C28.6294 52.5076 29.2994 52.5076 30.0304 52.4873C30.0304 51.2284 30.0304 49.9492 30.0304 48.67C28.3045 48.0812 27.2892 46.8832 27.2689 45.0355C27.2486 43.4721 28.0202 42.2538 29.4821 41.6244C31.0659 40.9137 32.5075 41.2792 33.807 42.4569C34.8832 41.6244 35.9796 40.7919 37.0557 39.9391C37.1776 39.8579 37.1979 39.5736 37.1776 39.4112C36.9745 37.2183 38.3755 35.4721 40.5684 35.2081C42.2943 35.0051 43.9999 36.1624 44.5075 37.9086C44.609 38.2335 44.7309 38.3756 45.076 38.4365C45.807 38.5787 46.5177 38.7614 47.2486 38.9239C47.9187 37.6244 48.8933 36.8122 50.3349 36.6091C52.1826 36.3655 53.9288 37.5838 54.4161 39.4518C54.8831 41.198 53.8882 43.1472 52.1826 43.797C51.7969 43.9391 51.6953 44.1218 51.6953 44.5279C51.7156 47.0051 51.6953 49.5025 51.6953 51.9797C51.6547 52.1218 51.6547 52.2843 51.6547 52.5076ZM41.8273 52.467C44.5075 52.467 47.1065 52.467 49.7664 52.467C49.7664 49.6853 49.7664 46.9645 49.7461 44.2233C49.7461 44.1015 49.5634 43.9188 49.4415 43.8579C48.1623 43.3503 47.3908 42.4162 47.0253 41.1167C46.9847 40.9746 46.8425 40.7716 46.7207 40.731C45.9491 40.5279 45.1776 40.3655 44.406 40.203C43.9593 41.2386 43.2689 42.0101 42.2334 42.3756C41.9085 42.4975 41.807 42.6396 41.807 42.9848C41.8273 45.9695 41.807 48.9746 41.807 51.9594C41.807 52.1421 41.807 52.2843 41.8273 52.467ZM37.9898 41.5431C37.0964 42.2335 36.1217 43.0051 35.1268 43.736C34.7816 43.9797 34.6598 44.2233 34.7004 44.6497C34.8629 46.4162 33.9288 47.8782 32.2842 48.5076C31.9796 48.6294 31.9187 48.7716 31.9187 49.0558C31.939 50.0508 31.9187 51.0457 31.9187 52.0406C31.9187 52.1827 31.939 52.3249 31.9593 52.4467C34.6192 52.4467 37.2385 52.4467 39.8781 52.4467C39.8781 49.198 39.8781 45.9898 39.8781 42.7817C39.8781 42.6599 39.7766 42.5178 39.6547 42.4569C39.1471 42.1726 38.5989 41.8883 37.9898 41.5431ZM38.9644 38.8629C38.9441 39.8985 39.7563 40.7513 40.7918 40.7919C41.7867 40.8325 42.7004 39.9594 42.7207 38.9645C42.741 37.9289 41.9085 37.0761 40.8933 37.0558C39.8375 37.0355 38.9847 37.8274 38.9644 38.8629ZM29.1167 44.9746C29.0964 46.0101 29.9695 46.8832 31.005 46.8832C32.0202 46.8832 32.873 46.0101 32.873 45.0152C32.873 44 32.0405 43.1472 31.005 43.1472C29.9695 43.1269 29.137 43.9594 29.1167 44.9746ZM50.6801 38.4568C49.6446 38.4568 48.8121 39.2893 48.8121 40.3249C48.8121 41.3401 49.6852 42.1929 50.7004 42.1929C51.7359 42.1726 52.5684 41.3198 52.5684 40.3046C52.5684 39.269 51.7359 38.4568 50.6801 38.4568Z" fill="#3498db"/>
<path d="M40.8935 14.9847C44.9544 14.9847 49.0153 14.9847 53.0762 14.9847C54.2133 14.9847 54.4569 15.2284 54.4569 16.3451C54.4569 21.2385 54.4569 26.1319 54.4569 31.005C54.4569 32.0609 54.1727 32.3451 53.1371 32.3451C44.9544 32.3451 36.7514 32.3451 28.5686 32.3451C27.5331 32.3451 27.2285 32.0609 27.2285 31.0254C27.2285 26.1116 27.2285 21.1776 27.2285 16.2639C27.2285 15.2893 27.5128 15.005 28.5077 14.9847C32.6295 14.9847 36.7717 14.9847 40.8935 14.9847ZM29.1168 30.4162C36.9747 30.4162 44.7514 30.4162 52.528 30.4162C52.528 27.1472 52.528 23.9188 52.528 20.6091C51.33 21.4619 50.1727 22.2538 49.0559 23.0863C48.6295 23.3908 48.2234 23.4721 47.7361 23.3096C46.5585 22.9441 45.3605 22.6193 44.2031 22.2538C43.8783 22.1523 43.6955 22.2132 43.4519 22.4568C42.193 23.8375 40.9138 25.1776 39.6549 26.538C38.9849 27.269 38.7818 27.3096 37.8884 26.9035C36.5686 26.3147 35.2285 25.7259 33.9087 25.1167C33.6651 25.0152 33.5026 24.9746 33.2793 25.1573C31.9798 26.2132 30.66 27.2284 29.3402 28.2842C29.2184 28.3655 29.1371 28.5482 29.1168 28.6903C29.1168 29.2792 29.1168 29.8274 29.1168 30.4162ZM52.5483 16.8934C44.7311 16.8934 36.9544 16.8934 29.1574 16.8934C29.1574 19.9391 29.1574 22.9644 29.1574 26.0507C29.3402 25.9289 29.462 25.8274 29.6041 25.7259C30.5788 24.9543 31.594 24.203 32.5483 23.3908C33.0965 22.9238 33.5838 22.9035 34.2133 23.2081C35.4722 23.8172 36.7717 24.3451 38.0509 24.9543C38.3554 25.0964 38.5382 25.0761 38.7818 24.8122C40.0407 23.4111 41.3402 22.071 42.5991 20.67C43.0255 20.1827 43.4722 20.0812 44.0813 20.2639C45.2793 20.6497 46.4976 20.9949 47.7361 21.3198C47.9595 21.3807 48.2641 21.3198 48.4671 21.1979C49.5432 20.467 50.5585 19.6345 51.6752 18.9644C52.4874 18.4771 52.7717 17.868 52.6092 16.9746C52.5686 16.9746 52.5483 16.9543 52.5483 16.8934Z" fill="#3498db"/>
<path d="M23.4925 45.5026C23.4925 50.4163 19.4925 54.396 14.5788 54.4163C9.64481 54.4163 5.64481 50.4163 5.66512 45.462C5.68542 40.5483 9.68542 36.5686 14.5991 36.5686C19.5128 36.5889 23.4925 40.5889 23.4925 45.5026ZM19.3504 40.3859C17.5433 38.4975 14.0712 37.726 11.188 39.3097C8.12197 40.995 6.76156 44.6498 7.95953 47.8985C9.17781 51.1676 12.589 53.0762 16.0205 52.3656C19.4113 51.6549 21.3606 48.6904 21.4824 46.4163C20.7108 46.4163 19.9392 46.4163 19.1474 46.4163C17.6448 46.4163 16.1423 46.4163 14.6397 46.4163C14.2133 46.4163 13.8885 46.2336 13.726 45.8275C13.5433 45.4011 13.7057 45.0762 13.99 44.7716C14.0915 44.6701 14.193 44.5889 14.2946 44.5077C15.9595 43.127 17.6448 41.7666 19.3504 40.3859ZM17.2387 44.5077C18.7413 44.5077 20.1017 44.5077 21.6245 44.5077C21.2793 43.5534 20.9545 42.6803 20.6296 41.7463C19.4519 42.7006 18.3961 43.5737 17.2387 44.5077Z" fill="#3498db"/>
<path d="M23.4925 23.8782C23.4925 28.8122 19.5331 32.7919 14.6194 32.8122C9.66504 32.8122 5.66504 28.8528 5.66504 23.8985C5.66504 18.9848 9.62443 15.0051 14.5584 15.0051C19.4925 14.9848 23.4721 18.9645 23.4925 23.8782ZM15.5737 16.9543C15.3706 18.2741 15.1879 18.599 14.5991 18.5584C13.5432 18.4975 13.6447 17.665 13.6041 16.934C12.3452 17.0761 11.2894 17.5432 10.3351 18.2741C11.1473 19.2081 11.2894 19.6142 10.8833 20.0406C10.0914 20.8731 9.54321 20.1624 8.97468 19.6548C8.26402 20.6701 7.75641 21.7056 7.63458 22.9036C8.89347 23.0254 9.23864 23.2081 9.23864 23.797C9.23864 24.9137 8.34524 24.8122 7.59397 24.8528C7.75641 26.1117 8.26402 27.1472 8.97468 28.1218C10.0711 27.2284 10.4366 27.1269 10.9036 27.5939C11.3503 28.0406 11.2488 28.3858 10.3757 29.4822C12.6701 31.3909 16.4671 31.3909 18.7818 29.4822C18.5584 29.198 18.3148 28.9543 18.1524 28.6497C17.9493 28.2843 18.0914 27.9188 18.3554 27.6345C18.7818 27.2081 19.1879 27.3299 20.2031 28.1218C20.3452 27.8985 20.4874 27.6954 20.6295 27.4721C19.5331 26.8629 19.2488 26.5178 19.5331 25.9492C19.9798 25.0355 20.6904 25.401 21.3808 25.6853C21.4417 25.401 21.4823 25.1574 21.5229 24.9137C20.2031 24.6904 19.8985 24.4873 19.8985 23.8985C19.8985 23.3096 20.2234 23.1066 21.5229 22.9036C21.3808 21.7056 20.8935 20.6497 20.1828 19.6954C19.2285 20.5076 18.7818 20.6091 18.3351 20.1624C17.8884 19.7157 17.9696 19.3706 18.7818 18.335C17.8275 17.5838 16.7716 17.1168 15.5737 16.9543Z" fill="#3498db"/>
<path d="M54.4778 6.53806C53.9498 6.53806 53.5234 6.13197 53.5234 5.62436C53.5234 5.11674 53.9295 4.69035 54.4574 4.67004C54.9651 4.67004 55.4118 5.07614 55.4118 5.58375C55.4118 6.09136 54.9854 6.51776 54.4778 6.53806Z" fill="#3498db"/>
<path d="M51.6351 5.58371C51.6554 6.09133 51.229 6.51772 50.7011 6.53803C50.1732 6.53803 49.7468 6.15224 49.7468 5.62432C49.7265 5.11671 50.1529 4.69031 50.6808 4.67001C51.1884 4.6497 51.6351 5.0761 51.6351 5.58371Z" fill="#3498db"/>
<path d="M47.8979 5.62436C47.8775 6.13197 47.4511 6.53806 46.9232 6.53806C46.3953 6.51776 45.9892 6.09136 46.0095 5.58375C46.0298 5.07614 46.4562 4.67004 46.9841 4.67004C47.4918 4.67004 47.8979 5.11674 47.8979 5.62436Z" fill="#3498db"/>
<path d="M12.0605 24.0609C12.0605 22.5381 13.0149 21.5229 14.4159 21.3604C15.6342 21.2183 16.8321 22.1117 17.0555 23.3706C17.1367 23.7767 17.2788 24.0203 17.6849 24.1625C18.3347 24.3858 18.558 24.8934 18.3347 25.4416C18.1316 25.9493 17.5834 26.1726 16.9743 25.8883C16.5885 25.7056 16.3245 25.7462 15.9793 25.9899C15.1875 26.5584 14.294 26.5787 13.4413 26.1523C12.5276 25.6853 12.0809 24.9137 12.0605 24.0609ZM15.2078 23.9188C15.2078 23.5939 14.9235 23.2894 14.558 23.2691C14.2128 23.2488 13.888 23.5533 13.9083 23.8985C13.9083 24.3046 14.1722 24.5076 14.5377 24.5482C14.8829 24.5889 15.2078 24.264 15.2078 23.9188Z" fill="#3498db"/>
</svg>
