<svg width="69" height="68" viewBox="0 0 69 68" fill="none" xmlns="http://www.w3.org/2000/svg">
<g clip-path="url(#clip0)">
<path d="M29.2896 46.051C25.0809 42.8211 25.2522 36.9974 28.6045 33.8164C31.4919 31.0759 36.5081 31.0514 39.4199 33.7675C42.503 36.6059 43.335 42.454 38.8816 45.9776C39.6401 46.5159 40.4721 46.9808 41.1817 47.617C43.1882 49.4278 44.2403 51.7034 44.2403 54.4195C44.2403 58.4569 44.2403 62.4943 44.2403 66.5317C44.2403 67.6084 43.8488 67.9999 42.7722 67.9999C36.9485 67.9999 31.1003 67.9999 25.2767 67.9999C24.2245 67.9999 23.8085 67.5839 23.8085 66.5073C23.8085 62.5433 23.784 58.5548 23.8085 54.5908C23.833 50.8225 25.5703 48.033 28.8981 46.2468C29.0205 46.1734 29.1183 46.1244 29.2896 46.051ZM32.1525 47.6415C31.81 47.6904 31.5653 47.7149 31.345 47.7639C28.3109 48.4735 26.1086 51.1651 26.1086 54.2971C26.0842 57.8941 26.1086 61.5156 26.1086 65.1125C26.1086 65.2838 26.1331 65.4551 26.1331 65.6509C31.4184 65.6509 36.6549 65.6509 41.9158 65.6509C41.9402 65.5285 41.9647 65.4551 41.9647 65.3817C41.9647 61.6624 41.9892 57.9186 41.9647 54.1993C41.9402 52.4375 41.2796 50.8959 40.0316 49.648C38.9305 48.5224 37.6092 47.8373 35.9208 47.666C36.0431 47.9107 36.1165 48.1064 36.1899 48.2777C36.8751 49.6725 37.5602 51.0672 38.2698 52.4375C38.5635 53.0003 38.5879 53.4897 38.3188 54.0524C37.2421 56.4749 36.2144 58.8974 35.1867 61.3443C34.9665 61.8826 34.6729 62.323 34.0122 62.323C33.3515 62.323 33.0579 61.9071 32.8377 61.3443C31.8344 58.9708 30.8312 56.5728 29.779 54.2237C29.4609 53.5386 29.4609 52.9269 29.8279 52.2662C30.6354 50.7491 31.3695 49.232 32.1525 47.6415ZM34.0611 38.5145C32.2015 38.49 30.4886 39.0039 28.8736 39.8848C28.58 40.0561 28.4087 40.2273 28.4821 40.5944C28.8981 43.2126 31.2472 45.2191 33.9632 45.268C36.6793 45.3169 39.0773 43.3839 39.5912 40.7657C39.6891 40.3252 39.5667 40.0561 39.1507 39.8358C37.5358 39.0039 35.8718 38.49 34.0611 38.5145ZM34.0122 58.2367C34.0856 58.0899 34.159 58.0165 34.2079 57.9186C34.8197 56.4749 35.4559 55.0557 36.0431 53.612C36.1165 53.4162 36.0921 53.0981 35.9942 52.8779C35.4559 51.7279 34.8686 50.5778 34.2814 49.4278C34.2079 49.3054 34.1345 49.1831 34.0122 49.0363C33.327 50.3821 32.6908 51.6789 32.0546 52.9758C31.9812 53.1226 31.9323 53.3428 32.0057 53.4897C32.6419 55.0557 33.3026 56.6217 34.0122 58.2367ZM28.9226 37.3155C32.3483 35.8963 35.725 35.8963 39.1263 37.3155C38.4166 35.3824 36.2634 34.0122 34.0611 33.9877C31.81 33.9632 29.6811 35.3335 28.9226 37.3155Z" fill="#FFD93D"/>
<path d="M54.5664 43.7267C50.896 40.3255 51.9727 35.6518 54.4196 33.4251C56.9154 31.1495 61.0507 31.1495 63.5466 33.4007C66.1159 35.7252 66.9723 40.4478 63.4732 43.6777C64.1339 44.1427 64.819 44.5586 65.4307 45.097C67.1925 46.6875 68.0734 48.7184 68.0734 51.1164C68.0734 54.7134 68.0734 58.3348 68.0734 61.9318C68.0734 63.0329 67.6819 63.4489 66.5808 63.4489C61.5157 63.4489 56.475 63.4489 51.4099 63.4489C50.3087 63.4489 49.9172 63.0574 49.9172 61.9318C49.9172 58.3838 49.9172 54.8357 49.9172 51.2877C49.9172 47.9599 51.3609 45.464 54.2972 43.8735C54.3951 43.849 54.4685 43.8001 54.5664 43.7267ZM65.7244 61.1488C65.7488 61.0264 65.7733 60.9775 65.7733 60.9041C65.7733 57.4784 65.7978 54.0527 65.7488 50.627C65.7244 49.012 64.9903 47.6907 63.7668 46.663C62.9104 45.9289 61.9072 45.464 60.7082 45.3906C61.222 46.6875 61.7603 47.9109 62.2008 49.1588C62.3476 49.5504 62.3476 50.0642 62.2253 50.4557C61.5646 52.5601 60.855 54.64 60.1698 56.7198C59.9741 57.3071 59.6805 57.7476 58.9953 57.772C58.3102 57.772 58.0166 57.3316 57.8208 56.7443C57.1846 54.7868 56.5484 52.8292 55.8633 50.8962C55.5941 50.1621 55.5941 49.5014 55.9122 48.7918C56.4016 47.7152 56.8176 46.5896 57.258 45.4395C57.1357 45.4395 57.0623 45.4151 57.0133 45.4151C54.1994 45.8555 52.1929 48.1801 52.1929 51.0185C52.1929 54.224 52.1929 57.4294 52.1929 60.6105C52.1929 60.7817 52.2173 60.953 52.2173 61.1488C56.7442 61.1488 61.222 61.1488 65.7244 61.1488ZM59.4113 37.3891C57.6006 37.3891 56.059 37.7807 54.909 38.5392C54.7132 38.6615 54.5175 38.9796 54.5419 39.1999C54.7621 41.3042 56.6952 42.9926 58.9219 43.0415C61.0752 43.0905 63.1062 41.4021 63.4243 39.3222C63.4977 38.9062 63.3753 38.686 63.0083 38.4903C61.7603 37.8051 60.4635 37.3647 59.4113 37.3891ZM58.9953 47.2502C58.6283 48.1556 58.3102 48.9386 58.0166 49.7461C57.9676 49.844 57.9921 49.9908 58.0166 50.0887C58.3347 51.0185 58.6283 51.9728 58.9953 53.0495C59.3624 51.9483 59.6805 50.994 59.9986 50.0397C60.023 49.9419 60.023 49.8195 59.9986 49.7461C59.6805 48.9386 59.3624 48.1556 58.9953 47.2502ZM62.4455 35.6274C60.6348 33.4251 57.0378 33.4496 55.5452 35.6274C59.1421 34.8199 59.5092 34.9912 62.4455 35.6274Z" fill="#FFD93D"/>
<path d="M13.556 43.6777C14.1922 44.1181 14.8773 44.5341 15.4646 45.048C17.2508 46.6629 18.1562 48.6939 18.1562 51.1163C18.1562 54.7378 18.1562 58.3837 18.1562 62.0052C18.1562 63.0329 17.7402 63.4733 16.7125 63.4733C11.6229 63.4733 6.50882 63.4733 1.41922 63.4733C0.391508 63.4733 0 63.0573 0 62.0052C0 58.4082 0 54.7867 0 51.1897C0 47.9109 1.46815 45.5129 4.33105 43.9224C4.42893 43.8734 4.55128 43.8 4.64915 43.7511C1.05218 40.4233 1.98201 35.7497 4.50234 33.4495C6.9982 31.1739 11.1335 31.1739 13.6294 33.4251C16.272 35.8231 17.0061 40.5701 13.556 43.6777ZM10.7909 45.415C11.3048 46.6874 11.8186 47.9109 12.2591 49.1588C12.4059 49.5503 12.4304 50.0642 12.308 50.4557C11.6474 52.5845 10.9133 54.7133 10.2037 56.8421C10.0324 57.4049 9.71428 57.772 9.07808 57.7964C8.41742 57.7964 8.09932 57.4049 7.90356 56.8421C7.19395 54.7133 6.48435 52.609 5.79921 50.4557C5.67686 50.0886 5.70133 49.5992 5.84815 49.2322C6.23965 48.1311 6.70457 47.0789 7.12055 46.0023C7.19395 45.831 7.24289 45.6597 7.29183 45.4395C4.40446 45.7576 2.30011 48.0822 2.27564 50.9206C2.25117 54.175 2.27564 57.4539 2.27564 60.7083C2.27564 60.8551 2.30011 60.9774 2.30011 61.1243C6.82692 61.1243 11.3293 61.1243 15.8316 61.1243C15.8316 57.4294 15.9539 53.7835 15.7827 50.162C15.6848 47.6662 13.3357 45.6108 10.7909 45.415ZM9.05362 43.0415C11.158 43.066 13.0666 41.4999 13.4825 39.4445C13.556 39.0775 13.6049 38.7594 13.1644 38.5147C10.3994 36.9731 7.65887 36.9731 4.94279 38.5636C4.7715 38.6615 4.60022 39.0285 4.62468 39.2243C4.94278 41.4021 6.87585 43.017 9.05362 43.0415ZM9.07808 53.0494C9.44512 51.9483 9.76322 50.9695 10.0813 50.0152C10.1058 49.9418 10.1058 49.8439 10.0813 49.7705C9.76322 48.963 9.44512 48.1556 9.07808 47.2257C8.71105 48.1311 8.41742 48.8896 8.09932 49.6727C8.05038 49.7705 8.02591 49.9173 8.07485 50.0152C8.39295 50.994 8.71105 51.9238 9.07808 53.0494ZM5.70133 35.5294C6.80245 35.3826 7.92803 35.1379 9.07808 35.1379C10.2037 35.1379 11.3537 35.4071 12.4304 35.5294C10.9377 33.4495 7.3163 33.4495 5.70133 35.5294Z" fill="#FFD93D"/>
<path d="M43.1148 11.8433C42.9925 12.0146 42.8456 12.3816 42.6009 12.6508C41.5977 13.7274 40.5455 14.7551 39.5423 15.8073C39.371 15.9786 39.2731 16.2967 39.3221 16.5414C39.5423 18.0585 39.787 19.5511 40.0561 21.0682C40.154 21.631 40.0561 22.0959 39.5912 22.414C39.1263 22.7321 38.6614 22.6097 38.221 22.365C36.973 21.6799 35.7251 20.9948 34.4772 20.2852C34.1835 20.1139 33.9388 20.1139 33.6452 20.2852C32.4217 20.9948 31.1983 21.6554 29.9748 22.3406C29.5099 22.5853 29.0205 22.781 28.5311 22.4384C28.0418 22.0959 27.9439 21.631 28.0662 21.0437C28.3354 19.5755 28.5801 18.1074 28.7758 16.6392C28.8248 16.3701 28.7024 16.003 28.5067 15.7828C27.5279 14.7306 26.5002 13.7029 25.497 12.6752C25.1054 12.2837 24.8608 11.8677 25.0565 11.3049C25.2523 10.7422 25.7172 10.5709 26.2555 10.4975C27.6258 10.3017 28.9961 10.0815 30.3663 9.88573C30.7334 9.83679 30.9291 9.6655 31.0759 9.32294C31.6877 7.97713 32.3239 6.68026 32.9356 5.33445C33.1558 4.84507 33.4739 4.47803 34.0857 4.47803C34.6729 4.47803 34.991 4.84507 35.2357 5.33445C35.8474 6.65579 36.4836 7.97713 37.0954 9.32294C37.2667 9.68997 37.4869 9.83679 37.8784 9.88573C39.2731 10.0815 40.6679 10.3017 42.0382 10.4975C42.6744 10.6198 43.1148 11.0603 43.1148 11.8433ZM34.0367 8.29523C33.5718 9.29847 33.1314 10.1794 32.7398 11.0603C32.4952 11.6475 32.0792 11.9411 31.443 12.0146C30.4887 12.1369 29.5344 12.3082 28.4577 12.4795C29.1673 13.2135 29.7546 13.8987 30.4153 14.4859C31.1004 15.0732 31.2717 15.7339 31.0759 16.6148C30.8802 17.4957 30.7823 18.3766 30.611 19.3798C31.4919 18.8904 32.2994 18.4744 33.0579 18.0095C33.7186 17.5935 34.3303 17.618 34.991 18.034C35.7496 18.4989 36.5326 18.8904 37.4135 19.3798C37.2422 18.2542 37.1198 17.2999 36.9241 16.3456C36.7773 15.6849 36.9486 15.1711 37.4379 14.7062C38.1475 14.021 38.8327 13.287 39.5912 12.5039C38.4901 12.3327 37.5113 12.1614 36.5326 12.039C35.9453 11.9656 35.5783 11.672 35.3336 11.1337C34.9421 10.2038 34.5016 9.29847 34.0367 8.29523Z" fill="#FFD93D"/>
<path d="M64.6967 20.5542C64.5744 20.75 64.452 21.0436 64.2563 21.2883C63.8892 21.7043 63.5222 22.1202 63.1062 22.4628C62.5679 22.9033 62.4456 23.4171 62.6168 24.0533C62.7637 24.5916 62.8126 25.1789 62.9105 25.7417C63.0084 26.2555 62.8615 26.696 62.4456 26.8917C62.103 27.063 61.6136 27.0875 61.2466 26.9652C60.6104 26.7205 60.0231 26.3534 59.4114 25.9864C59.0933 25.7906 58.8486 25.7906 58.5305 25.9864C57.9677 26.329 57.4049 26.6226 56.8176 26.9407C56.4017 27.1609 55.9612 27.2588 55.5452 26.9407C55.1293 26.6226 54.958 26.2066 55.0803 25.6438C55.2271 24.9587 55.3495 24.2491 55.4229 23.5395C55.4474 23.2948 55.3495 22.9767 55.2027 22.8054C54.7622 22.2915 54.1994 21.8511 53.7834 21.2883C53.5388 20.9702 53.3919 20.4808 53.4164 20.0893C53.4409 19.5754 53.9058 19.3308 54.4196 19.2573C55.1048 19.1595 55.7899 19.0616 56.4751 18.9148C56.6708 18.8658 56.9155 18.6946 56.9889 18.5233C57.3315 17.8871 57.6251 17.2019 57.9432 16.5413C58.1634 16.0763 58.5305 15.7827 59.0199 15.7827C59.5337 15.7827 59.9008 16.0763 60.0965 16.5413C60.3167 17.0306 60.6104 17.4711 60.7572 17.9849C60.9774 18.719 61.4668 18.9882 62.1764 19.0371C62.7147 19.0861 63.2775 19.1839 63.7914 19.2818C64.3542 19.4531 64.6233 19.8691 64.6967 20.5542ZM57.7475 23.931C58.5794 23.1724 59.3869 23.2458 60.2923 23.8331C59.8518 22.7075 60.3167 21.9245 61.2466 21.1415C59.9986 21.2149 59.3135 20.701 59.0199 19.7223C58.7262 20.1382 58.5549 20.6032 58.2124 20.8478C57.8698 21.0925 57.356 21.1415 56.9155 21.2638C57.7964 22.4139 57.7964 22.4139 57.7475 23.931Z" fill="#FFD93D"/>
<path d="M5.13856 25.9129C5.2609 25.1544 5.43219 24.3714 5.5056 23.5883C5.53007 23.3192 5.43219 23.0011 5.2609 22.7809C4.84493 22.2915 4.35554 21.851 3.9151 21.3616C3.57253 20.9946 3.30337 20.6031 3.47465 20.0648C3.64594 19.4775 4.11085 19.3062 4.6247 19.2328C5.23644 19.1349 5.8237 19.0126 6.43543 18.9637C6.82694 18.9392 6.99822 18.7434 7.14504 18.4253C7.4142 17.7891 7.7323 17.1774 8.02593 16.5412C8.22168 16.1008 8.58872 15.8316 9.05364 15.8071C9.56749 15.8071 9.93453 16.0518 10.1548 16.5412C10.4239 17.1529 10.742 17.7402 11.0112 18.3764C11.158 18.7434 11.3537 18.9637 11.7942 18.9881C12.4549 19.0371 13.1155 19.1594 13.7762 19.3062C14.755 19.5265 15.0731 20.4563 14.4124 21.2148C13.923 21.7532 13.3847 22.267 12.8953 22.8053C12.7485 22.9766 12.6261 23.2947 12.6506 23.5394C12.724 24.249 12.8464 24.9586 12.9932 25.6438C13.1155 26.1821 12.9687 26.6225 12.5283 26.9406C12.1123 27.2587 11.6718 27.1853 11.2559 26.9651C10.6441 26.647 10.0569 26.28 9.42067 25.9863C9.22492 25.8885 8.90682 25.8885 8.71107 25.9863C8.07487 26.28 7.46314 26.6959 6.82694 26.9896C5.99498 27.4055 5.08962 26.8428 5.13856 25.9129ZM10.3994 23.8575C9.86112 22.7075 10.4484 21.9489 11.3048 21.1414C10.0813 21.2148 9.42067 20.7254 9.0781 19.6733C8.78447 20.7744 8.0504 21.1659 6.97375 21.1659C7.31632 21.6308 7.70783 21.9734 7.85464 22.4138C8.00146 22.8298 7.87911 23.3437 7.87911 23.9064C8.6866 23.1479 9.49408 23.2702 10.3994 23.8575Z" fill="#FFD93D"/>
<path d="M42.4541 23.9309C42.919 23.4171 43.3595 22.9521 43.8733 22.4138C44.4361 22.8543 45.0234 23.3192 45.6596 23.8086C45.0723 24.4203 44.5585 25.0076 43.9712 25.6193C43.4329 25.032 42.9435 24.4937 42.4541 23.9309Z" fill="#FFD93D"/>
<path d="M19.2573 14.3879C20.0893 14.3879 20.7989 14.3879 21.5574 14.3879C21.5819 15.0975 21.6308 15.7582 21.6553 16.4678C20.9212 16.5657 20.2361 16.6636 19.4286 16.7859C19.3552 15.954 19.3063 15.1954 19.2573 14.3879Z" fill="#FFD93D"/>
<path d="M31.3695 2.44691C30.6843 2.64267 30.0726 2.83842 29.3875 3.03418C29.1183 2.37351 28.8491 1.68837 28.531 0.929822C29.3141 0.68513 30.0481 0.464907 30.8801 0.220215C31.0514 1.00323 31.1982 1.71284 31.3695 2.44691Z" fill="#FFD93D"/>
<path d="M25.7417 26.9408C26.2066 26.2556 26.5981 25.6928 27.0141 25.0566C27.6013 25.3992 28.1886 25.7173 28.8248 26.0599C28.5312 26.7206 28.2375 27.3812 27.895 28.1153C27.1854 27.7238 26.5002 27.3568 25.7417 26.9408Z" fill="#FFD93D"/>
<path d="M38.1964 0.513672C38.9794 0.807303 39.689 1.07646 40.4965 1.3701C40.154 2.0797 39.8359 2.74037 39.5178 3.42551C38.8816 3.18082 38.2454 2.93613 37.5847 2.69143C37.756 1.98183 37.9517 1.29669 38.1964 0.513672Z" fill="#FFD93D"/>
<path d="M44.2159 7.43852C44.8277 6.99808 45.3905 6.60657 46.0511 6.11719C46.4671 6.82679 46.8831 7.51193 47.3235 8.22154C46.5895 8.56411 45.9533 8.88221 45.2681 9.20031C44.9256 8.61305 44.6074 8.05025 44.2159 7.43852Z" fill="#FFD93D"/>
<path d="M26.3289 2.05542C26.7449 2.74056 27.1119 3.35229 27.5034 3.98849C26.9651 4.38 26.4268 4.7715 25.8395 5.21195C25.3746 4.67363 24.8852 4.13531 24.3469 3.4991C25.0076 3.03419 25.6438 2.56927 26.3289 2.05542Z" fill="#FFD93D"/>
<path d="M32.8378 27.1122C32.7644 27.8707 32.691 28.5803 32.6176 29.3633C31.8101 29.2165 31.0515 29.0942 30.1951 28.9473C30.3909 28.1888 30.5866 27.4792 30.7824 26.7451C31.492 26.8919 32.1282 27.0143 32.8378 27.1122Z" fill="#FFD93D"/>
<path d="M45.8554 18.7678C46.565 19.0125 47.2257 19.2327 47.9842 19.5019C47.6417 20.2604 47.348 20.9701 47.0055 21.7531C46.2959 21.3616 45.6597 21.019 44.999 20.652C45.2926 20.0402 45.5618 19.453 45.8554 18.7678Z" fill="#FFD93D"/>
<path d="M20.8967 21.4596C20.5786 20.701 20.285 19.9914 19.9424 19.2084C20.6765 18.9637 21.3616 18.7435 22.0957 18.4988C22.3649 19.135 22.634 19.7467 22.9032 20.4074C22.2915 20.7255 21.6308 21.068 20.8967 21.4596Z" fill="#FFD93D"/>
<path d="M37.5114 29.0452C36.6794 29.1675 35.9209 29.2899 35.0889 29.4122C35.0155 28.6292 34.9666 27.9196 34.9176 27.1611C35.6272 27.0632 36.2879 26.9653 36.9731 26.8674C37.1443 27.5526 37.3156 28.2377 37.5114 29.0452Z" fill="#FFD93D"/>
<path d="M19.5264 11.8921C19.7467 11.0601 19.9669 10.326 20.1871 9.51855C20.9456 9.78772 21.6308 10.0569 22.3159 10.3016C22.1202 10.9622 21.9489 11.5984 21.7531 12.2836C21.0435 12.1612 20.3339 12.0389 19.5264 11.8921Z" fill="#FFD93D"/>
<path d="M46.5405 14.7061C47.299 14.7061 47.9842 14.7061 48.7917 14.7061C48.7427 15.5135 48.6693 16.2966 48.6204 17.1285C47.8374 17.0062 47.1277 16.8838 46.3692 16.7615C46.4426 16.0763 46.4915 15.4157 46.5405 14.7061Z" fill="#FFD93D"/>
<path d="M46.4671 13.1889C46.3203 12.5037 46.198 11.8675 46.0511 11.1579C46.7363 10.9622 47.4214 10.742 48.2289 10.5217C48.4002 11.3292 48.547 12.0878 48.7428 12.9197C47.9353 13.0176 47.2257 13.1155 46.4671 13.1889Z" fill="#FFD93D"/>
<path d="M22.6341 5.26099C23.2703 5.77484 23.8087 6.23975 24.3959 6.70467C24.0044 7.26746 23.6374 7.80579 23.2214 8.41752C22.6097 8.05048 21.9735 7.70791 21.2639 7.29193C21.7043 6.60679 22.1447 5.97059 22.6341 5.26099Z" fill="#FFD93D"/>
<path d="M44.4117 4.15992C43.8244 4.74718 43.335 5.26103 42.7967 5.77489C42.3073 5.35891 41.7935 4.91846 41.2796 4.47802C41.6956 3.89075 42.1116 3.30349 42.5765 2.64282C43.2127 3.15668 43.8244 3.67053 44.4117 4.15992Z" fill="#FFD93D"/>
<path d="M23.6618 25.1786C23.2703 24.7626 22.7564 24.1754 22.1936 23.5392C22.8298 23.0743 23.3926 22.6338 24.0044 22.1934C24.4693 22.7072 24.9097 23.1966 25.3746 23.7105C24.8118 24.1754 24.2491 24.6648 23.6618 25.1786Z" fill="#FFD93D"/>
<path d="M39.8604 28.262C39.5423 27.5279 39.2731 26.8673 38.955 26.1821C39.5668 25.864 40.154 25.5459 40.7902 25.2034C41.1818 25.8151 41.5733 26.4268 42.0137 27.112C41.2796 27.5035 40.5945 27.8705 39.8604 28.262Z" fill="#FFD93D"/>
<path d="M33.3271 0C34.1835 0 34.9421 0 35.7741 0C35.6762 0.783015 35.6028 1.49262 35.5049 2.27564C34.8198 2.25117 34.1591 2.20223 33.4495 2.17776C33.4005 1.46815 33.3761 0.758546 33.3271 0Z" fill="#FFD93D"/>
</g>
<defs>
<clipPath id="clip0">
<rect width="68.0734" height="68" fill="white"/>
</clipPath>
</defs>
</svg>
