<svg width="63" height="60" viewBox="0 0 63 60" fill="none" xmlns="http://www.w3.org/2000/svg">
<path d="M52.0669 37.5297C52.0669 38.5679 52.0669 39.2354 52.0669 40.1994C35.6777 40.1994 19.3626 40.1994 2.97337 40.1994C2.97337 41.1635 2.97337 41.9051 2.97337 42.6467C3.78912 42.7209 4.45655 42.8692 5.34647 42.9433C5.34647 43.7591 5.34647 44.4265 5.34647 45.094C2.15761 45.7614 0.600266 45.4648 0.303629 44.1299C-0.512125 40.1994 0.303629 37.8263 2.89921 37.3814C2.89921 35.7499 2.97337 34.1184 2.89921 32.4869C2.75089 30.707 3.27 29.5205 5.42063 29.743C5.42063 27.2215 5.42063 24.7743 5.42063 22.1787C4.90151 22.1045 4.45655 22.1046 3.93744 22.0304C0.971063 21.7338 -1.03124 17.5067 0.600266 14.9852C0.822744 14.6145 1.41602 14.3178 1.78682 14.3178C2.97337 14.2437 4.08576 14.3178 5.42063 14.3178C5.42063 15.2077 5.42063 16.0235 5.42063 16.8392C4.60487 16.9134 3.93744 16.9876 3.12169 17.0617C2.89921 18.3224 2.89921 19.4348 4.45655 19.509C9.87019 19.5831 15.2838 19.509 20.9199 19.509C20.9199 18.6932 20.9199 17.9516 20.9199 16.9876C16.767 16.9876 12.5399 16.9876 8.23868 16.9876C8.23868 15.9493 8.23868 15.2077 8.23868 14.2437C12.9849 14.2437 17.5828 14.2437 22.1807 14.2437C23.4414 14.2437 23.5897 14.6886 23.9605 16.9876C24.1088 14.6145 24.2571 12.1672 24.4054 9.79409C24.5537 7.42099 24.7021 4.97373 24.8504 2.60063C24.8504 0.153368 24.9987 0.00504938 27.446 0.00504938C30.1899 0.00504938 32.8596 0.0792088 35.6035 0.00504938C37.3092 -0.06911 37.9024 0.672484 37.9766 2.30399C38.1991 6.97603 38.4957 11.6481 38.7924 16.3943C38.8665 17.4325 39.0148 18.3966 39.1632 19.8798C40.0531 19.1382 40.5722 18.7674 41.0913 18.2483C46.7274 12.6121 52.3635 6.97603 57.9996 1.33992C58.5929 0.746643 59.4087 0.301687 60.1503 0.0792088C61.6334 -0.217429 62.5234 0.375846 62.4492 2.08151C62.375 4.60293 62.4492 7.12435 62.375 9.64577C62.375 10.3132 62.2267 10.9806 61.9301 11.5739C61.1143 13.3537 60.3727 15.2819 59.2603 16.8392C56.5164 20.7697 57.258 25.2192 57.258 29.6688C59.6311 29.5205 59.9278 30.9295 59.7795 32.7835C59.7053 34.3409 59.7795 35.824 59.7795 37.5297C62.2267 37.3814 62.4492 38.7163 62.375 40.5702C62.3009 45.9839 62.9683 45.3906 57.4805 45.3906C56.2198 45.3906 54.8849 45.3906 53.3276 45.3906C53.3276 49.0244 53.2534 52.5099 53.3276 55.9954C53.3276 57.1819 54.6625 57.3303 55.9232 56.4403C56.9614 55.6988 58.0738 54.9572 59.1862 54.2156C60.5211 56.4403 59.0379 57.1819 57.9996 58.146C55.6265 60.2966 53.4018 60.3708 51.177 58.146C49.8421 56.8853 48.878 56.8853 47.5432 58.2202C45.3925 60.3708 43.0194 60.3708 40.8688 58.2202C39.4598 56.8853 38.4957 56.9595 37.0867 58.2202C34.9361 60.2966 32.563 60.2966 30.4123 58.146C29.0775 56.8111 28.1134 56.8853 26.7785 58.146C24.5537 60.3708 22.2548 60.2966 19.9559 58.0719C18.6952 56.8853 17.7311 56.8853 16.4704 58.0719C14.1714 60.2966 11.8725 60.3708 9.64771 58.146C8.387 56.8853 7.34877 56.8853 6.0139 58.146C5.19815 58.8876 4.08576 59.3326 3.04753 60C2.08345 56.9595 4.30824 54.9572 9.05444 54.438C9.05444 51.7683 9.1286 49.0986 8.98028 46.3547C8.98028 45.9839 8.09037 45.6131 7.94205 45.1681C7.71957 44.5748 7.86789 43.8333 7.79373 42.8692C25.0729 42.8692 42.2778 42.8692 59.557 42.8692C59.557 41.9051 59.557 41.1635 59.557 40.2736C57.9255 40.2736 56.294 40.2736 54.5883 40.2736C54.5883 39.3095 54.5883 38.5679 54.5883 37.678C55.3299 37.6039 56.0715 37.5297 56.8872 37.4555C56.8872 35.824 56.8872 34.1925 56.8872 32.4869C39.6823 32.4869 22.5514 32.4869 5.27231 32.4869C5.27231 34.0442 5.27231 35.6757 5.27231 37.4555C20.9941 37.5297 36.4193 37.5297 52.0669 37.5297ZM35.3069 56.0695C38.7924 53.9189 39.8306 54.0672 42.8711 56.4403C43.3902 56.8111 44.2801 57.0336 44.8734 56.8853C45.2442 56.8111 45.5409 55.8471 45.615 55.2538C45.6892 53.9189 45.615 52.5099 45.615 51.175C45.615 49.321 45.615 47.3929 45.615 45.6131C41.9812 45.6131 38.7182 45.6131 35.3069 45.6131C35.3069 49.0986 35.3069 52.4357 35.3069 56.0695ZM17.212 53.9931C18.8435 54.6605 20.4008 55.0313 21.5874 55.9212C23.4414 57.2561 27.1493 56.3662 27.3718 54.2156C27.6684 51.3975 27.446 48.5053 27.446 45.6131C23.8863 45.6131 20.6233 45.6131 17.212 45.6131C17.212 48.5795 17.212 51.5458 17.212 53.9931ZM39.089 22.1787C33.8237 22.1787 28.7808 22.1787 23.738 22.1787C23.738 24.7743 23.738 27.2215 23.738 29.6688C28.9292 29.6688 33.972 29.6688 39.089 29.6688C39.089 27.1474 39.089 24.7743 39.089 22.1787ZM41.907 29.6688C46.2825 29.6688 50.4354 29.6688 54.5883 29.6688C54.5883 27.0732 54.5883 24.626 54.5883 22.1787C50.3612 22.1787 46.2083 22.1787 41.907 22.1787C41.907 24.7001 41.907 27.1474 41.907 29.6688ZM8.09037 29.6688C12.3916 29.6688 16.6187 29.6688 20.7716 29.6688C20.7716 27.0732 20.7716 24.626 20.7716 22.0304C18.5468 22.0304 16.4704 22.0304 14.3198 22.0304C12.2433 22.0304 10.1668 22.0304 8.01621 22.0304C8.09037 24.7743 8.09037 27.2215 8.09037 29.6688ZM55.7007 18.3224C56.294 17.21 56.8872 16.1718 57.4064 14.9852C57.5547 14.6145 57.4805 13.8729 57.258 13.5762C56.1457 12.1672 54.9591 10.9065 53.8467 9.64577C52.4377 10.9806 51.3994 12.0189 50.4354 12.8346C52.2152 14.6145 53.9209 16.4684 55.7007 18.3224ZM11.9467 45.5389C11.9467 49.0986 11.8725 52.5099 12.0208 55.9212C12.0208 56.292 12.8366 57.0336 13.1332 56.9595C13.6523 56.8853 14.4681 56.292 14.4681 55.9212C14.5422 52.5099 14.5422 49.0244 14.5422 45.5389C13.5782 45.5389 12.9107 45.5389 11.9467 45.5389ZM48.3589 45.4648C48.3589 48.5795 48.3589 51.4717 48.3589 54.438C49.2488 54.438 49.9163 54.438 50.6579 54.438C50.6579 51.3975 50.6579 48.5053 50.6579 45.4648C49.8421 45.4648 49.1747 45.4648 48.3589 45.4648ZM32.4888 45.5389C31.5989 45.5389 31.0056 45.5389 30.1157 45.5389C30.1157 47.8379 30.264 50.0626 30.0415 52.2133C29.8932 54.1414 30.4865 55.328 32.563 55.9212C32.563 52.9549 32.563 49.9885 32.563 47.0963C32.563 46.5772 32.4888 46.1322 32.4888 45.5389ZM59.4828 3.78718C58.148 5.12205 56.8131 6.45692 55.6265 7.64347C56.8131 8.97834 57.9255 10.239 59.1862 11.6481C60.4469 8.90418 59.6311 6.3086 59.4828 3.78718ZM43.9094 19.3607C46.9499 19.3607 49.5455 19.3607 52.5118 19.3607C50.8803 17.8033 49.4713 16.5426 47.6915 14.9111C46.8016 15.9493 45.7633 17.1359 44.7993 18.2483C44.5768 18.4707 44.3543 18.7674 43.9094 19.3607ZM31.6731 13.7245C32.4146 12.8346 33.2304 12.0189 33.972 11.129C34.1203 10.9806 34.2686 10.7582 34.3428 10.5357C31.0056 7.05019 31.6731 7.05019 28.2617 10.5357C29.3 11.4998 30.3382 12.4638 31.6731 13.7245ZM36.0485 13.0571C35.0102 14.0212 34.1945 14.7628 33.527 15.4302C34.417 16.3943 35.2327 17.2842 36.3451 18.4707C36.1968 16.5426 36.1226 14.9852 36.0485 13.0571ZM27.1493 13.1313C27.001 13.2054 26.8527 13.2796 26.6302 13.3537C26.5561 14.9111 26.4819 16.5426 26.4077 18.0999C26.5561 18.0999 26.7044 18.1741 26.8527 18.1741C27.6684 17.2842 28.4842 16.4684 29.3 15.5785C28.4842 14.6886 27.8168 13.947 27.1493 13.1313ZM31.3764 17.4325C30.7831 18.0258 30.3382 18.5449 29.6707 19.2865C30.9315 19.2865 31.8214 19.2865 33.1562 19.2865C32.4146 18.6191 31.9697 18.0999 31.3764 17.4325ZM35.6777 7.86595C35.6035 6.45692 35.5293 5.41869 35.381 4.08382C34.5653 4.82541 34.0462 5.34453 33.3787 5.86364C34.1203 6.53108 34.7136 7.05019 35.6777 7.86595ZM27.001 7.9401C28.0392 6.97603 28.5584 6.45692 29.2258 5.86364C28.6325 5.27037 28.0392 4.82541 27.2976 4.08382C27.2235 5.49284 27.1493 6.45692 27.001 7.9401Z" fill="#3498db"/>
<path d="M32.4888 24.7739C32.4888 25.5897 32.4888 26.2571 32.4888 27.2212C30.1898 27.2212 27.965 27.3695 25.6661 27.147C25.2212 27.0729 24.8504 25.8122 24.2571 24.7739C27.4459 24.7739 29.8932 24.7739 32.4888 24.7739Z" fill="#3498db"/>
<path d="M35.3809 27.0729C35.3809 26.3313 35.3809 25.5897 35.3809 24.7739C36.1966 24.7739 36.9382 24.7739 37.6056 24.7739C38.2731 27.2212 37.9023 27.592 35.3809 27.0729Z" fill="#3498db"/>
<path d="M43.1674 27.147C43.1674 26.3313 43.1674 25.5897 43.1674 24.7739C44.8731 24.7739 46.4304 24.7739 48.0619 24.7739C48.0619 25.5897 48.0619 26.2571 48.0619 27.147C46.4304 27.147 44.8731 27.147 43.1674 27.147Z" fill="#3498db"/>
<path d="M50.8804 27.0729C50.8804 26.3313 50.8804 25.5897 50.8804 24.7739C51.6962 24.7739 52.3636 24.7739 53.1052 24.7739C53.8468 27.147 53.5502 27.5178 50.8804 27.0729Z" fill="#3498db"/>
<path d="M9.35095 24.7739C11.0566 24.7739 12.614 24.7739 14.3196 24.7739C14.3196 25.5155 14.3196 26.2571 14.3196 27.147C12.6881 27.147 11.0566 27.147 9.35095 27.147C9.35095 26.3313 9.35095 25.5897 9.35095 24.7739Z" fill="#3498db"/>
<path d="M17.212 24.7003C18.0278 24.7003 18.6952 24.7003 19.5851 24.7003C19.5851 25.5161 19.5851 26.2578 19.5851 26.9994C17.0637 27.5927 16.8412 27.3702 17.212 24.7003Z" fill="#3498db"/>
</svg>
