<svg width="50" height="60" viewBox="0 0 50 60" fill="none" xmlns="http://www.w3.org/2000/svg">
<path d="M16.0389 6.65918C17.3643 6.65918 18.6447 6.65918 19.9925 6.65918C19.9925 6.2773 19.9925 5.91788 19.9925 5.536C19.9925 2.32372 22.2613 0.0324473 25.5185 0.00998378C30.6851 -0.0124797 35.8517 0.00998378 41.0183 0.00998378C42.0292 0.00998378 43.0401 -0.0124797 44.0509 0.00998378C47.106 0.0998378 49.3298 2.36865 49.3298 5.42369C49.3298 12.3874 49.3298 19.3511 49.3298 26.3147C49.3298 35.2552 49.3298 44.2181 49.3298 53.1586C49.3298 56.4832 47.3081 59.044 44.0734 59.8078C43.5567 59.9426 42.9951 59.965 42.456 59.9875C30.6177 59.9875 18.757 60.01 6.91876 59.9875C3.52677 59.9875 0.921003 57.9209 0.179708 54.7535C0.0673905 54.2593 0 53.7427 0 53.2485C0 36.019 0 18.8119 0 1.58243C0 0.526644 0.494197 0.00998378 1.52752 0.00998378C5.84051 0.00998378 10.1535 0.00998378 14.444 0.00998378C15.5223 0.00998378 15.994 0.526644 15.994 1.60489C15.994 3.13241 15.994 4.68239 15.994 6.20991C16.0165 6.34469 16.0389 6.47947 16.0389 6.65918ZM26.0352 49.2949C32.9315 49.2949 39.7604 49.2949 46.6118 49.2949C46.6118 38.1979 46.6118 27.1234 46.6118 16.0265C31.9431 16.0265 17.3194 16.0265 2.71808 16.0265C2.71808 27.1459 2.71808 38.1979 2.71808 49.2949C9.59191 49.2949 16.4433 49.2949 23.2946 49.2949C23.2946 46.6217 23.2946 44.016 23.2946 41.3428C23.0475 41.3428 22.8454 41.3428 22.6432 41.3428C21.1831 41.3428 19.7229 41.3653 18.2628 41.3428C15.3201 41.3204 13.1411 39.5457 12.7368 36.7827C12.5796 35.7269 12.6694 34.6487 12.6694 33.5929C12.6694 32.5147 13.1411 32.0205 14.2419 32.0205C15.4773 31.998 16.7128 31.998 17.9483 32.0205C19.7454 32.0654 21.5874 31.7284 23.3396 32.7393C23.3396 31.8857 23.3171 31.1444 23.3396 30.4031C23.407 27.8872 25.4736 25.5959 27.9895 25.4611C30.4156 25.3263 32.8416 25.3713 35.2902 25.3713C36.1887 25.3713 36.6604 25.9329 36.6604 26.8763C36.6604 27.6401 36.6604 28.4038 36.6604 29.1676C36.638 32.4023 34.3692 34.6712 31.1344 34.6936C29.6294 34.6936 28.1468 34.6936 26.6417 34.6936C26.4395 34.6936 26.2374 34.6936 26.0352 34.6936C26.0352 39.5907 26.0352 44.4203 26.0352 49.2949ZM46.6118 13.3084C46.6342 13.1736 46.6567 13.1062 46.6567 13.0388C46.6567 10.433 46.6791 7.82728 46.6342 5.24398C46.6342 4.81717 46.4545 4.3679 46.2299 3.98602C45.6458 2.9527 44.6574 2.68314 43.5567 2.68314C37.6264 2.68314 31.696 2.68314 25.7656 2.68314C25.5185 2.68314 25.2714 2.7056 25.0468 2.72807C23.6541 2.88531 22.6881 3.98602 22.6881 5.40122C22.6881 6.12005 22.6881 6.81642 22.6881 7.53525C22.6881 8.92799 22.2389 9.37726 20.8461 9.37726C15.0281 9.37726 9.21003 9.37726 3.39199 9.37726C3.16735 9.37726 2.96518 9.37726 2.74055 9.37726C2.74055 10.7475 2.74055 12.028 2.74055 13.3308C17.3643 13.3084 31.9656 13.3084 46.6118 13.3084ZM2.60577 52.0354C2.69562 52.9115 2.67316 53.7651 2.89779 54.5513C3.39199 56.3035 4.94197 57.3368 6.91876 57.3368C18.757 57.3368 30.6177 57.3368 42.456 57.3368C42.5908 57.3368 42.7256 57.3368 42.8379 57.3144C45.3313 57.1571 47.1509 55.0006 46.5668 52.0354C31.9656 52.0354 17.3418 52.0354 2.60577 52.0354ZM2.71808 6.63671C6.26732 6.63671 9.79408 6.63671 13.3209 6.63671C13.3209 5.31137 13.3209 4.00849 13.3209 2.7056C9.77162 2.7056 6.26732 2.7056 2.71808 2.7056C2.71808 4.03095 2.71808 5.31137 2.71808 6.63671ZM15.3426 34.6712C15.3426 35.0755 15.3426 35.4349 15.3426 35.7719C15.3426 37.524 16.4433 38.6247 18.1954 38.6472C19.5882 38.6697 21.0034 38.6472 22.3961 38.6472C22.6881 38.6472 22.9802 38.6472 23.3171 38.6472C23.3171 38.1979 23.3171 37.8385 23.3171 37.4791C23.3171 35.9291 22.3736 34.761 20.8461 34.6936C19.0715 34.6038 17.252 34.6712 15.3426 34.6712ZM26.0801 31.9531C27.9446 31.9531 29.7641 31.9755 31.6061 31.9306C31.988 31.9306 32.4148 31.7509 32.7518 31.5487C33.83 30.9198 34.2793 29.5046 33.9199 27.9995C32.0779 27.9995 30.2359 27.977 28.3714 28.022C28.0794 28.022 27.7424 28.1567 27.4729 28.2915C26.2598 28.898 25.7656 30.2009 26.0801 31.9531Z" fill="#3498db"/>
<path d="M34.6835 6.68149C36.7951 6.68149 38.9067 6.68149 41.0182 6.68149C41.5574 6.68149 42.0516 6.77135 42.411 7.26554C42.9501 8.05176 42.5682 9.08508 41.6472 9.28726C41.4001 9.35465 41.1306 9.35465 40.861 9.35465C36.7277 9.35465 32.5944 9.35465 28.4611 9.35465C28.3264 9.35465 28.1916 9.35465 28.0793 9.35465C27.2257 9.28726 26.6641 8.74813 26.6641 7.98437C26.6865 7.22062 27.2481 6.68149 28.1242 6.68149C29.7865 6.65903 31.4488 6.68149 33.1111 6.68149C33.6502 6.68149 34.1669 6.68149 34.6835 6.68149Z" fill="#3498db"/>
</svg>
