<svg width="60" height="61" viewBox="0 0 60 61" fill="none" xmlns="http://www.w3.org/2000/svg">
<g clip-path="url(#clip0)">
<path d="M13.2502 32.8322C13.0277 33.4391 12.8457 33.9853 12.6231 34.491C12.5625 34.6124 12.2995 34.6933 12.1376 34.6933C9.38646 34.7135 6.63528 34.6933 3.90433 34.6933C3.72226 34.6933 3.5402 34.6933 3.33791 34.6933C3.33791 36.8983 3.33791 39.0426 3.33791 41.2476C5.32038 41.2476 7.28261 41.2476 9.30554 41.2476C8.98187 41.8747 8.71889 42.4411 8.39522 42.967C8.33454 43.0884 8.09178 43.1289 7.92995 43.1289C6.57459 43.1491 5.199 43.1491 3.84364 43.1289C3.41882 43.1289 3.29745 43.2503 3.29745 43.6751C3.31768 45.5159 3.29745 47.3568 3.31768 49.1774C3.31768 49.319 3.33791 49.4809 3.33791 49.6832C4.28868 49.6832 5.23946 49.6832 6.19023 49.6832C6.14977 50.3305 6.12955 50.9171 6.08909 51.5645C5.17877 51.5645 4.26845 51.5645 3.31768 51.5645C3.31768 51.787 3.31768 51.9691 3.31768 52.1511C3.31768 53.7088 3.31768 55.2462 3.31768 56.8039C3.31768 57.8558 3.60089 58.139 4.67304 58.139C5.78565 58.139 6.89826 58.139 8.01087 58.139C8.33453 58.139 8.55706 58.2199 8.79981 58.4627C9.30554 58.9684 9.87196 59.4337 10.4384 59.9394C10.2968 59.9596 10.1552 59.9596 10.0338 59.9596C8.07155 59.9596 6.12955 59.9596 4.16731 59.9596C2.69057 59.9596 1.45659 58.7459 1.45659 57.2489C1.45659 55.5497 1.45659 53.8504 1.45659 52.1511C1.45659 51.9691 1.45659 51.787 1.45659 51.6049C0.404663 51.4633 0.0405366 51.1801 0.0405366 50.5935C0.0607659 50.0068 0.404663 49.7641 1.41613 49.6225C1.41613 47.4782 1.41613 45.3136 1.41613 43.1693C0.323746 42.9468 7.81124e-05 42.7041 0.0405366 42.1174C0.0809952 41.551 0.424893 41.3082 1.41613 41.2071C1.41613 39.0426 1.41613 36.878 1.41613 34.7135C0.384434 34.5719 0.0607659 34.3292 0.0405366 33.7627C0.0203074 33.1761 0.384434 32.9131 1.45659 32.731C1.45659 32.549 1.45659 32.3871 1.45659 32.2051C1.45659 29.2314 1.43636 26.2374 1.45659 23.2637C1.47681 20.8362 2.28599 18.6919 4.16731 17.0736C4.7135 16.6083 5.36083 16.2644 5.90702 15.9003C5.82611 15.3743 5.6845 14.8281 5.70473 14.2819C5.74519 13.3109 6.23069 12.5422 7.10055 12.0972C7.46468 11.9151 7.54559 11.6926 7.54559 11.3082C7.52536 8.53684 7.54559 5.78566 7.54559 3.01425C7.54559 1.15316 8.71889 -0.0201416 10.5598 -0.0201416C15.698 -0.0201416 20.8362 -0.0201416 25.9745 -0.0201416C31.0115 -0.0201416 36.0486 -0.0201416 41.0857 -0.0201416C42.6636 -0.0201416 43.7964 0.869946 44.0594 2.32645C44.0999 2.54898 44.0999 2.7715 44.0999 2.97379C44.0999 12.5422 44.0999 22.1309 44.0999 31.6993C44.0999 31.9016 44.0999 32.1039 44.0999 32.286C44.5045 32.3467 44.8484 32.3871 45.1923 32.4681C46.7297 32.8929 47.8625 34.3898 47.8625 36.0082C47.8625 36.7971 47.8625 37.5861 47.8625 38.375C48.0446 38.4559 48.2671 38.4762 48.348 38.5773C48.5301 38.8403 48.7931 39.1639 48.7526 39.4269C48.7121 39.7101 48.3885 39.9529 48.1862 40.2159C48.085 40.3575 47.8827 40.4788 47.8827 40.6205C47.8625 41.7331 47.8625 42.8457 47.8625 43.9785C48.3885 44.1201 48.8133 44.3831 48.7931 44.99C48.7728 45.5564 48.3885 45.7991 47.8625 45.9205C47.8625 47.2354 47.8625 48.5503 47.8625 49.8652C47.8625 51.2004 47.1343 51.9691 45.7789 51.9893C44.8079 52.0095 43.8167 51.9893 42.8457 51.9893C42.6636 51.9893 42.4815 51.9893 42.2388 51.9893C42.2388 52.4748 42.2388 52.8996 42.2388 53.3244C42.2388 54.9428 41.0857 56.1565 39.4674 56.1768C37.0196 56.197 34.5719 56.1768 32.1444 56.1768C31.9421 56.1768 31.7398 56.1768 31.5375 56.1768C31.497 56.8241 31.4364 57.431 31.3959 58.0378C37.4849 58.0378 43.5941 58.0378 49.7641 58.0378C49.8248 56.9657 49.8652 55.934 49.9259 54.9023C50.2293 48.6312 50.5126 42.3804 50.816 36.1093C51.0385 31.4566 51.2408 26.8241 51.4633 22.1714C51.6252 18.6515 51.787 15.1316 51.9691 11.6117C51.9893 11.3285 51.9286 11.106 51.7061 10.8632C51.524 10.6407 51.4229 10.1754 51.524 9.91243C51.6049 9.66968 51.9893 9.36624 52.2523 9.34601C53.8908 9.28532 55.5294 9.30555 57.1478 9.34601C57.4107 9.34601 57.7951 9.66968 57.876 9.91243C57.9569 10.1956 57.8558 10.6407 57.6737 10.8632C57.4714 11.106 57.431 11.288 57.431 11.5712C57.6939 16.224 57.9569 20.8565 58.2199 25.5092C58.5436 31.1532 58.8672 36.8174 59.1909 42.4613C59.4539 46.932 59.6966 51.4229 59.9394 55.8935C59.9798 56.6623 60.0203 57.4512 60.0203 58.2199C60.0405 59.1909 59.3123 59.8989 58.3413 59.8989C57.2287 59.8989 56.1161 59.8989 55.0034 59.8989C44.6865 59.8989 34.3696 59.8989 24.0527 59.8989C23.8504 59.8989 23.6683 59.8989 23.4256 59.8989C24.0527 59.2921 24.6393 58.7054 25.226 58.1592C25.3069 58.0783 25.5092 58.0783 25.6508 58.0783C26.5409 58.0783 27.431 58.0783 28.3211 58.0783C29.2111 58.0783 29.555 57.7344 29.555 56.8646C29.555 55.2664 29.555 53.6683 29.555 52.0702C29.555 51.9084 29.555 51.7465 29.555 51.5443C28.9279 51.5443 28.3413 51.5443 27.6939 51.5443C27.6939 50.9171 27.6939 50.3103 27.6939 49.6427C28.2806 49.6427 28.8875 49.6427 29.5348 49.6427C29.5348 47.4377 29.5348 45.2934 29.5348 43.0884C28.3211 43.0884 27.1275 43.0682 25.934 43.0884C25.5699 43.0884 25.3473 42.9873 25.1855 42.6434C24.963 42.1781 24.6798 41.7331 24.3966 41.2273C26.1161 41.2273 27.7951 41.2273 29.5146 41.2273C29.5146 36.2105 29.5146 31.2341 29.5146 26.2374C26.0958 26.2374 22.6973 26.2374 19.2583 26.2374C19.2583 27.5523 19.2583 28.8268 19.2583 30.1215C19.2381 30.1215 19.1977 30.1417 19.1774 30.1417C19.137 30.0405 19.0965 29.9394 19.056 29.8383C18.8133 28.847 18.4896 27.8962 17.5186 27.3501C17.4175 27.2894 17.3972 27.0871 17.377 26.9657C17.3568 26.7432 17.377 26.5004 17.377 26.2577C16.7297 26.2577 16.143 26.2577 15.4755 26.2577C15.7384 27.1275 15.2125 27.6737 14.7674 28.3211C14.3629 28.9077 14.2415 29.6966 13.9987 30.3844C13.8976 30.7081 13.8167 31.0318 13.6144 31.3352C13.6144 29.6562 13.6144 27.9772 13.6144 26.2172C12.7243 26.2172 11.8747 26.2172 11.0453 26.2172C10.6204 26.2172 10.1956 26.2374 9.79104 26.1768C9.26508 26.1161 8.94141 25.7519 8.92118 25.2867C8.90095 24.8012 9.26508 24.3966 9.79104 24.3359C10.2159 24.2954 10.6407 24.3157 11.0453 24.3157C11.8747 24.3157 12.6838 24.3157 13.5739 24.3157C13.6953 22.5557 13.4728 20.9171 12.4411 19.4404C10.762 17.0331 7.62651 16.5679 5.36083 18.4492C4.10662 19.4809 3.45928 20.9171 3.35814 22.5153C3.25699 24.255 3.29745 25.9947 3.27722 27.7142C3.27722 29.1909 3.27722 30.6879 3.27722 32.1646C3.27722 32.3467 3.27722 32.5287 3.27722 32.7715C6.63528 32.8322 9.91242 32.8322 13.2502 32.8322ZM26.8443 15.9205C30.4249 17.64 31.5173 20.6946 31.4364 24.3359C32.4478 24.4573 32.8119 24.7405 32.8119 25.3271C32.8119 25.9138 32.468 26.1565 31.4566 26.3184C31.4566 31.2948 31.4566 36.2712 31.4566 41.2476C32.3871 41.3285 32.7513 41.5712 32.8119 42.1376C32.8524 42.7243 32.549 42.967 31.4566 43.23C31.4566 45.3743 31.4566 47.5186 31.4566 49.6629C32.468 49.8045 32.8119 50.0675 32.8119 50.6542C32.8119 51.2408 32.4478 51.5038 31.4566 51.6252C31.4566 52.5355 31.4566 53.4458 31.4566 54.3966C32.3264 54.3966 33.1558 54.3966 33.965 54.3966C35.6845 54.3966 37.404 54.3966 39.1235 54.3966C39.791 54.3966 40.2159 54.1538 40.2765 53.6481C40.3372 53.1424 40.2968 52.6164 40.2968 52.0702C40.054 52.0702 39.872 52.0702 39.6899 52.0702C38.6987 52.0702 37.7074 52.0904 36.7162 52.0702C35.4215 52.05 34.6933 51.2813 34.6933 50.0068C34.6933 48.6717 34.6933 47.3568 34.6933 46.0217C34.1673 45.9003 33.783 45.6373 33.7627 45.0911C33.7425 44.464 34.1673 44.2213 34.6933 44.0797C34.6933 42.967 34.6933 41.8949 34.6933 40.8227C34.6933 40.5395 34.673 40.3777 34.3291 40.2766C33.9448 40.1754 33.6818 39.8113 33.783 39.4269C33.8639 39.1235 34.1268 38.8605 34.3291 38.5975C34.3898 38.5166 34.5719 38.4964 34.6933 38.4559C34.6933 37.6468 34.6933 36.878 34.6933 36.1093C34.7135 34.7135 35.3204 33.6211 36.5139 32.9536C37.0803 32.6299 37.7479 32.5085 38.4155 32.286C38.4155 32.2658 38.4357 32.1646 38.4357 32.0635C38.4357 23.6279 38.4357 15.2125 38.4357 6.77689C38.4357 6.02841 38.0918 5.70474 37.2826 5.70474C33.6818 5.70474 30.0608 5.70474 26.46 5.70474C25.6306 5.70474 25.3069 6.02841 25.3069 6.87804C25.3069 8.33454 25.3271 9.77082 25.3069 11.2273C25.3069 11.6926 25.3271 12.077 25.8733 12.2388C26.0554 12.2995 26.2172 12.4613 26.3386 12.6029C27.2894 13.5335 27.431 14.6663 26.8443 15.9205ZM42.1983 32.3467C42.1983 32.1039 42.1983 31.9219 42.1983 31.7196C42.1983 22.2118 42.1983 12.7041 42.1983 3.19631C42.1983 3.05471 42.1983 2.93333 42.1983 2.79173C42.1579 2.30622 41.8747 1.98256 41.3892 1.92187C41.2071 1.90164 41.025 1.90164 40.843 1.90164C30.8092 1.90164 20.7958 1.90164 10.762 1.90164C10.6609 1.90164 10.5598 1.90164 10.4586 1.90164C9.73035 1.9421 9.42692 2.26577 9.42692 2.97379C9.42692 5.80589 9.42692 8.63798 9.42692 11.4701C9.42692 11.7735 9.50783 11.9556 9.79104 12.0972C10.5395 12.4613 10.9846 13.0682 11.1869 13.8571C11.3892 14.5854 11.2273 15.2732 10.9441 15.961C14.5045 17.6805 15.6171 20.7149 15.5159 24.4168C15.961 24.4168 16.3656 24.4168 16.7701 24.4168C16.9522 24.4168 17.1343 24.4168 17.377 24.4168C17.2759 20.6946 18.4087 17.6602 21.9488 15.961C21.261 14.1201 21.6252 13.0682 23.284 11.996C23.4053 11.9151 23.4863 11.6724 23.4863 11.4903C23.5065 9.93266 23.4863 8.35477 23.4863 6.79712C23.4863 4.97649 24.6393 3.78296 26.4802 3.78296C30.1012 3.78296 33.7223 3.78296 37.3433 3.78296C39.2044 3.78296 40.3575 4.97649 40.3575 6.83758C40.3575 15.1518 40.3575 23.466 40.3575 31.76C40.3575 31.9623 40.3575 32.1444 40.3575 32.3669C40.9643 32.3467 41.5308 32.3467 42.1983 32.3467ZM51.5847 58.1188C53.8099 58.1188 55.9542 58.1188 58.139 58.1188C57.8962 53.7492 57.6333 49.4 57.3905 45.0507C55.6306 45.0507 53.9111 45.0507 52.1916 45.0507C51.9893 49.4202 51.787 53.7492 51.5847 58.1188ZM57.2691 43.1087C56.9657 37.4849 56.642 31.9016 56.3386 26.2981C55.2462 26.2981 54.1943 26.2981 53.0817 26.2981C52.8187 31.9219 52.5557 37.5051 52.2927 43.1087C53.9718 43.1087 55.5901 43.1087 57.2691 43.1087ZM19.2583 24.3359C22.6973 24.3359 26.1161 24.3359 29.5348 24.3359C29.6157 23.1424 29.5146 22.0298 29.1302 20.9171C28.3817 18.7728 26.6016 17.3973 24.4775 17.3568C22.4546 17.2961 20.6137 18.5706 19.7843 20.6339C19.2786 21.8275 19.1572 23.0412 19.2583 24.3359ZM45.9205 45.9812C42.785 45.9812 39.7101 45.9812 36.615 45.9812C36.615 47.377 36.615 48.7526 36.615 50.1282C39.7304 50.1282 42.8254 50.1282 45.9205 50.1282C45.9205 48.7324 45.9205 47.377 45.9205 45.9812ZM45.9407 38.4155C45.9407 37.6265 45.9407 36.878 45.9407 36.1296C45.9407 35.0169 45.2529 34.2482 44.1403 34.228C42.2186 34.1875 40.2968 34.2078 38.375 34.228C37.4849 34.2482 36.7567 34.7337 36.6555 35.5227C36.5341 36.4735 36.6353 37.4445 36.6353 38.4155C39.7506 38.4155 42.8254 38.4155 45.9407 38.4155ZM45.9205 40.3575C42.785 40.3575 39.7101 40.3575 36.6353 40.3575C36.6353 41.6117 36.6353 42.8254 36.6353 44.0392C39.7506 44.0392 42.8254 44.0392 45.9205 44.0392C45.9205 42.8254 45.9205 41.6117 45.9205 40.3575ZM53.7897 11.2678C53.5874 15.6575 53.3851 19.9866 53.1828 24.3561C54.2145 24.3561 55.2057 24.3561 56.2374 24.3561C55.9947 19.9866 55.7519 15.6373 55.489 11.2678C54.9023 11.2678 54.3966 11.2678 53.7897 11.2678ZM8.43568 13.6144C7.92995 13.6144 7.50513 14.0392 7.50513 14.5449C7.50513 15.0304 7.95018 15.4755 8.45591 15.4755C8.96164 15.4755 9.38646 15.0304 9.38646 14.5449C9.38646 14.0392 8.94141 13.6144 8.43568 13.6144ZM24.3966 15.4755C24.9023 15.4755 25.3271 15.0507 25.3069 14.5449C25.3069 14.019 24.9023 13.6346 24.3763 13.6346C23.8504 13.6346 23.4458 14.0392 23.4458 14.5652C23.466 15.0507 23.8706 15.4755 24.3966 15.4755Z" fill="#3498db"/>
<path d="M7.97027 51.0788C7.95004 48.9345 8.65807 46.7498 9.66953 44.6459C10.3573 43.2299 11.1058 41.8138 11.8745 40.4382C13.7154 37.2218 15.0303 33.7828 15.9811 30.2022C16.062 29.8988 16.1631 29.5953 16.3047 29.3121C16.4666 29.0087 16.7093 28.9885 16.8711 29.3121C17.0127 29.5953 17.1139 29.8988 17.1948 30.2022C18.004 33.5603 19.3796 36.6958 21.18 39.6493C22.3735 41.6115 23.5266 43.594 24.5178 45.6372C25.509 47.6803 25.9541 49.8853 25.7113 52.2117C25.2258 56.743 21.7464 59.919 17.1746 59.9595C14.2818 59.9797 11.8138 59.0896 9.89205 56.8846C8.49623 55.327 7.97027 53.4052 7.97027 51.0788ZM16.6082 34.6729C16.5272 34.8347 16.4868 34.9156 16.4666 34.9966C15.5967 37.5252 14.3627 39.8718 13.068 42.1982C12.2791 43.6142 11.5711 45.091 10.8833 46.5879C10.0741 48.3681 9.73022 50.2494 9.89205 52.1914C10.0134 53.5873 10.4989 54.8617 11.4902 55.8732C13.3715 57.8354 15.7181 58.4018 18.3277 57.977C21.2002 57.5117 23.0411 55.7113 23.6479 52.8792C24.0323 51.1193 23.8907 49.3998 23.304 47.7005C22.5151 45.4349 21.2407 43.4524 20.0471 41.389C19.0154 39.5886 18.0849 37.7477 17.1139 35.9271C16.9521 35.563 16.8105 35.1382 16.6082 34.6729Z" fill="#3498db"/>
<path d="M53.4053 0.971188C53.3648 1.09256 53.3243 1.27463 53.2434 1.43646C52.94 1.98265 52.9602 2.50861 53.203 3.07503C53.466 3.70214 53.6885 4.32925 53.8705 4.97658C54.0931 5.74529 53.8705 6.45332 53.4053 7.08043C53.0816 7.50524 52.5354 7.62662 52.1106 7.36364C51.6858 7.10065 51.5442 6.55446 51.8476 6.06896C52.0904 5.70484 52.0904 5.36094 51.9488 4.97658C51.6858 4.20787 51.3823 3.45939 51.1801 2.69068C50.998 1.90173 51.261 1.15325 51.6656 0.465456C51.8881 0.0810999 52.2522 -0.0605049 52.6972 0.0406414C53.1423 0.162017 53.3446 0.485685 53.4053 0.971188Z" fill="#3498db"/>
<path d="M57.8153 5.60345C57.5725 6.12941 57.3905 6.65537 57.087 7.14087C56.824 7.56569 56.2374 7.62637 55.8328 7.38362C55.408 7.12064 55.2664 6.59468 55.5496 6.14964C55.8328 5.72482 55.8126 5.34047 55.6507 4.91565C55.4687 4.45038 55.2866 3.98511 55.1046 3.51983C54.7202 2.48814 54.8416 1.49691 55.3675 0.56636C55.6507 0.0606288 56.1767 -0.0809761 56.6622 0.161775C57.1073 0.384297 57.2893 0.950716 57.0263 1.41599C56.6622 2.06333 56.7431 2.64997 57.0061 3.29731C57.3095 3.98511 57.5321 4.75382 57.8153 5.60345Z" fill="#3498db"/>
<path d="M19.9462 32.8523C21.079 32.8523 22.1309 32.8321 23.1828 32.8726C23.6279 32.8928 23.9111 33.3176 23.9111 33.7627C23.9111 34.2077 23.6279 34.6325 23.1828 34.6528C22.3939 34.7134 21.605 34.6932 20.816 34.6932C20.7351 34.6932 20.634 34.6123 20.6137 34.5314C20.3912 33.9852 20.1687 33.439 19.9462 32.8523Z" fill="#3498db"/>
<path d="M7.03977 25.3068C7.03977 25.8125 6.63518 26.2575 6.12945 26.2575C5.60349 26.2778 5.15845 25.8327 5.15845 25.3068C5.15845 24.801 5.58326 24.3762 6.08899 24.3762C6.59473 24.3762 7.01954 24.801 7.03977 25.3068Z" fill="#3498db"/>
<path d="M27.6535 33.7426C27.6738 34.2483 27.2692 34.6732 26.7432 34.6934C26.2173 34.7136 25.7722 34.2888 25.7722 33.7628C25.7722 33.2571 26.1768 32.8323 26.7028 32.8323C27.2287 32.8323 27.6535 33.2166 27.6535 33.7426Z" fill="#3498db"/>
<path d="M11.7534 50.8767C11.7938 49.3595 12.158 47.9232 12.7446 46.5274C12.9671 46.0217 13.4729 45.8396 13.9584 46.0217C14.4439 46.2037 14.6259 46.6892 14.4641 47.2354C14.1809 48.3278 13.8572 49.4 13.6549 50.4924C13.4931 51.3622 13.6145 52.1916 14.3225 52.8794C14.7069 53.2638 14.6462 53.729 14.282 54.0932C13.9381 54.4371 13.4122 54.4775 12.9874 54.1336C12.1377 53.4458 11.8343 52.495 11.7534 51.4634C11.7331 51.2813 11.7534 51.079 11.7534 50.8767Z" fill="#3498db"/>
</g>
<defs>
<clipPath id="clip0">
<rect width="59.9798" height="60" fill="white"/>
</clipPath>
</defs>
</svg>
