<svg width="61" height="60" viewBox="0 0 61 60" fill="none" xmlns="http://www.w3.org/2000/svg">
<path d="M23.0213 21.0657C23.0213 19.6336 23.043 18.2667 22.9996 16.9214C22.9996 16.7478 22.7826 16.5309 22.609 16.4007C19.2893 14.0139 17.9657 9.76117 19.3978 5.89897C19.81 4.77069 20.5695 4.5971 21.4374 5.46501C23.0864 7.11404 24.7354 8.76307 26.3194 10.3687C27.2741 9.414 28.2071 8.481 29.2703 7.41781C29.1184 7.33102 28.8797 7.20083 28.6844 7.00555C27.209 5.55181 25.7335 4.07636 24.2798 2.60091C23.4119 1.733 23.5854 0.973579 24.7354 0.561322C30.8759 -1.67355 37.2767 3.05656 36.8862 9.58759C36.7343 12.2347 35.5192 14.3828 33.5013 16.0752C32.9155 16.5526 32.8938 17.4205 33.4796 17.8978C34.6947 18.8742 35.9098 19.8506 37.1248 20.8053C37.2767 20.9355 37.4937 21.044 37.689 21.044C39.0559 21.0657 40.4446 21.044 41.8116 21.044C41.8549 21.044 41.8983 21.0223 42.0285 20.9789C40.5748 19.0695 38.7956 17.6158 36.6475 16.5526C36.9513 15.9233 37.2333 15.3592 37.5371 14.7083C43.287 17.811 46.6501 22.4977 47.0407 28.9854C47.453 36.0154 44.3068 41.288 38.3399 45.02C37.9927 44.3908 37.689 43.8266 37.3418 43.2191C39.1861 42.1776 40.7267 40.854 42.0502 39.1182C38.9908 39.1182 36.0616 39.1182 33.0674 39.1182C33.0674 40.3333 33.0674 41.5484 33.0891 42.7417C33.0891 42.8719 33.2626 43.0238 33.4145 43.1106C36.0616 44.6512 37.6239 46.9077 38.0144 49.9454C38.2097 51.4425 38.0144 52.8963 37.4503 54.3066C37.0814 55.2397 36.3003 55.4132 35.5843 54.6972C33.9787 53.1133 32.3947 51.5076 30.7891 49.902C30.7023 49.8152 30.6155 49.7284 30.5721 49.685C29.6391 50.618 28.7061 51.551 27.7514 52.5057C27.8165 52.5708 27.9467 52.7227 28.0769 52.8529C29.574 54.3717 31.0929 55.8689 32.59 57.3877C33.523 58.3207 33.3494 59.0802 32.1127 59.4924C28.1203 60.8811 23.6722 59.3405 21.4591 55.8472C19.1808 52.2237 19.6581 47.7322 22.6741 44.6511C22.9345 44.3908 23.043 44.1087 23.043 43.7398C23.0213 42.3946 23.043 41.071 23.043 39.7258C23.043 39.5305 23.043 39.3352 23.043 39.0314C22.2836 39.0314 21.5459 39.0965 20.8515 39.0314C18.4214 38.8145 17.2714 36.3192 18.6167 34.3013C18.6601 34.2362 18.7251 34.1494 18.7902 34.041C17.7704 32.7174 17.7704 31.3721 18.7902 30.0269C17.7704 28.6816 17.7704 27.358 18.7902 26.0128C18.2478 25.3185 17.944 24.559 18.0525 23.6911C18.2695 22.0638 19.4629 21.0223 21.1987 21.0006C21.7628 21.0657 22.3704 21.0657 23.0213 21.0657ZM24.0194 35.1258C23.759 35.1258 23.542 35.1258 23.3251 35.1258C22.5222 35.1258 21.7411 35.1258 20.9383 35.1475C20.4176 35.1692 20.0704 35.5598 20.0487 36.0588C20.027 36.5796 20.3525 37.0135 20.8732 37.1003C21.0034 37.122 21.1553 37.122 21.3072 37.122C26.3844 37.122 31.4617 37.122 36.539 37.122C36.7126 37.122 36.8862 37.1003 37.038 37.1003C37.038 32.4136 37.038 27.792 37.038 23.127C36.8645 23.1053 36.6909 23.1053 36.539 23.1053C31.4617 23.1053 26.3844 23.1053 21.3072 23.1053C21.177 23.1053 21.0468 23.1053 20.9383 23.127C20.4176 23.1921 20.0704 23.5609 20.0487 24.06C20.027 24.5807 20.3742 25.0147 20.8949 25.0798C21.1336 25.1015 21.3723 25.1015 21.5892 25.1015C22.3921 25.1015 23.1949 25.1015 23.9977 25.1015C23.9977 25.8175 23.9977 26.4467 23.9977 27.1411C22.9562 27.1411 21.9581 27.1194 20.96 27.1411C20.4176 27.1628 20.0487 27.5533 20.027 28.0741C20.0053 28.6165 20.3742 29.0505 20.9383 29.0939C21.1987 29.1156 21.4808 29.1156 21.7411 29.1156C22.5006 29.1156 23.2383 29.1156 23.9977 29.1156C23.9977 29.8316 23.9977 30.4608 23.9977 31.1335C23.759 31.1335 23.5854 31.1335 23.3902 31.1335C22.5873 31.1335 21.8062 31.1118 21.0034 31.1552C20.3308 31.1768 19.8968 31.7627 20.0487 32.3702C20.2006 32.891 20.5695 33.1296 21.1119 33.1296C22.0666 33.1296 23.0213 33.1296 23.9977 33.1296C24.0194 33.7806 24.0194 34.4098 24.0194 35.1258ZM31.0495 21.0657C31.0495 19.395 31.0712 17.7676 31.0495 16.1403C31.0495 15.5979 31.2447 15.229 31.6787 14.9252C34.0438 13.2762 35.1286 11.0196 34.7815 8.15553C34.456 5.44332 32.8938 3.59901 30.4202 2.53582C29.2486 2.01507 28.0118 1.94998 26.6448 2.16696C26.8401 2.36224 26.9486 2.49242 27.0788 2.62261C28.4457 3.98957 29.8127 5.35652 31.1797 6.72348C31.8523 7.39611 31.8523 7.85177 31.2013 8.5244C29.9212 9.82626 28.6193 11.1064 27.3392 12.4083C26.6882 13.0375 26.1892 13.0375 25.5382 12.4083C24.1496 11.0413 22.7826 9.65268 21.394 8.26402C21.2638 8.13384 21.1336 8.02535 20.9817 7.89516C20.4393 10.6725 21.7628 13.58 24.2581 15.0771C24.8439 15.4243 25.0826 15.8582 25.0609 16.5309C25.0175 17.8761 25.0392 19.1997 25.0609 20.545C25.0609 20.7185 25.0826 20.8921 25.0826 21.0874C27.0788 21.0657 29.0099 21.0657 31.0495 21.0657ZM35.7362 52.3756C35.8447 52.3105 35.9532 52.2454 36.0616 52.1803C36.0616 51.7029 36.105 51.2256 36.0616 50.7482C35.8447 47.9492 34.4994 45.9096 31.9391 44.7162C31.2881 44.4125 31.0278 43.9785 31.0495 43.2842C31.0712 42.1776 31.0495 41.071 31.0495 39.9861C31.0495 39.7258 31.0495 39.4654 31.0495 39.205C29.0099 39.205 27.0354 39.205 25.0392 39.205C25.0392 40.9842 25.0175 42.7201 25.0392 44.4559C25.0392 45.02 24.8656 45.4323 24.4534 45.8228C22.2402 47.8407 21.4808 50.3577 22.3704 53.2001C23.2383 55.9991 25.2779 57.6047 28.1854 58.0387C28.8146 58.1255 29.4872 58.0604 30.1165 58.0604C29.9863 57.7566 29.8561 57.6264 29.7259 57.4745C28.3806 56.1293 27.0354 54.784 25.7118 53.4387C25.0175 52.7444 25.0175 52.2888 25.7118 51.5944C26.992 50.3143 28.2722 49.0341 29.5523 47.7539C30.2033 47.103 30.724 47.103 31.3966 47.7756C32.7636 49.1209 34.1088 50.4878 35.4541 51.8331C35.606 51.9633 35.6494 52.1803 35.7362 52.3756ZM39.121 23.1053C39.121 27.8354 39.121 32.457 39.121 37.122C40.2493 37.122 41.3559 37.0569 42.4625 37.1437C43.2219 37.2088 43.5257 36.8834 43.8077 36.2541C45.6521 31.9797 45.5653 27.7269 43.5908 23.5175C43.504 23.344 43.3304 23.1053 43.1785 23.1053C41.8116 23.0836 40.488 23.1053 39.121 23.1053ZM33.0891 21.0223C33.4145 21.0223 33.7183 21.0223 34.1305 21.0223C33.74 20.7185 33.4362 20.4799 33.0891 20.1761C33.0891 20.545 33.0891 20.7836 33.0891 21.0223Z" fill="#3498db"/>
<path d="M49.7095 46.0832C48.451 47.3417 47.301 48.5134 46.0426 49.7719C46.3246 50.2492 46.7369 50.9652 47.1492 51.6813C47.4312 52.1803 47.735 52.6794 48.0171 53.1784C48.3642 53.8076 48.2557 54.3284 47.6699 54.6755C45.9558 55.6736 44.2417 56.6717 42.5058 57.6481C42.0285 57.9302 41.4861 57.8217 41.204 57.3878C40.6615 56.5199 40.1625 55.6302 39.62 54.6972C40.2059 54.3501 40.7483 54.0463 41.3342 53.6991C41.6813 54.2633 42.0068 54.8057 42.3757 55.435C43.5256 54.784 44.6539 54.1331 45.8473 53.4388C45.2615 52.419 44.6973 51.4426 44.1332 50.4662C43.3521 49.1209 43.3738 49.0341 44.5671 48.0577C45.9558 46.9077 47.2577 45.6493 48.3425 44.1955C48.7765 43.6097 49.2538 43.5229 49.9048 43.8918C51.0548 44.5427 52.183 45.2153 53.3764 45.9097C54.049 44.738 54.7 43.6097 55.3726 42.438C54.2443 41.7871 53.1594 41.1578 52.0529 40.5069C51.2066 40.0079 51.0765 39.6824 51.4453 38.7711C52.183 36.9485 52.6604 35.0825 52.9208 33.1297C53.0076 32.4571 53.3547 32.1316 54.0274 32.1316C55.3726 32.1316 56.6962 32.1316 58.0848 32.1316C58.0848 30.7863 58.0848 29.4845 58.0848 28.1175C56.8481 28.1175 55.633 28.1175 54.4179 28.1175C53.2896 28.1175 53.051 27.9222 52.8991 26.8373C52.617 24.9496 52.1179 23.127 51.4236 21.3695C51.1199 20.5884 51.25 20.2195 51.9661 19.7856C53.0943 19.1346 54.2009 18.4837 55.3726 17.8111C54.7 16.6394 54.049 15.5111 53.3764 14.3394C52.2047 15.0121 51.0765 15.663 49.9699 16.3139C49.2321 16.7262 48.7982 16.6394 48.2991 15.9885C47.1492 14.4696 45.7605 13.1677 44.2851 11.9744C43.5039 11.3451 43.4388 10.998 43.9379 10.1301C44.5671 9.04518 45.1964 7.93859 45.8473 6.81031C44.6756 6.13768 43.569 5.48675 42.3757 4.81412C41.6813 6.00749 40.987 7.20087 40.271 8.43764C39.7068 8.11217 39.1427 7.78671 38.5352 7.43954C38.6653 7.20087 38.7738 7.00559 38.904 6.81031C39.62 5.55184 40.3361 4.31507 41.0738 3.0566C41.4427 2.42736 41.9634 2.27548 42.5926 2.64434C44.2634 3.59904 45.9558 4.55374 47.6048 5.55184C48.2774 5.9424 48.3859 6.44145 47.9954 7.11408C47.3227 8.30745 46.6284 9.47913 46.0426 10.4989C47.2794 11.7357 48.451 12.9291 49.7095 14.1875C50.6425 13.6451 51.7708 12.9942 52.9208 12.3215C53.8104 11.8008 54.266 11.931 54.7651 12.8206C55.6547 14.3611 56.5443 15.9234 57.4556 17.4639C57.9329 18.3101 57.8245 18.7658 56.9782 19.2431C55.85 19.9157 54.7 20.5667 53.5717 21.2176C54.0057 22.8449 54.4396 24.4506 54.8953 26.1213C55.0037 26.1213 55.199 26.143 55.3943 26.143C56.5443 26.143 57.716 26.143 58.8659 26.143C59.799 26.143 60.1461 26.4902 60.1461 27.4232C60.1461 29.2675 60.1461 31.1118 60.1461 32.9561C60.1461 33.824 59.799 34.1712 58.931 34.1712C57.5858 34.1712 56.2188 34.1712 54.8953 34.1712C54.4613 35.8419 54.0273 37.4475 53.5717 39.1183C54.6349 39.7475 55.7415 40.3767 56.8698 41.0277C57.8679 41.5918 57.9763 41.9824 57.3905 43.0022C56.5009 44.5427 55.633 46.0615 54.7434 47.6021C54.2877 48.4049 53.8104 48.5351 53.0076 48.0577C51.8359 47.32 50.6859 46.6474 49.7095 46.0832Z" fill="#3498db"/>
<path d="M5.22916 26.0779C5.68481 24.4072 6.09707 22.8233 6.55272 21.1525C5.46783 20.5233 4.33955 19.8724 3.18957 19.1997C2.25657 18.679 2.14808 18.2884 2.69052 17.3771C3.60183 15.7932 4.51313 14.2093 5.42444 12.647C5.83669 11.9527 6.35744 11.8008 7.05177 12.2131C8.24514 12.8857 9.41682 13.58 10.3932 14.1442C11.63 12.9074 12.8234 11.7357 14.0818 10.4772C13.5828 9.60933 12.9319 8.50275 12.3026 7.39616C11.6951 6.33297 11.7819 5.98581 12.8451 5.35657C14.0601 4.64055 15.2752 3.94622 16.5771 3.2085C16.9025 3.77264 17.228 4.33678 17.5752 4.94432C16.4903 5.57355 15.4271 6.20279 14.2988 6.85372C14.9064 7.91691 15.5139 8.9584 16.1214 9.99989C16.7507 11.1065 16.7073 11.3235 15.7092 12.1263C14.2554 13.2979 12.9319 14.5998 11.8036 16.097C11.3696 16.6828 10.8923 16.7696 10.2413 16.4007C9.09136 15.7498 7.96307 15.0772 6.7697 14.3828C6.09707 15.5328 5.44614 16.6611 4.75181 17.8545C5.70651 18.3969 6.63951 18.9611 7.57252 19.4818C8.87438 20.2195 9.13475 20.3063 8.50552 22.0204C7.94138 23.5827 7.61591 25.2534 7.24705 26.8807C7.03007 27.8788 6.81309 28.1392 5.7933 28.1392C4.55653 28.1392 3.29806 28.1392 2.01789 28.1392C2.01789 29.4845 2.01789 30.7863 2.01789 32.1533C3.31976 32.1533 4.57823 32.1533 5.83669 32.1533C6.81309 32.1533 7.09517 32.392 7.22535 33.3467C7.48572 35.2778 8.00647 37.1221 8.7225 38.923C9.02626 39.6607 8.89608 40.0513 8.18005 40.4635C7.05177 41.1145 5.92349 41.7654 4.75181 42.4597C5.42444 43.6097 6.07537 44.738 6.748 45.9314C7.81119 45.3021 8.85268 44.7163 9.89417 44.1088C10.0461 44.022 10.1979 43.9135 10.3715 43.8484C10.8923 43.588 11.3696 43.6965 11.7168 44.1521C12.9319 45.7578 14.3856 47.1464 15.9478 48.4049C16.6205 48.9474 16.6639 49.3379 16.2299 50.0973C15.6007 51.1822 14.9714 52.2454 14.3639 53.3303C14.3422 53.352 14.3422 53.3954 14.3205 53.4822C15.4488 54.1331 16.5771 54.784 17.7271 55.4567C17.9006 55.1963 18.0308 54.9793 18.2044 54.7407C18.7686 55.0661 19.311 55.3699 19.9185 55.7387C19.5497 56.3463 19.2459 56.9538 18.8553 57.4963C18.5299 57.9302 18.0308 57.9519 17.5752 57.6915C15.8611 56.7151 14.1469 55.7388 12.4545 54.7407C11.8253 54.3718 11.7385 53.8727 12.1073 53.2218C12.78 52.0284 13.4743 50.8351 14.0601 49.837C12.8234 48.6002 11.6517 47.4285 10.3932 46.17C9.48192 46.6908 8.37533 47.32 7.26875 47.971C6.22725 48.5785 5.85839 48.47 5.27255 47.4502C4.38295 45.9097 3.49334 44.3908 2.62543 42.8503C2.16978 42.0692 2.29996 41.5918 3.08108 41.1362C4.25276 40.4635 5.42444 39.7909 6.55272 39.14C6.09707 37.4692 5.66311 35.8636 5.22916 34.1929C3.97069 34.1929 2.66882 34.1929 1.36696 34.1929C0.282071 34.1929 0 33.8891 0 32.8042C0 31.025 0 29.2241 0 27.4449C0 26.5553 0.347164 26.1864 1.23677 26.1864C2.56033 26.0779 3.8839 26.0779 5.22916 26.0779Z" fill="#3498db"/>
<path d="M20.0925 16.2272C20.5048 16.813 20.8736 17.3338 21.2642 17.8545C12.8672 23.8648 12.9322 36.5797 21.5896 42.5682C21.2208 43.089 20.8736 43.6314 20.4614 44.2173C15.9265 40.9409 13.3445 36.5797 13.0624 31.0467C12.737 24.9063 15.2322 20.0243 20.0925 16.2272Z" fill="#3498db"/>
<path d="M15.5791 17.7242C12.7584 21.0223 11.2829 24.8194 11.0226 29.0722C10.3716 29.0722 9.7207 29.0722 9.02637 29.0722C9.30844 24.2769 10.9358 20.0893 14.0602 16.4224C14.5593 16.8563 15.0366 17.2686 15.5791 17.7242Z" fill="#3498db"/>
<path d="M18.1825 14.4696C17.6617 14.9252 17.2061 15.3375 16.7721 15.7063C16.2948 15.2507 15.8391 14.8167 15.3184 14.3177C15.8391 13.8403 16.3599 13.3847 16.924 12.8856C17.3579 13.4498 17.7485 13.9488 18.1825 14.4696Z" fill="#3498db"/>
</svg>
