<svg width="60" height="60" viewBox="0 0 60 60" fill="none" xmlns="http://www.w3.org/2000/svg">
<g clip-path="url(#clip0)">
<path d="M15.4399 34.9022C15.4399 35.6564 15.4609 36.3897 15.4399 37.1438C15.419 37.7723 15.6285 38.2332 16.236 38.4846C16.8017 38.7151 17.2835 38.5894 17.7863 38.0866C18.3101 37.5628 18.8129 37.0391 19.2947 36.5572C20.6774 37.9399 22.0182 39.3017 23.4008 40.6843C22.9609 41.1243 22.4581 41.648 21.9344 42.1508C21.4944 42.5908 21.2221 43.0517 21.4735 43.6802C21.7249 44.2877 22.1229 44.5181 22.898 44.5181C23.6313 44.5181 24.3645 44.5181 25.1187 44.5181C25.1187 46.4665 25.1187 48.3519 25.1187 50.3422C24.3645 50.3422 23.5894 50.3212 22.8352 50.3631C22.5 50.3841 22.1229 50.4679 21.8715 50.6564C21.243 51.1383 21.2011 51.9553 21.7668 52.5419C22.3115 53.1285 22.898 53.6732 23.4427 54.1969C22.0601 55.5796 20.6983 56.9204 19.2947 58.324C18.8338 57.8422 18.2682 57.3184 17.7654 56.7528C17.3254 56.2919 16.8226 56.1662 16.257 56.3966C15.6913 56.6271 15.4399 57.067 15.4609 57.6746C15.4818 58.4288 15.4609 59.2039 15.4609 60C13.5126 60 11.6061 60 9.63687 60C9.63687 59.2248 9.61592 58.4707 9.63687 57.7165C9.65782 57.1089 9.42738 56.669 8.88268 56.4176C8.31704 56.1662 7.81425 56.2709 7.3324 56.7737C6.80866 57.2975 6.28492 57.8422 5.78212 58.345C4.39944 56.9623 3.05866 55.6215 1.65503 54.2179C2.13687 53.757 2.63967 53.2332 3.16341 52.7304C3.60335 52.2905 3.8757 51.8296 3.60335 51.1802C3.33101 50.5517 2.82821 50.3422 2.17877 50.3631C1.46648 50.3841 0.75419 50.3631 0 50.3631C0 48.4148 0 46.5084 0 44.5391C0.796089 44.5391 1.55028 44.5181 2.32542 44.5391C2.93296 44.56 3.37291 44.2877 3.60335 43.743C3.85475 43.1774 3.68715 42.6955 3.24721 42.2765C2.70251 41.7318 2.15782 41.2081 1.65503 40.7053C3.03771 39.3226 4.37849 37.9609 5.76117 36.5991C6.26397 37.081 6.80866 37.6047 7.3324 38.1704C7.7514 38.6313 8.23324 38.736 8.79888 38.5475C9.38548 38.338 9.63687 37.9399 9.63687 37.2486C9.63687 36.4944 9.63687 35.7612 9.63687 34.9651C11.5642 34.9022 13.4707 34.9022 15.4399 34.9022ZM19.3785 39.2388C18.2891 40.4748 16.9902 40.8938 15.5028 40.2653C13.9944 39.6369 13.4078 38.4008 13.5126 36.8086C12.8631 36.8086 12.2556 36.8086 11.6061 36.8086C11.6899 38.4008 11.1034 39.6578 9.59497 40.2653C8.08659 40.8729 6.78771 40.4539 5.76117 39.2807C5.30028 39.7416 4.86034 40.1816 4.39944 40.6424C5.57263 41.669 6.03352 42.9469 5.40503 44.4762C4.77654 45.9846 3.5405 46.5503 1.94832 46.4874C1.94832 47.1578 1.94832 47.7654 1.94832 48.4148C3.5824 48.331 4.79749 48.9176 5.40503 50.4469C6.01257 51.9553 5.55168 53.2332 4.44134 54.2179C4.90224 54.7207 5.30028 55.1606 5.74022 55.6424C6.80866 54.4064 8.10754 54.0084 9.61592 54.6369C11.1243 55.2653 11.6899 56.5014 11.6061 58.0726C12.2765 58.0726 12.8841 58.0726 13.5126 58.0726C13.4288 56.4385 14.0363 55.2235 15.5447 54.6159C17.0531 54.0084 18.352 54.4483 19.3156 55.5586C19.7975 55.0978 20.2374 54.6788 20.6983 54.2179C19.5042 53.1913 19.1061 51.8924 19.7137 50.3841C20.3422 48.8547 21.5782 48.31 23.1494 48.3938C23.1494 47.7234 23.1494 47.1159 23.1494 46.4874C21.5363 46.5503 20.3003 45.9846 19.6927 44.4553C19.0852 42.9469 19.5251 41.648 20.7402 40.6215C20.2793 40.1396 19.8394 39.7207 19.3785 39.2388Z" fill="#FFD93D"/>
<path d="M48.3724 4.73462C48.3724 5.824 48.3724 6.74579 48.3724 7.73043C49.357 7.73043 50.2997 7.70948 51.2425 7.73043C53.6517 7.77233 55.5372 8.77791 56.8989 10.7681C57.6112 11.8156 58.0092 12.9888 58.0092 14.2458C58.0302 20.9916 58.0092 27.7165 58.0092 34.4623C58.0092 34.567 57.9883 34.6718 57.9883 34.7975C57.3807 34.7975 56.7732 34.7975 56.1028 34.7975C56.1028 34.567 56.1028 34.3366 56.1028 34.1271C56.1028 27.6327 56.1028 21.1382 56.1028 14.6438C56.1028 12.2137 54.6363 10.3282 52.3109 9.7835C51.85 9.67875 51.3682 9.6578 50.9073 9.6578C49.6084 9.63685 48.3305 9.6578 47.0316 9.6578C46.843 9.6578 46.6545 9.6578 46.445 9.6578C46.424 9.38546 46.4031 9.15501 46.3821 8.79886C45.607 9.42735 44.8737 10.0139 44.0986 10.6215C44.8528 11.229 45.586 11.8156 46.3612 12.4441C46.3821 12.1299 46.4031 11.8785 46.424 11.6061C47.3039 11.6061 48.1419 11.6061 49.0008 11.6061C49.7969 11.6061 50.614 11.5852 51.4101 11.6271C52.8975 11.6899 54.1335 12.9469 54.1335 14.4134C54.1335 21.0963 54.1335 27.7793 54.1335 34.4623C54.1335 34.567 54.1126 34.6718 54.1126 34.8184C53.505 34.8184 52.8975 34.8184 52.2271 34.8184C52.2271 34.6089 52.2271 34.3785 52.2271 34.169C52.2271 27.7374 52.2271 21.3268 52.2271 14.8952C52.2271 13.8687 51.9129 13.5544 50.8863 13.5544C50.1112 13.5544 49.3151 13.5544 48.54 13.5754C48.4981 13.5754 48.4771 13.5963 48.3933 13.6382C48.3933 14.5391 48.3933 15.4818 48.3933 16.5922C45.8584 14.581 43.4492 12.6327 40.998 10.6843C43.4492 8.69411 45.8584 6.76674 48.3724 4.73462Z" fill="#FFD93D"/>
<path d="M5.76082 29.0364C5.48847 29.0364 5.25803 29.0364 4.88093 29.0364C5.53037 29.8534 6.11696 30.5867 6.74546 31.3618C7.353 30.5867 7.93959 29.8744 8.58903 29.0573C8.27478 29.0364 8.02339 29.0154 7.73009 28.9945C7.73009 28.8059 7.73009 28.6174 7.73009 28.4289C7.73009 23.799 7.73009 19.1691 7.73009 14.5601C7.73009 12.9051 8.96613 11.6272 10.6212 11.6272C12.8628 11.6062 15.0834 11.6272 17.367 11.6272C17.367 12.2557 17.367 12.8842 17.367 13.5545C16.9689 13.5545 16.5709 13.5545 16.1728 13.5545C14.455 13.5545 12.7161 13.5545 10.9982 13.5545C9.99266 13.5545 9.67842 13.8897 9.67842 14.8534C9.67842 18.7291 9.67842 22.6048 9.67842 26.4805C9.67842 26.6691 9.67842 26.8576 9.67842 27.109C10.6631 27.109 11.5848 27.109 12.6742 27.109C10.6631 29.623 8.75663 32.0113 6.78735 34.4833C4.83903 32.0532 2.91166 29.6439 0.942383 27.1719C1.94797 27.1719 2.86976 27.1719 3.85439 27.1719C3.87534 26.8995 3.89629 26.6691 3.89629 26.4596C3.89629 22.521 3.89629 18.5615 3.89629 14.623C3.89629 11.3339 5.94937 8.71516 9.15467 7.94002C9.53177 7.85622 9.90886 7.79337 10.286 7.79337C12.6323 7.77242 14.9996 7.79337 17.3879 7.79337C17.3879 8.42186 17.3879 9.0294 17.3879 9.69979C17.1784 9.69979 16.9689 9.69979 16.7594 9.69979C14.5388 9.67884 12.36 9.63694 10.1812 9.74169C7.66724 9.86739 5.76082 11.9833 5.76082 14.5182C5.73987 19.1272 5.76082 23.7361 5.76082 28.3451C5.76082 28.5336 5.76082 28.7431 5.76082 29.0364Z" fill="#FFD93D"/>
<path d="M19.3165 10.6634C19.2955 4.79749 24.0721 0 29.9589 0C35.8249 0 40.6223 4.75559 40.6223 10.6006C40.6433 16.4874 35.8877 21.264 30.0008 21.2849C24.114 21.3059 19.3374 16.5503 19.3165 10.6634ZM30.0218 1.92737C25.4128 1.84358 21.3695 5.71927 21.2648 10.3073C21.1601 15.2933 24.9101 19.2528 29.8751 19.3575C34.5679 19.4623 38.5693 15.5866 38.674 10.8729C38.7578 5.94972 34.9659 2.03212 30.0218 1.92737Z" fill="#FFD93D"/>
<path d="M49.3154 36.7877C55.1603 36.7667 59.9578 41.5642 59.9788 47.3882C59.9997 53.2751 55.2022 58.1145 49.3154 58.0935C43.4495 58.0726 38.6729 53.317 38.6729 47.472C38.652 41.6061 43.4495 36.7877 49.3154 36.7877ZM49.3782 38.736C44.6226 38.6941 40.6841 42.5488 40.6212 47.2625C40.5793 52.1648 44.4131 56.1243 49.2735 56.1452C54.05 56.1662 57.9886 52.3114 58.0305 47.5558C58.0723 42.6745 54.2386 38.7779 49.3782 38.736Z" fill="#FFD93D"/>
<path d="M30.9423 53.3171C30.9423 52.2696 30.9423 51.3478 30.9423 50.3632C29.6434 50.3632 28.4073 50.3632 27.1085 50.3632C27.1085 49.6928 27.1085 49.0643 27.1085 48.4148C29.0149 48.4148 30.9213 48.4148 32.8696 48.4148C32.8906 48.6662 32.8906 48.9176 32.9115 49.2528C33.6867 48.6243 34.4199 48.0587 35.195 47.4302C34.4199 46.8227 33.7076 46.2361 32.9115 45.6076C32.8906 45.9428 32.8696 46.1732 32.8487 46.4665C32.5973 46.4665 32.3668 46.4665 32.1154 46.4665C30.6071 46.4665 29.1196 46.4456 27.6112 46.4875C27.1294 46.4875 27.0037 46.3408 27.0456 45.9009C27.0875 45.4609 27.0456 45.0419 27.0456 44.5601C28.3445 44.5601 29.6015 44.5601 30.9004 44.5601C30.9004 43.5755 30.9004 42.6537 30.9004 41.5433C33.4143 43.5545 35.8235 45.4819 38.2956 47.4512C35.8445 49.3785 33.4562 51.3059 30.9423 53.3171Z" fill="#FFD93D"/>
<path d="M12.5698 54.2179C8.88268 54.2389 5.80307 51.2221 5.76117 47.5559C5.71927 43.764 8.73603 40.7053 12.5279 40.6634C16.236 40.6425 19.2947 43.6592 19.3366 47.3883C19.3575 51.1173 16.3408 54.176 12.5698 54.2179ZM12.5698 42.6118C9.88827 42.5908 7.73045 44.7277 7.7095 47.4092C7.68855 50.1118 9.84637 52.2905 12.5489 52.2905C15.1885 52.2905 17.3673 50.1327 17.3883 47.514C17.3883 44.7905 15.2723 42.6327 12.5698 42.6118Z" fill="#FFD93D"/>
<path d="M32.8706 15.4819C32.2002 15.4819 31.5927 15.4819 30.9433 15.4819C30.9433 16.1313 30.9433 16.7389 30.9433 17.3674C30.2938 17.3674 29.6863 17.3674 28.9949 17.3674C28.9949 16.8227 29.0159 16.2361 28.9949 15.6704C28.9949 15.5028 28.9111 15.2724 28.7854 15.2095C27.4866 14.6229 26.8371 13.2822 27.1095 11.6062C27.4028 11.6062 27.717 11.6062 28.0103 11.6062C28.3245 11.6062 28.6388 11.6062 28.953 11.6062C29.0787 12.2347 28.7435 12.9679 29.4139 13.3241C29.8329 13.5336 30.3567 13.5126 30.9014 13.6174C30.9014 13.1355 30.9223 12.8003 30.9014 12.4442C30.8595 11.9414 30.5243 11.669 29.9167 11.6062C28.8064 11.5224 27.9474 11.0615 27.4237 10.0559C27.2561 9.7207 27.0885 9.34361 27.0676 8.96651C27.0257 8.00283 27.0257 7.03914 27.0676 6.0964C27.0676 5.99165 27.2771 5.80311 27.4028 5.78216C27.9055 5.74026 28.4083 5.76121 28.974 5.76121C28.974 5.13272 28.974 4.52517 28.974 3.87573C29.6444 3.87573 30.2519 3.87573 30.9223 3.87573C30.9223 4.44137 30.9014 5.02797 30.9223 5.59361C30.9223 5.74026 31.0061 5.9707 31.1109 6.0126C32.5983 6.74584 32.9963 8.00283 32.8287 9.59501C32.2002 9.59501 31.5927 9.59501 30.9642 9.59501C30.7966 9.02936 31.1737 8.27517 30.5033 7.93998C30.0843 7.73048 29.5606 7.75143 28.9949 7.64668C28.9949 8.10758 28.953 8.46372 28.9949 8.79892C29.0578 9.30171 29.372 9.59501 29.8958 9.63691C30.9014 9.69976 31.8022 10.035 32.305 10.9567C32.5773 11.4595 32.7659 12.0461 32.8078 12.6118C32.9335 13.5545 32.8706 14.4763 32.8706 15.4819Z" fill="#FFD93D"/>
<path d="M51.4529 41.0404C51.9767 41.4385 52.4585 41.7946 53.0032 42.1927C52.4585 42.9259 51.9348 43.6173 51.411 44.3295C51.1387 44.7066 50.8244 45.0628 50.573 45.4608C50.4054 45.7122 50.3216 46.0265 50.154 46.4245C50.9292 46.4245 51.5577 46.4245 52.2071 46.4245C52.2071 47.0949 52.2071 47.7025 52.2071 48.3519C51.5786 48.3519 50.9711 48.3519 50.3216 48.3519C50.3216 49.0223 50.3216 49.6298 50.3216 50.3002C50.9501 50.3002 51.5577 50.3002 52.2071 50.3002C52.2071 50.9706 52.2071 51.5782 52.2071 52.2276C51.5786 52.2276 50.9711 52.2276 50.3007 52.2276C50.3007 52.898 50.3007 53.5055 50.3007 54.134C49.6512 54.134 49.0437 54.134 48.3733 54.134C48.3733 53.5055 48.3733 52.898 48.3733 52.2485C47.7029 52.2485 47.0954 52.2485 46.4459 52.2485C46.4459 51.5991 46.4459 50.9706 46.4459 50.3002C47.0744 50.3002 47.682 50.3002 48.3105 50.3002C48.3105 49.6508 48.3105 49.0432 48.3105 48.3728C47.7029 48.3728 47.0954 48.3728 46.425 48.3728C46.425 47.7025 46.425 47.1159 46.425 46.4455C47.0325 46.4455 47.661 46.4455 48.4571 46.4455C48.3105 46.0474 48.2686 45.7122 48.101 45.4818C47.3049 44.3714 46.4878 43.303 45.6289 42.1717C46.1526 41.7737 46.6345 41.4175 47.1792 40.9985C47.8915 41.9413 48.5619 42.8421 49.316 43.8268C50.0493 42.905 50.7616 41.9832 51.4529 41.0404Z" fill="#FFD93D"/>
<path d="M9.63696 47.4092C9.63696 45.8379 10.9987 44.5181 12.5699 44.5391C14.1621 44.56 15.461 45.8798 15.461 47.4511C15.461 49.0433 14.1411 50.3421 12.549 50.3421C10.9358 50.3421 9.61602 49.0223 9.63696 47.4092ZM12.5699 46.4874C12.0252 46.4874 11.6062 46.8645 11.5853 47.4092C11.5643 47.9329 12.0043 48.3729 12.528 48.3938C13.0518 48.3938 13.4917 47.9748 13.5127 47.4511C13.5127 46.9273 13.0937 46.5083 12.5699 46.4874Z" fill="#FFD93D"/>
</g>
<defs>
<clipPath id="clip0">
<rect width="59.979" height="60" fill="white"/>
</clipPath>
</defs>
</svg>
