<svg width="60" height="60" viewBox="0 0 60 60" fill="none" xmlns="http://www.w3.org/2000/svg">
<path d="M21.4594 24.8675C21.4594 24.3877 21.4341 23.9837 21.4594 23.6049C21.4846 22.9231 21.8634 22.5696 22.5452 22.5443C22.6968 22.5443 22.8483 22.5443 22.9745 22.5443C34.4644 22.5443 45.9543 22.5443 57.4442 22.5443C58.7069 22.5443 58.9594 22.7968 58.9594 24.0342C58.9594 24.9686 58.9594 25.8776 58.9594 26.812C58.9594 27.7211 58.7826 27.9736 57.924 28.2261C56.2826 28.7312 54.6412 29.2362 52.9998 29.7665C47.6463 31.4837 44.0099 36.3322 43.8836 41.8372C43.8331 44.1605 44.7422 45.9534 46.6362 47.2413C49.6665 49.312 52.6463 51.408 55.7018 53.4534C56.3836 53.908 56.6867 54.4383 56.6362 55.2716C56.5604 56.408 56.6109 57.5443 56.6109 58.6807C56.6109 59.6403 56.2826 59.9686 55.323 59.9938C52.6463 59.9938 49.9695 59.9938 47.318 59.9938C36.7624 59.9938 26.1816 59.9938 15.6261 59.9938C14.2119 59.9938 13.9846 59.7918 13.9846 58.3271C13.9846 57.2413 14.0099 56.1302 13.9846 55.0443C13.9594 54.3372 14.2372 53.8574 14.818 53.4787C17.823 51.4332 20.8028 49.3372 23.8331 47.317C25.8028 45.9787 26.7624 44.1857 26.7372 41.7867C26.7119 40.2716 26.6362 38.8574 25.6766 37.6201C24.7422 36.4585 23.5806 35.7261 22.0907 35.7009C17.419 35.5746 12.9745 34.5645 8.75737 32.5191C5.90384 31.1554 3.42909 29.2615 1.0301 27.216C0.777573 26.9888 0.44929 26.8372 0.272523 26.5595C0.0957549 26.2564 -0.0557603 25.8271 0.0199973 25.5494C0.0957549 25.2968 0.499795 25.0696 0.777573 24.918C0.979593 24.817 1.28262 24.8675 1.5099 24.8675C7.87353 24.8675 14.2119 24.8675 20.5756 24.8675C20.8533 24.8675 21.1059 24.8675 21.4594 24.8675ZM54.616 57.9736C54.616 57.1908 54.5907 56.4585 54.616 55.7261C54.6412 55.2968 54.4644 55.0443 54.1109 54.817C51.2321 52.8726 48.3786 50.9029 45.525 48.9332C42.9745 47.1655 41.7372 44.716 41.8634 41.61C42.1412 35.1958 46.2321 29.8423 52.3432 27.8726C53.7321 27.418 55.121 27.014 56.4846 26.5595C56.6614 26.509 56.9139 26.3069 56.9392 26.1554C56.9897 25.6504 56.9644 25.1201 56.9644 24.5898C45.7523 24.5898 34.616 24.5898 23.4291 24.5898C23.4291 24.8675 23.4291 25.0948 23.4291 25.3473C23.4291 26.7867 23.4291 28.2514 23.4291 29.6908C23.4291 30.3726 23.0756 30.7766 22.4695 30.8019C21.8634 30.8271 21.4594 30.4231 21.4341 29.716C21.4089 29.4383 21.4341 29.1605 21.4341 28.9079C21.4341 28.2766 21.4341 27.6201 21.4341 26.9888C15.525 26.9888 9.74222 26.9888 3.78262 26.9888C4.18666 27.317 4.43919 27.5443 4.71697 27.7463C9.86848 31.6352 15.6513 33.6554 22.116 33.7817C25.121 33.8574 27.6968 35.9029 28.4291 38.8574C28.6816 39.8928 28.7069 41.0292 28.7069 42.115C28.7574 45.0443 27.52 47.3423 25.0958 48.9837C23.0503 50.3726 21.0048 51.7867 18.9594 53.1756C18.7826 53.2766 18.6311 53.4029 18.3281 53.6554C18.7069 53.6554 18.9341 53.6554 19.1614 53.6554C27.823 53.6554 36.5099 53.6554 45.1715 53.6554C45.4493 53.6554 45.7271 53.6554 45.9796 53.7059C46.5099 53.8069 46.7877 54.1857 46.7624 54.6908C46.7372 55.2211 46.4089 55.5241 45.9038 55.6251C45.6766 55.6504 45.4493 55.6504 45.222 55.6504C35.7523 55.6504 26.2826 55.6504 16.8129 55.6504C16.5604 55.6504 16.3331 55.6504 16.0554 55.6504C16.0554 56.4585 16.0554 57.1908 16.0554 57.9736C28.9089 57.9736 41.7119 57.9736 54.616 57.9736Z" fill="#3498db"/>
<path d="M34.1866 8.90783C34.5654 8.90783 34.7927 8.90783 35.0452 8.90783C42.5452 8.90783 50.02 8.90783 57.52 8.90783C58.5301 8.90783 59.0351 9.26136 59.0098 9.91793C58.9846 10.5745 58.5048 10.9028 57.52 10.9028C50.0705 10.9028 42.621 10.9028 35.1715 10.9028C34.8937 10.9028 34.6159 10.9028 34.2876 10.9028C34.2876 11.1553 34.2624 11.3826 34.2624 11.6098C34.2624 13.428 34.2624 15.221 34.2624 17.0391C34.2624 18.6806 33.2018 19.7917 31.5604 19.7917C29.1109 19.8169 26.6361 19.8169 24.1866 19.7917C22.52 19.7917 21.4594 18.7058 21.4594 17.0644C21.4594 12.3169 21.4594 7.54419 21.4594 2.79672C21.4594 1.13005 22.4695 0.0441919 24.1361 0.0189394C26.5856 -0.00631313 29.0604 -0.00631313 31.5099 0.0189394C33.1765 0.0441919 34.1614 1.13005 34.1866 2.79672C34.1866 4.58965 34.1866 6.38258 34.1866 8.15025C34.1866 8.37753 34.1866 8.6048 34.1866 8.90783ZM23.4543 9.86743C23.4543 12.2159 23.4543 14.5896 23.4543 16.9381C23.4543 17.6705 23.6058 17.822 24.3381 17.8472C26.6866 17.8472 29.0604 17.8472 31.4088 17.8472C32.1159 17.8472 32.2674 17.6705 32.2674 16.9886C32.2674 12.2917 32.2674 7.61995 32.2674 2.92298C32.2674 2.19066 32.1159 2.01389 31.3836 2.01389C29.0604 2.01389 26.7119 2.01389 24.3886 2.01389C23.6311 2.01389 23.4796 2.19066 23.4796 2.94823C23.4543 5.24621 23.4543 7.54419 23.4543 9.86743Z" fill="#3498db"/>
</svg>
