<svg width="69" height="68" viewBox="0 0 69 68" fill="none" xmlns="http://www.w3.org/2000/svg">
<g clip-path="url(#clip0)">
<path d="M29.2897 46.051C25.0809 42.8211 25.2522 36.9974 28.6045 33.8164C31.4919 31.0759 36.5081 31.0514 39.4199 33.7675C42.503 36.6059 43.335 42.454 38.8816 45.9776C39.6401 46.5159 40.4721 46.9808 41.1817 47.617C43.1882 49.4278 44.2404 51.7034 44.2404 54.4195C44.2404 58.4569 44.2404 62.4943 44.2404 66.5317C44.2404 67.6084 43.8489 67.9999 42.7722 67.9999C36.9485 67.9999 31.1004 67.9999 25.2767 67.9999C24.2245 67.9999 23.8085 67.5839 23.8085 66.5073C23.8085 62.5433 23.7841 58.5548 23.8085 54.5908C23.833 50.8225 25.5703 48.033 28.8981 46.2468C29.0205 46.1734 29.1184 46.1244 29.2897 46.051ZM32.1526 47.6415C31.81 47.6904 31.5653 47.7149 31.3451 47.7639C28.3109 48.4735 26.1087 51.1651 26.1087 54.2971C26.0842 57.8941 26.1087 61.5156 26.1087 65.1125C26.1087 65.2838 26.1331 65.4551 26.1331 65.6509C31.4185 65.6509 36.6549 65.6509 41.9158 65.6509C41.9403 65.5285 41.9647 65.4551 41.9647 65.3817C41.9647 61.6624 41.9892 57.9186 41.9647 54.1993C41.9403 52.4375 41.2796 50.8959 40.0317 49.648C38.9305 48.5224 37.6092 47.8373 35.9208 47.666C36.0432 47.9107 36.1166 48.1064 36.19 48.2777C36.8751 49.6725 37.5603 51.0672 38.2699 52.4375C38.5635 53.0003 38.588 53.4897 38.3188 54.0524C37.2422 56.4749 36.2144 58.8974 35.1867 61.3443C34.9665 61.8826 34.6729 62.323 34.0122 62.323C33.3515 62.323 33.0579 61.9071 32.8377 61.3443C31.8345 58.9708 30.8312 56.5728 29.779 54.2237C29.4609 53.5386 29.4609 52.9269 29.828 52.2662C30.6355 50.7491 31.3695 49.232 32.1526 47.6415ZM34.0612 38.5145C32.2015 38.49 30.4886 39.0039 28.8737 39.8848C28.58 40.0561 28.4088 40.2273 28.4822 40.5944C28.8981 43.2126 31.2472 45.2191 33.9633 45.268C36.6794 45.3169 39.0774 43.3839 39.5912 40.7657C39.6891 40.3252 39.5667 40.0561 39.1508 39.8358C37.5358 39.0039 35.8719 38.49 34.0612 38.5145ZM34.0122 58.2367C34.0856 58.0899 34.159 58.0165 34.208 57.9186C34.8197 56.4749 35.4559 55.0557 36.0432 53.612C36.1166 53.4162 36.0921 53.0981 35.9942 52.8779C35.4559 51.7279 34.8686 50.5778 34.2814 49.4278C34.208 49.3054 34.1346 49.1831 34.0122 49.0363C33.3271 50.3821 32.6909 51.6789 32.0547 52.9758C31.9813 53.1226 31.9323 53.3428 32.0057 53.4897C32.6419 55.0557 33.3026 56.6217 34.0122 58.2367ZM28.9226 37.3155C32.3483 35.8963 35.7251 35.8963 39.1263 37.3155C38.4167 35.3824 36.2634 34.0122 34.0612 33.9877C31.81 33.9632 29.6812 35.3335 28.9226 37.3155Z" fill="#3498db"/>
<path d="M54.5664 43.7267C50.896 40.3255 51.9727 35.6518 54.4196 33.4251C56.9154 31.1495 61.0507 31.1495 63.5466 33.4007C66.1159 35.7252 66.9723 40.4478 63.4732 43.6777C64.1339 44.1427 64.819 44.5586 65.4307 45.097C67.1925 46.6875 68.0734 48.7184 68.0734 51.1164C68.0734 54.7134 68.0734 58.3348 68.0734 61.9318C68.0734 63.0329 67.6819 63.4489 66.5808 63.4489C61.5157 63.4489 56.475 63.4489 51.4099 63.4489C50.3087 63.4489 49.9172 63.0574 49.9172 61.9318C49.9172 58.3838 49.9172 54.8357 49.9172 51.2877C49.9172 47.9599 51.3609 45.464 54.2972 43.8735C54.3951 43.849 54.4685 43.8001 54.5664 43.7267ZM65.7244 61.1488C65.7488 61.0264 65.7733 60.9775 65.7733 60.9041C65.7733 57.4784 65.7978 54.0527 65.7488 50.627C65.7244 49.012 64.9903 47.6907 63.7668 46.663C62.9104 45.9289 61.9072 45.464 60.7082 45.3906C61.222 46.6875 61.7603 47.9109 62.2008 49.1588C62.3476 49.5504 62.3476 50.0642 62.2253 50.4557C61.5646 52.5601 60.855 54.64 60.1698 56.7198C59.9741 57.3071 59.6805 57.7476 58.9953 57.772C58.3102 57.772 58.0166 57.3316 57.8208 56.7443C57.1846 54.7868 56.5484 52.8292 55.8633 50.8962C55.5941 50.1621 55.5941 49.5014 55.9122 48.7918C56.4016 47.7152 56.8176 46.5896 57.258 45.4395C57.1357 45.4395 57.0623 45.4151 57.0133 45.4151C54.1994 45.8555 52.1929 48.1801 52.1929 51.0185C52.1929 54.224 52.1929 57.4294 52.1929 60.6105C52.1929 60.7817 52.2173 60.953 52.2173 61.1488C56.7442 61.1488 61.222 61.1488 65.7244 61.1488ZM59.4113 37.3891C57.6006 37.3891 56.059 37.7807 54.909 38.5392C54.7132 38.6615 54.5175 38.9796 54.5419 39.1999C54.7621 41.3042 56.6952 42.9926 58.9219 43.0415C61.0752 43.0905 63.1062 41.4021 63.4243 39.3222C63.4977 38.9062 63.3753 38.686 63.0083 38.4903C61.7603 37.8051 60.4635 37.3647 59.4113 37.3891ZM58.9953 47.2502C58.6283 48.1556 58.3102 48.9386 58.0166 49.7461C57.9676 49.844 57.9921 49.9908 58.0166 50.0887C58.3347 51.0185 58.6283 51.9728 58.9953 53.0495C59.3624 51.9483 59.6805 50.994 59.9986 50.0397C60.023 49.9419 60.023 49.8195 59.9986 49.7461C59.6805 48.9386 59.3624 48.1556 58.9953 47.2502ZM62.4455 35.6274C60.6348 33.4251 57.0378 33.4496 55.5452 35.6274C59.1421 34.8199 59.5092 34.9912 62.4455 35.6274Z" fill="#3498db"/>
<path d="M13.556 43.6777C14.1922 44.1181 14.8773 44.5341 15.4646 45.048C17.2508 46.6629 18.1562 48.6939 18.1562 51.1163C18.1562 54.7378 18.1562 58.3837 18.1562 62.0052C18.1562 63.0329 17.7402 63.4733 16.7125 63.4733C11.6229 63.4733 6.50882 63.4733 1.41922 63.4733C0.391508 63.4733 0 63.0573 0 62.0052C0 58.4082 0 54.7867 0 51.1897C0 47.9109 1.46815 45.5129 4.33105 43.9224C4.42893 43.8734 4.55128 43.8 4.64915 43.7511C1.05218 40.4233 1.98201 35.7497 4.50234 33.4495C6.9982 31.1739 11.1335 31.1739 13.6294 33.4251C16.272 35.8231 17.0061 40.5701 13.556 43.6777ZM10.7909 45.415C11.3048 46.6874 11.8186 47.9109 12.2591 49.1588C12.4059 49.5503 12.4304 50.0642 12.308 50.4557C11.6474 52.5845 10.9133 54.7133 10.2037 56.8421C10.0324 57.4049 9.71428 57.772 9.07808 57.7964C8.41742 57.7964 8.09932 57.4049 7.90356 56.8421C7.19395 54.7133 6.48435 52.609 5.79921 50.4557C5.67686 50.0886 5.70133 49.5992 5.84815 49.2322C6.23965 48.1311 6.70457 47.0789 7.12055 46.0023C7.19395 45.831 7.24289 45.6597 7.29183 45.4395C4.40446 45.7576 2.30011 48.0822 2.27564 50.9206C2.25117 54.175 2.27564 57.4539 2.27564 60.7083C2.27564 60.8551 2.30011 60.9774 2.30011 61.1243C6.82692 61.1243 11.3293 61.1243 15.8316 61.1243C15.8316 57.4294 15.9539 53.7835 15.7827 50.162C15.6848 47.6662 13.3357 45.6108 10.7909 45.415ZM9.05362 43.0415C11.158 43.066 13.0666 41.4999 13.4825 39.4445C13.556 39.0775 13.6049 38.7594 13.1644 38.5147C10.3994 36.9731 7.65887 36.9731 4.94279 38.5636C4.7715 38.6615 4.60022 39.0285 4.62468 39.2243C4.94278 41.4021 6.87585 43.017 9.05362 43.0415ZM9.07808 53.0494C9.44512 51.9483 9.76322 50.9695 10.0813 50.0152C10.1058 49.9418 10.1058 49.8439 10.0813 49.7705C9.76322 48.963 9.44512 48.1556 9.07808 47.2257C8.71105 48.1311 8.41742 48.8896 8.09932 49.6727C8.05038 49.7705 8.02591 49.9173 8.07485 50.0152C8.39295 50.994 8.71105 51.9238 9.07808 53.0494ZM5.70133 35.5294C6.80245 35.3826 7.92803 35.1379 9.07808 35.1379C10.2037 35.1379 11.3537 35.4071 12.4304 35.5294C10.9377 33.4495 7.3163 33.4495 5.70133 35.5294Z" fill="#3498db"/>
<g clip-path="url(#clip1)">
<path d="M25.1396 9.4541C26.9789 10.6406 28.7294 11.7761 30.4673 12.9372C30.5688 13.0137 30.5814 13.3454 30.5307 13.5241C29.4779 16.7009 28.4123 19.8778 27.3595 23.0674C26.8521 24.5984 26.3447 26.1294 25.8373 27.6604C25.7992 27.788 25.7738 27.9411 25.8626 28.158C31.5328 22.2636 37.203 16.3819 42.962 10.3982C42.9747 10.6789 43 10.8193 43 10.9596C43 13.5496 43 16.1395 43.0127 18.7423C43.0127 19.0867 42.9493 19.3164 42.6068 19.495C36.9366 22.5698 31.2791 25.6701 25.6343 28.7704C25.4948 28.847 25.3425 28.9108 25.1396 29.0001C25.1396 22.4805 25.1396 16.0247 25.1396 9.4541Z" fill="#3498db"/>
<path d="M24.9995 0C30.8219 3.1641 36.5302 6.27717 42.3272 9.44127C41.7564 9.84954 41.249 10.2068 40.7416 10.5768C39.4731 11.4954 38.2173 12.4267 36.9234 13.3071C36.7331 13.4347 36.3526 13.4857 36.1496 13.3964C32.5471 11.6612 28.9572 9.91333 25.3801 8.15266C25.2025 8.06335 25.0249 7.78267 25.0122 7.59129C24.9868 5.10339 24.9995 2.61549 24.9995 0Z" fill="#3498db"/>
</g>
</g>
<defs>
<clipPath id="clip0">
<rect width="68.0734" height="68" fill="white"/>
</clipPath>
<clipPath id="clip1">
<rect width="18" height="29" fill="white" transform="translate(25)"/>
</clipPath>
</defs>
</svg>
