<svg width="62" height="60" viewBox="0 0 62 60" fill="none" xmlns="http://www.w3.org/2000/svg">
<g clip-path="url(#clip0)">
<path d="M14.4369 6.90091C14.4369 5.5729 14.4369 4.33197 14.4369 3.09104C14.4369 1.21876 15.6075 0.0213751 17.45 -0.00039562C21.2001 -0.0221663 24.9719 -0.0221663 28.722 -0.00039562C30.5429 -0.00039562 31.7134 1.21876 31.7134 3.0475C31.7134 4.28843 31.7134 5.55113 31.7134 6.90091C31.9519 6.90091 32.1469 6.90091 32.3637 6.90091C35.3334 6.90091 38.2815 6.90091 41.2512 6.90091C42.8553 6.90091 44.221 7.44518 45.2181 8.75142C45.8034 9.53516 46.1285 10.406 46.1285 11.3639C46.1285 17.7209 46.1285 24.0997 46.1285 30.4568C46.1285 30.5656 46.1068 30.6745 46.1068 30.8051C45.4782 30.8051 44.8713 30.8051 44.1993 30.8051C44.1993 28.1709 44.1993 25.5802 44.1993 22.8153C43.8958 23.3378 43.7224 23.7296 43.4623 24.0562C42.4868 25.2536 41.2512 25.9285 39.6688 25.9285C35.5069 25.9285 31.3666 25.9285 27.2046 25.9285C26.9879 25.9285 26.7711 25.9285 26.641 25.9285C26.3592 26.4074 26.0991 26.8211 25.904 27.2565C25.7956 27.5177 25.7523 27.8225 25.7956 28.0838C25.9907 29.3029 25.5789 30.1955 24.56 30.8704C24.0181 31.2188 23.5846 31.7195 23.0427 32.1767C22.1756 31.3712 21.3085 30.6092 20.4848 29.8254C20.3981 29.7601 20.3764 29.6077 20.3764 29.4771C20.3547 29.2376 20.3547 28.9981 20.3764 28.7804C20.3981 28.0185 20.4414 27.2783 19.8778 26.6251C19.7261 26.451 19.7044 26.1897 19.6177 25.9067C19.4443 25.9067 19.2275 25.9067 19.0108 25.9067C14.9572 25.9067 10.8819 25.8849 6.82837 25.9067C4.68237 25.9285 3.12163 25.0359 2.16785 23.0983C2.14617 23.033 2.08114 22.9894 2.03779 22.9241C2.03779 22.9241 1.99444 22.9241 1.95108 22.9241C1.95108 23.1201 1.95108 23.316 1.95108 23.4902C1.95108 28.3886 1.95108 33.287 1.95108 38.1854C1.95108 39.8617 2.92654 40.9503 4.59566 41.0809C4.81243 41.1026 5.0292 41.1026 5.24596 41.1026C14.0901 41.1026 22.956 41.1026 31.8001 41.1026C32.0386 41.1026 32.2553 41.1026 32.5371 41.1026C32.5371 41.7558 32.5371 42.3436 32.5371 42.9749C32.342 42.9749 32.1469 42.9967 31.9519 42.9967C22.9343 42.9967 13.9167 42.9532 4.92081 43.0185C2.10282 43.0838 -0.0215125 40.9285 0.000164406 38.1418C0.065195 29.3247 0.0218413 20.5076 0.0218413 11.6905C0.0218413 9.38277 1.36581 7.5758 3.51182 7.05331C3.98871 6.94445 4.50895 6.90091 5.00752 6.90091C7.91222 6.87914 10.8169 6.90091 13.7216 6.90091C13.9384 6.90091 14.1335 6.90091 14.4369 6.90091ZM26.576 24.0344C26.7494 24.0344 26.9445 24.0344 27.1396 24.0344C31.1932 24.0344 35.2251 23.9909 39.2786 24.0562C40.796 24.078 41.7715 23.4249 42.4001 22.0968C42.9203 20.9865 43.4623 19.8762 43.9608 18.7442C44.0909 18.4829 44.1776 18.1564 44.1776 17.8733C44.1993 15.8051 44.1993 13.7369 44.1776 11.6687C44.1776 9.99235 43.0721 8.86027 41.403 8.8385C40.1674 8.8385 38.9101 8.8385 37.6745 8.8385C26.7277 8.8385 15.7809 8.8385 4.8341 8.8385C2.99157 8.8385 1.88605 9.94881 1.88605 11.7775C1.88605 13.8022 1.88605 15.8487 1.88605 17.8733C1.88605 18.1564 1.95108 18.4394 2.08114 18.7006C2.64474 19.9198 3.25169 21.1172 3.83697 22.3146C4.35721 23.4249 5.22429 24.0127 6.43819 24.0127C10.6869 24.0127 14.9355 24.0127 19.1625 24.0127C19.4226 24.0127 19.5527 23.9691 19.6611 23.6643C20.0296 22.5976 20.7666 21.9445 21.9155 21.8574C22.3924 21.8138 22.8909 21.8356 23.3678 21.8356C25.232 21.8356 25.9474 22.3146 26.576 24.0344ZM29.8058 6.87914C29.8058 5.68175 29.8058 4.50614 29.8058 3.33052C29.8058 2.19844 29.524 1.91542 28.3968 1.91542C24.8418 1.91542 21.2868 1.91542 17.7318 1.91542C17.5151 1.91542 17.2983 1.9372 17.0815 1.98074C16.648 2.04605 16.3662 2.35084 16.3662 2.74271C16.3228 4.11426 16.3445 5.48582 16.3445 6.87914C20.8533 6.87914 25.2971 6.87914 29.8058 6.87914ZM23.086 23.7732C21.5036 23.7732 21.5036 23.7732 21.5253 25.3407C21.5253 25.3842 21.5253 25.406 21.5253 25.4495C21.5036 25.9503 21.7637 26.1897 22.2406 26.2115C22.7609 26.2333 23.2811 26.2333 23.8014 26.2115C24.4517 26.1897 24.6251 25.9938 24.6467 25.3624C24.6684 23.7732 24.6684 23.7732 23.086 23.7732ZM22.3273 28.1491C22.0455 28.9328 22.5874 29.2594 23.0643 29.6077C23.4979 29.2159 24.1265 28.9328 23.7797 28.1491C23.3245 28.1491 22.8476 28.1491 22.3273 28.1491Z" fill="#FFD93D"/>
<path d="M40.2756 58.2365C38.8015 56.7561 37.3492 55.2757 35.8535 53.7953C36.7639 53.0333 37.696 52.2496 38.6281 51.4658C38.303 50.7039 38.0212 50.0072 37.696 49.2234C36.5471 49.3105 35.3332 49.4194 34.0977 49.5282C34.0977 47.4383 34.0977 45.3918 34.0977 43.2583C35.2899 43.3671 36.4821 43.476 37.696 43.5631C37.9995 42.8229 38.303 42.1044 38.6281 41.2989C37.7177 40.5369 36.7856 39.7532 35.8752 38.9912C37.3492 37.5108 38.8015 36.0522 40.2972 34.55C41.0559 35.4644 41.8363 36.4005 42.595 37.2931C43.2886 37.0101 43.9173 36.7488 44.5676 36.5311C44.9144 36.4223 44.8494 36.2046 44.8277 35.9869C44.741 34.9201 44.6326 33.8533 44.5242 32.743C46.6269 32.743 48.6862 32.743 50.7888 32.743C50.6805 33.9622 50.5721 35.1814 50.4637 36.3787C51.2224 36.6835 51.9377 36.9883 52.7181 37.2931C53.4768 36.3787 54.2571 35.4426 55.0158 34.55C56.4899 36.0522 57.9422 37.5108 59.4162 38.9912C58.5492 39.7314 57.6171 40.5152 56.6849 41.2772C56.9884 42.0391 57.2919 42.7576 57.6171 43.5413C58.7876 43.4324 60.0015 43.3236 61.2371 43.2147C61.2371 45.3047 61.2371 47.3729 61.2371 49.4847C60.0015 49.3758 58.8093 49.2888 57.6171 49.1799C57.2919 49.9636 57.0101 50.6603 56.6849 51.4223C57.5954 52.1843 58.5058 52.968 59.4162 53.7082C57.9422 55.1886 56.4682 56.6472 54.9725 58.1277C54.2788 57.2786 53.4984 56.3642 52.7181 55.4281C51.9811 55.7329 51.2441 56.0377 50.4637 56.3425C50.5721 57.5181 50.6805 58.7155 50.7888 59.9782C48.6862 59.9782 46.6269 59.9782 44.5242 59.9782C44.6326 58.7372 44.741 57.5398 44.8277 56.3425C44.069 56.0377 43.3537 55.7329 42.5733 55.4281C41.8363 56.3642 41.0343 57.3004 40.2756 58.2365ZM46.887 37.968C45.1312 38.1857 43.6138 38.8171 42.2482 39.8838C41.5111 39.013 40.8175 38.1857 40.1672 37.3802C39.6686 37.8592 39.1917 38.3381 38.6932 38.8171C39.5169 39.5137 40.3623 40.2104 41.2293 40.9506C40.1238 42.3439 39.4952 43.8896 39.2784 45.6313C38.1512 45.5224 37.0891 45.4354 35.9835 45.3483C35.9835 46.0449 35.9835 46.698 35.9835 47.4165C37.0891 47.3294 38.1512 47.2423 39.2784 47.1335C39.4735 48.8969 40.1455 50.4208 41.186 51.7924C40.3189 52.5326 39.4952 53.2293 38.7799 53.8388C39.2567 54.3831 39.6903 54.8621 40.1455 55.3845C40.8608 54.5355 41.5545 53.7082 42.2698 52.8374C43.6572 53.9477 45.2179 54.5355 46.9087 54.7967C46.822 55.9288 46.7353 57.0173 46.6486 58.0841C47.3856 58.0841 48.0142 58.0841 48.6862 58.0841C48.5995 56.9738 48.4911 55.8853 48.4044 54.775C50.1602 54.579 51.6776 53.9259 53.0432 52.8592C53.7802 53.73 54.4739 54.5573 55.1459 55.3845C55.6445 54.8838 56.1214 54.4266 56.6199 53.9259C55.7745 53.2293 54.9508 52.5326 54.0837 51.7924C55.1459 50.3991 55.8179 48.8969 56.013 47.1335C57.1402 47.2205 58.2023 47.3076 59.3079 47.4165C59.3079 46.698 59.3079 46.0449 59.3079 45.3483C58.2023 45.4354 57.1402 45.5442 55.9913 45.6313C55.8179 43.8679 55.1242 42.3439 54.0837 40.9506C54.9508 40.2322 55.7745 39.5355 56.5549 38.8824C56.0563 38.3817 55.5794 37.9245 55.1025 37.4237C54.4306 38.2293 53.7369 39.0565 53.0432 39.9056C51.6559 38.7953 50.1169 38.1857 48.4044 37.968C48.4911 36.8359 48.5995 35.7474 48.6862 34.6589C47.9709 34.6589 47.3422 34.6589 46.6269 34.6589C46.7136 35.7692 46.8003 36.8359 46.887 37.968Z" fill="#FFD93D"/>
<path d="M6.00464 32.1552C6.00464 33.8533 6.00464 35.5078 6.00464 37.2495C7.91221 37.2495 9.79809 37.2495 11.7273 37.2495C11.7273 37.9244 11.7273 38.534 11.7273 39.1653C9.19114 39.1653 6.6983 39.1653 4.16211 39.1653C4.16211 36.8358 4.16211 34.5064 4.16211 32.1552C4.74738 32.1552 5.35434 32.1552 6.00464 32.1552Z" fill="#FFD93D"/>
<path d="M7.8036 51.7924C7.8036 52.4237 7.8036 53.0333 7.8036 53.6646C5.54921 53.6646 3.29482 53.6646 0.99707 53.6646C0.99707 53.0551 0.99707 52.4455 0.99707 51.7924C3.27314 51.7924 5.50586 51.7924 7.8036 51.7924Z" fill="#FFD93D"/>
<path d="M60.1753 8.27279C57.8992 8.27279 55.6882 8.27279 53.4121 8.27279C53.4121 7.64144 53.4121 7.03186 53.4121 6.40051C55.6448 6.40051 57.8992 6.40051 60.1753 6.40051C60.1753 6.98832 60.1753 7.5979 60.1753 8.27279Z" fill="#FFD93D"/>
<path d="M5.9392 48.4179C4.27008 48.4179 2.666 48.4179 1.01855 48.4179C1.01855 47.7866 1.01855 47.1988 1.01855 46.5457C2.64432 46.5457 4.27008 46.5457 5.9392 46.5457C5.9392 47.1552 5.9392 47.7648 5.9392 48.4179Z" fill="#FFD93D"/>
<path d="M55.2549 13.4977C55.2549 12.8664 55.2549 12.2786 55.2549 11.6472C56.9023 11.6472 58.5281 11.6472 60.1972 11.6472C60.1972 12.2568 60.1972 12.8664 60.1972 13.4977C58.5498 13.4977 56.924 13.4977 55.2549 13.4977Z" fill="#FFD93D"/>
<path d="M5.93939 57.0826C5.93939 57.714 5.93939 58.28 5.93939 58.8896C4.29195 58.8896 2.66619 58.8896 0.99707 58.8896C0.99707 58.3018 0.99707 57.714 0.99707 57.0826C2.64451 57.0826 4.27028 57.0826 5.93939 57.0826Z" fill="#FFD93D"/>
<path d="M55.2549 2.96082C55.2549 2.35124 55.2549 1.76343 55.2549 1.13208C56.9023 1.13208 58.5281 1.13208 60.1972 1.13208C60.1972 1.74166 60.1972 2.32947 60.1972 2.96082C58.5498 2.96082 56.924 2.96082 55.2549 2.96082Z" fill="#FFD93D"/>
<path d="M11.2725 53.6865C10.4271 53.6865 9.6034 53.6865 8.73633 53.6865C8.73633 53.0769 8.73633 52.4673 8.73633 51.8142C9.56005 51.8142 10.3838 51.8142 11.2725 51.8142C11.2725 52.402 11.2725 53.0116 11.2725 53.6865Z" fill="#FFD93D"/>
<path d="M49.9004 8.25102C49.9004 7.61967 49.9004 7.03186 49.9004 6.40051C50.7458 6.40051 51.5695 6.40051 52.4583 6.40051C52.4583 6.98832 52.4583 7.5979 52.4583 8.25102C51.6345 8.25102 50.8108 8.25102 49.9004 8.25102Z" fill="#FFD93D"/>
<path d="M4.09766 27.8229C4.74796 27.8229 5.35491 27.8229 5.98354 27.8229C5.98354 28.4542 5.98354 29.042 5.98354 29.7169C5.44162 29.7169 4.8997 29.7387 4.35778 29.6952C4.27107 29.6952 4.09766 29.5428 4.09766 29.4557C4.09766 28.9114 4.09766 28.3889 4.09766 27.8229Z" fill="#FFD93D"/>
<path d="M47.6245 41.3642C50.3991 41.3424 52.6319 43.563 52.6535 46.3279C52.6752 49.1363 50.4859 51.3787 47.6679 51.4222C44.9366 51.444 42.6605 49.2016 42.6388 46.4367C42.6172 43.6283 44.8065 41.3859 47.6245 41.3642ZM47.6245 49.4846C49.337 49.4846 50.746 48.1131 50.746 46.3932C50.746 44.6951 49.3153 43.28 47.6245 43.28C45.9337 43.28 44.5464 44.6733 44.5464 46.3497C44.5464 48.0695 45.912 49.4629 47.6245 49.4846Z" fill="#FFD93D"/>
</g>
<defs>
<clipPath id="clip0">
<rect width="61.2371" height="60" fill="white"/>
</clipPath>
</defs>
</svg>
