<svg width="61" height="60" viewBox="0 0 61 60" fill="none" xmlns="http://www.w3.org/2000/svg">
<path d="M30.0845 59.9671C21.169 59.9671 12.2746 59.9671 3.35916 59.9671C2.17606 59.9671 1.22535 59.608 0.528169 58.6361C0.147887 58.108 0 57.5164 0 56.8404C0 42.1573 0 27.4742 0 12.7911C0.0211268 9.60094 0.0211268 6.36854 0.0211268 3.15728C0.0211268 1.38263 1.22535 0.115023 2.97887 0.00938967C3.14789 -0.0117371 3.33803 0.00938967 3.50704 0.00938967C21.1901 0.00938967 38.8944 0.00938967 56.5775 0.00938967C57.8662 0.00938967 58.9014 0.410798 59.6409 1.50939C60.0211 2.10094 60.1479 2.71361 60.1479 3.4108C60.1479 17.5657 60.1479 31.7206 60.1479 45.8756C60.1479 49.5094 60.1479 53.1643 60.1479 56.7981C60.1479 58.6784 58.9014 59.9671 57.0423 59.9883C54.7606 60.0094 52.4577 59.9883 50.1761 59.9883C43.4789 59.9671 36.7817 59.9671 30.0845 59.9671ZM9.42254 57.4742C9.42254 52.8685 9.42254 48.3474 9.42254 43.784C11.1761 43.784 12.8873 43.784 14.6831 43.784C14.6831 48.3685 14.6831 52.9108 14.6831 57.453C20.9577 57.453 27.169 57.453 33.4225 57.453C33.4225 52.8685 33.4225 48.3474 33.4225 43.784C35.1761 43.784 36.8873 43.784 38.6831 43.784C38.6831 48.3685 38.6831 52.9108 38.6831 57.453C45 57.453 51.2324 57.453 57.4859 57.453C57.4859 56.4178 57.4859 55.4037 57.4859 54.3474C51.6127 54.3474 45.8028 54.3474 39.9507 54.3474C39.9507 52.5939 39.9507 50.8826 39.9507 49.0868C45.8239 49.0868 51.6549 49.0868 57.4859 49.0868C57.4859 46.7629 57.4859 44.5235 57.4859 42.2206C55.6056 42.2206 53.7676 42.2206 51.9296 42.2206C51.9296 40.446 51.9296 38.7559 51.9296 36.9812C53.8099 36.9812 55.6479 36.9812 57.4859 36.9812C57.4859 34.6995 57.4859 32.5023 57.4859 30.2418C51.6338 30.2418 45.8028 30.2418 39.9718 30.2418C39.9718 28.4671 39.9718 26.7347 39.9718 24.9601C45.8451 24.9601 51.6549 24.9601 57.507 24.9601C57.507 22.6995 57.507 20.5023 57.507 18.2207C55.6268 18.2207 53.8099 18.2207 51.9507 18.2207C51.9507 16.446 51.9507 14.7559 51.9507 12.9812C53.8099 12.9812 55.6479 12.9812 57.507 12.9812C57.507 9.45305 57.507 5.98826 57.507 2.52347C55.2254 2.52347 52.9648 2.52347 50.662 2.52347C50.662 9.60094 50.662 16.6361 50.662 23.6714C48.8873 23.6714 47.1761 23.6714 45.4225 23.6714C45.4225 16.5939 45.4225 9.55868 45.4225 2.50235C43.162 2.50235 40.9648 2.50235 38.6831 2.50235C38.6831 5.62911 38.6831 8.71361 38.6831 11.8192C36.9085 11.8192 35.1761 11.8192 33.3803 11.8192C33.3803 8.69249 33.3803 5.60798 33.3803 2.52347C31.1197 2.52347 28.9014 2.52347 26.662 2.52347C26.662 9.60094 26.662 16.6361 26.662 23.6925C24.9085 23.6925 23.1972 23.6925 21.4014 23.6925C21.4014 16.615 21.4014 9.55868 21.4014 2.52347C19.1408 2.52347 16.9437 2.52347 14.6831 2.52347C14.6831 5.65023 14.6831 8.73474 14.6831 11.8404C12.9085 11.8404 11.1972 11.8404 9.40141 11.8404C9.40141 8.71361 9.40141 5.60798 9.40141 2.52347C7.07747 2.52347 4.83803 2.52347 2.57747 2.52347C2.57747 6.00939 2.57747 9.47418 2.57747 13.0023C8.4507 13.0023 14.2817 13.0023 20.1338 13.0023C20.1338 14.777 20.1338 16.4883 20.1338 18.2629C14.2606 18.2629 8.42958 18.2629 2.57747 18.2629C2.57747 20.5235 2.57747 22.7418 2.57747 25.0023C4.45775 25.0023 6.29577 25.0023 8.1338 25.0023C8.1338 26.8192 8.1338 28.5728 8.1338 30.3685C6.27465 30.3685 4.43662 30.3685 2.59859 30.3685C2.59859 32.6502 2.59859 34.8685 2.59859 37.1502C8.47183 37.1502 14.3028 37.1502 20.1338 37.1502C20.1338 38.9037 20.1338 40.615 20.1338 42.3685C14.2606 42.3685 8.42958 42.3685 2.57747 42.3685C2.57747 44.6925 2.57747 46.953 2.57747 49.2559C4.43662 49.2559 6.27465 49.2559 8.11268 49.2559C8.11268 51.0094 8.11268 52.7206 8.11268 54.4953C6.23239 54.4953 4.39437 54.4953 2.57747 54.4953C2.57747 55.5094 2.57747 56.4812 2.57747 57.453C4.85916 57.4742 7.09859 57.4742 9.42254 57.4742Z" fill="#3498db"/>
<path d="M14.6405 19.5305C14.6405 24.939 14.6405 30.3052 14.6405 35.7136C12.887 35.7136 11.1758 35.7136 9.44336 35.7136C9.44336 30.3263 9.44336 24.939 9.44336 19.5305C11.1546 19.5305 12.8659 19.5305 14.6405 19.5305Z" fill="#3498db"/>
<path d="M33.4434 19.5094C35.1969 19.5094 36.887 19.5094 38.6194 19.5094C38.6194 24.9178 38.6194 30.284 38.6194 35.6925C36.9081 35.6925 35.1969 35.6925 33.4434 35.6925C33.4434 30.3263 33.4434 24.939 33.4434 19.5094Z" fill="#3498db"/>
<path d="M15.9297 30.2206C15.9297 28.4882 15.9297 26.777 15.9297 25.0235C21.317 25.0235 26.6832 25.0235 32.0917 25.0235C32.0917 26.7559 32.0917 28.4671 32.0917 30.2206C26.7255 30.2206 21.3593 30.2206 15.9297 30.2206Z" fill="#3498db"/>
<path d="M44.1339 13.0446C44.1339 14.7559 44.1339 16.446 44.1339 18.1995C38.7466 18.1995 33.3593 18.1995 27.9297 18.1995C27.9297 16.4883 27.9297 14.7981 27.9297 13.0446C33.317 13.0446 38.7043 13.0446 44.1339 13.0446Z" fill="#3498db"/>
<path d="M21.4434 31.6361C23.1758 31.6361 24.887 31.6361 26.6194 31.6361C26.6194 37.0235 26.6194 42.4108 26.6194 47.8192C24.9081 47.8192 23.1969 47.8192 21.4434 47.8192C21.4434 42.4319 21.4434 37.0657 21.4434 31.6361Z" fill="#3498db"/>
<path d="M44.1339 37.0446C44.1339 38.777 44.1339 40.4671 44.1339 42.1995C38.7255 42.1995 33.3381 42.1995 27.9297 42.1995C27.9297 40.4883 27.9297 38.777 27.9297 37.0446C33.317 37.0446 38.7043 37.0446 44.1339 37.0446Z" fill="#3498db"/>
<path d="M15.9297 49.2559C21.3593 49.2559 26.7043 49.2559 32.1128 49.2559C32.1128 50.9671 32.1128 52.6784 32.1128 54.4108C26.7255 54.4108 21.3593 54.4108 15.9297 54.4108C15.9297 52.7207 15.9297 51.0094 15.9297 49.2559Z" fill="#3498db"/>
<path d="M45.4443 31.5305C47.1767 31.5305 48.8669 31.5305 50.5993 31.5305C50.5993 36.9178 50.5993 42.284 50.5993 47.6925C48.888 47.6925 47.1767 47.6925 45.4443 47.6925C45.4443 42.3052 45.4443 36.9601 45.4443 31.5305Z" fill="#3498db"/>
</svg>
