<svg width="66" height="62" viewBox="0 0 66 62" fill="none" xmlns="http://www.w3.org/2000/svg">
<path d="M54.4586 44.563C55.9568 44.563 57.3682 44.563 58.8013 44.563C59.6264 44.563 59.6915 44.6064 59.9738 45.3881C61.6675 50.165 63.3611 54.9203 65.033 59.6973C65.3805 60.6744 65.1416 61.0001 64.0994 61.0001C43.4281 61.0001 22.7786 61.0001 2.10739 61.0001C2.08567 61.0001 2.06396 61.0001 2.06396 61.0001C1.34742 61.0001 1 60.7612 1 60.2835C1 59.8058 1.36913 59.567 2.08567 59.567C13.6372 59.567 25.1671 59.567 36.7187 59.567C45.4041 59.567 54.0894 59.567 62.7748 59.567C62.992 59.567 63.2091 59.567 63.4697 59.567C63.3828 59.3064 63.3394 59.1327 63.2742 58.9373C61.7977 54.7683 60.3212 50.5993 58.8447 46.4303C58.7144 46.0829 58.5841 45.9526 58.1933 45.9743C56.8471 45.9961 55.5225 45.9961 54.1763 45.9743C53.8289 45.9743 53.6335 46.0612 53.4598 46.4086C52.8301 47.668 52.1569 48.9057 51.5273 50.165C51.2884 50.6645 50.941 50.8816 50.3764 50.8816C46.772 50.8599 43.1676 50.8816 39.5848 50.8816C39.4111 50.8816 39.1723 50.9033 39.0637 50.8164C38.8683 50.621 38.6077 50.3388 38.6295 50.1216C38.6512 49.9045 38.9552 49.6656 39.194 49.5136C39.3243 49.4268 39.5414 49.4919 39.7368 49.4919C43.1241 49.4919 46.5114 49.4919 49.877 49.4919C50.2027 49.4919 50.3982 49.4051 50.5502 49.1011C53.8723 42.739 57.2162 36.3987 60.5601 30.0584C60.6252 29.9281 60.6686 29.7978 60.7772 29.5807C60.5166 29.5807 60.3429 29.5807 60.1475 29.5807C52.7649 29.5807 45.3823 29.5807 37.9998 29.5807C37.5872 29.5807 37.3484 29.711 37.1529 30.0584C33.2879 36.7244 29.3795 43.3904 25.5145 50.0782C25.1888 50.6427 24.8197 50.8599 24.1683 50.8382C19.3913 50.8164 14.6143 50.8382 9.83739 50.8164C6.16781 50.8164 3.71418 48.3628 3.71418 44.6932C3.71418 40.3506 3.71418 36.0079 3.71418 31.6652C3.71418 29.559 4.47416 27.8219 6.10267 26.4974C7.4489 25.39 8.79514 24.3043 10.1414 23.1969C10.6408 22.7844 11.1185 22.8712 11.3356 23.3923C11.5093 23.8049 11.2922 24.0437 11.0099 24.2609C9.68539 25.3248 8.38258 26.4322 7.05806 27.4962C5.71182 28.5819 5.06042 29.9498 5.08213 31.6869C5.10385 36.1381 5.08213 40.5894 5.10385 45.0407C5.10385 47.1252 6.38494 48.8405 8.33915 49.3182C8.81685 49.4268 9.29455 49.4702 9.79396 49.4702C14.3972 49.4919 19.0222 49.4702 23.6254 49.4919C24.0163 49.4919 24.2334 49.3616 24.4288 49.0142C28.3156 42.3265 32.224 35.6387 36.089 28.951C36.393 28.4081 36.7838 28.191 37.3918 28.191C45.4258 28.2127 53.4598 28.191 61.4937 28.191C62.5794 28.191 62.8183 28.6036 62.3189 29.5807C59.8001 34.3794 57.303 39.178 54.7843 43.9984C54.654 44.1287 54.5889 44.3241 54.4586 44.563Z" fill="#3498db" stroke="#3498db"/>
<path d="M58.7363 12.6875C58.7363 14.468 58.7363 16.2702 58.7363 18.0507C58.7363 18.3547 58.6494 18.5284 58.3672 18.6804C55.197 20.4827 52.0268 22.3066 48.8567 24.1088C48.683 24.2174 48.3573 24.2174 48.1835 24.1088C44.9917 22.2849 41.8215 20.4392 38.6513 18.6153C38.3473 18.4416 38.3039 18.2245 38.3039 17.9205C38.3039 14.5983 38.3691 11.2544 38.2822 7.93227C38.2605 6.91173 38.6079 6.43404 39.433 5.97805C42.2123 4.45811 44.9265 2.87303 47.6624 1.26623C48.2704 0.8971 48.7481 0.918814 49.3561 1.28794C52.2657 3.00331 55.197 4.67525 58.15 6.34718C58.5626 6.58603 58.758 6.86831 58.758 7.38943C58.7146 9.14822 58.7363 10.907 58.7363 12.6875ZM39.7587 8.40996C39.737 8.54024 39.737 8.60538 39.737 8.67053C39.737 11.5367 39.737 14.4246 39.7587 17.2908C39.7587 17.4862 39.9541 17.7468 40.1496 17.8336C42.7986 19.3753 45.4694 20.9169 48.1184 22.4586C48.4441 22.654 48.683 22.6323 49.0087 22.4369C51.6143 20.9169 54.2416 19.4187 56.8472 17.9205C57.1946 17.725 57.3466 17.5079 57.3466 17.0736C57.3249 14.3595 57.3249 11.6453 57.3249 8.93109C57.3249 8.75738 57.3032 8.58367 57.3032 8.36654C57.1946 8.40996 57.1295 8.43168 57.0644 8.4751C54.5673 9.90819 52.0703 11.3196 49.5949 12.7744C49.4212 12.8829 49.2692 13.1652 49.2692 13.3606C49.2475 14.7937 49.2475 16.2268 49.2475 17.6382C49.2475 18.333 49.2692 19.0061 49.2475 19.701C49.2258 20.3089 48.6612 20.6998 48.227 20.3524C48.0098 20.2004 47.8578 19.8095 47.8578 19.5273C47.8361 17.5296 47.8361 15.5103 47.8578 13.5126C47.8578 13.1218 47.7276 12.9047 47.3801 12.7092C45.0134 11.363 42.6466 9.99505 40.2798 8.64881C40.1061 8.60539 39.9541 8.51853 39.7587 8.40996ZM40.497 7.10715C40.6707 7.21572 40.801 7.30258 40.9312 7.38943C43.3197 8.75738 45.7082 10.1036 48.075 11.4933C48.4007 11.6887 48.6395 11.6887 48.9652 11.4933C51.3537 10.1036 53.7422 8.71395 56.1307 7.32429C56.261 7.23744 56.3912 7.15058 56.5649 7.04201C56.4564 6.97687 56.3912 6.91173 56.3044 6.86831C53.8073 5.43522 51.3103 4.00213 48.8132 2.61247C48.6395 2.52561 48.3355 2.54732 48.1401 2.65589C45.7299 4.04555 43.298 5.45693 40.8878 6.84659C40.7575 6.93345 40.649 6.99859 40.497 7.10715Z" fill="#3498db" stroke="#3498db"/>
<path d="M18.4803 22.7626C13.2257 22.7843 8.99152 18.5284 8.96981 13.2521C8.9481 7.97569 13.1822 3.71985 18.4586 3.71985C23.6915 3.71985 27.9691 7.9974 27.9908 13.2521C27.9908 18.5067 23.7784 22.7409 18.4803 22.7626ZM10.3812 13.2304C10.3812 17.6816 14.0073 21.3078 18.4586 21.3078C22.9316 21.3078 26.5577 17.6165 26.5577 13.1218C26.5577 8.69223 22.9533 5.15294 18.4803 5.15294C13.9856 5.13122 10.3812 8.73566 10.3812 13.2304Z" fill="#3498db" stroke="#3498db"/>
<path d="M33.1801 31.1873C33.1801 31.7953 32.9847 32.0776 32.5504 32.0776C32.1379 32.0776 31.8339 31.7953 31.8122 31.2959C31.7687 29.624 31.0305 28.3429 29.7059 27.3223C28.5768 26.4538 27.4912 25.5201 26.3838 24.6082C26.2101 24.4562 26.0147 24.3259 25.8409 24.1522C25.4501 23.8048 25.385 23.4139 25.689 23.1099C26.0147 22.7842 26.3621 22.8277 26.7095 23.0882C26.9266 23.2619 27.122 23.4356 27.3392 23.6093C28.49 24.543 29.6408 25.4767 30.7699 26.4321C32.3116 27.6915 33.0933 29.2983 33.1801 31.1873Z" fill="#3498db" stroke="#3498db"/>
</svg>
