<svg width="63" height="60" viewBox="0 0 63 60" fill="none" xmlns="http://www.w3.org/2000/svg">
<path d="M23.0826 10.3871C22.3556 10.3871 21.7195 10.3871 21.0152 10.3871C21.0152 10.1374 20.9924 9.91267 20.9924 9.71292C20.9924 7.71541 20.9924 5.71791 20.9924 3.72041C20.9924 1.54812 22.2193 0.149868 24.1958 0.0250244C24.3321 0.0250244 24.4685 0.0250244 24.5821 0.0250244C36.1915 0.0250244 47.8009 0.0250244 59.3877 0.0250244C60.6599 0.0250244 61.7732 0.399556 62.432 1.67296C62.7047 2.22228 62.9319 2.87147 62.9319 3.47072C62.9546 14.2572 62.9546 25.0188 62.9546 35.8053C62.9546 37.5531 61.8641 38.9264 60.2737 39.226C60.1828 39.251 60.092 39.276 59.9784 39.3009C60.0693 39.5256 60.1374 39.7004 60.2283 39.9002C61.0235 41.673 61.8413 43.4208 62.6365 45.1936C63.0455 46.1174 63.0454 46.6168 62.5911 47.0662C62.1821 47.4657 61.7277 47.4158 60.978 46.9414C57.2066 44.5194 53.4353 42.0974 49.6412 39.7004C49.255 39.4507 48.7552 39.3009 48.3235 39.3009C40.3945 39.276 32.4656 39.276 24.5366 39.3009C23.1053 39.3009 21.9694 38.8016 21.3105 37.3534C21.1288 36.9539 20.9924 36.4795 20.9924 36.055C20.9697 29.9376 20.9697 23.8203 20.9697 17.7029C20.9697 17.628 20.9924 17.5531 20.9924 17.4283C21.6513 17.4283 22.3102 17.4283 23.0372 17.4283C23.0372 17.653 23.0372 17.9027 23.0372 18.1274C23.0372 23.8952 23.0372 29.663 23.0372 35.4058C23.0372 36.6043 23.3779 36.9788 24.4457 36.9788C32.5565 36.9788 40.6444 36.9788 48.7552 37.0038C49.255 37.0038 49.8002 37.1786 50.2546 37.4532C53.0718 39.2011 55.8435 41.0238 58.638 42.7966C58.8197 42.9214 59.0015 43.0213 59.3195 43.221C59.0469 42.6218 58.8651 42.1474 58.6607 41.6979C58.229 40.7491 57.7973 39.8003 57.3657 38.8515C56.9113 37.8278 57.343 37.0288 58.388 36.9788C58.7743 36.9539 59.1378 36.9788 59.524 36.9788C60.4782 36.9788 60.8417 36.5793 60.8417 35.5556C60.8417 30.6368 60.8417 25.6929 60.8417 20.7741C60.8417 15.1561 60.8417 9.53813 60.8417 3.92016C60.8417 2.77159 60.5009 2.39706 59.4558 2.39706C47.801 2.39706 36.1233 2.39706 24.4685 2.39706C23.3779 2.39706 23.0372 2.74662 23.0372 3.94512C23.0826 6.0425 23.0826 8.16485 23.0826 10.3871Z" fill="#3498db"/>
<path d="M26.2179 12.7091C26.2179 13.5081 26.2179 14.2072 26.2179 15.0062C25.9452 15.0062 25.7181 15.0062 25.4681 15.0062C18.2662 15.0062 11.087 15.0062 3.88502 15.0062C3.70327 15.0062 3.49879 15.0062 3.31704 15.0062C2.45372 15.0312 2.09021 15.4557 2.06749 16.4045C2.06749 17.5531 2.06749 18.7016 2.06749 19.8252C2.06749 29.1885 2.06749 38.5518 2.06749 47.9151C2.06749 49.2634 2.38556 49.613 3.61239 49.613C3.93046 49.613 4.24852 49.613 4.56659 49.613C5.54351 49.6379 5.99789 50.4369 5.56623 51.4107C5.02097 52.6592 4.43028 53.9076 3.8623 55.156C3.77142 55.3308 3.70326 55.5306 3.58967 55.8302C3.8623 55.6554 4.04405 55.5805 4.2258 55.4557C7.04297 53.6579 9.83742 51.8352 12.6546 50.0624C13.0635 49.7878 13.6088 49.6379 14.0859 49.6379C22.1057 49.613 30.1483 49.613 38.1681 49.613C38.3499 49.613 38.5543 49.613 38.7361 49.613C39.5085 49.5381 39.8493 49.1136 39.8493 48.2896C39.8493 46.2921 39.8493 44.2946 39.8493 42.2971C39.8493 42.0724 39.8493 41.8477 39.8493 41.573C40.5536 41.573 41.2352 41.573 41.9622 41.573C41.9622 42.0225 41.9622 42.4469 41.9622 42.8964C41.9622 44.6692 41.9622 46.4419 41.9622 48.1898C41.9622 50.437 40.6672 51.9101 38.5998 51.9101C30.6254 51.9101 22.651 51.9101 14.6993 51.9101C14.154 51.9101 13.6769 52.0599 13.1998 52.3595C9.40575 54.8065 5.58895 57.2534 1.79486 59.6754C1.15873 60.0749 0.658909 60.0749 0.295404 59.6504C-0.0908207 59.201 -0.11354 58.7016 0.159089 58.1523C1.02241 56.2547 1.88574 54.3571 2.74906 52.4594C2.81722 52.2846 2.88538 52.1348 2.97625 51.9101C1.99933 51.7603 1.18145 51.3358 0.613471 50.4619C0.204527 49.8876 5.56447e-05 49.1885 5.56447e-05 48.4145C5.56447e-05 37.6779 5.56447e-05 26.9413 5.56447e-05 16.2047C5.56447e-05 14.3071 1.27232 12.834 2.99897 12.7091C3.13529 12.7091 3.2716 12.7091 3.3852 12.7091C10.8143 12.7091 18.2662 12.7091 25.6953 12.7091C25.8544 12.7091 26.0134 12.7091 26.2179 12.7091Z" fill="#3498db"/>
<path d="M32.6016 19.5756C32.6016 18.0026 32.5107 16.4795 32.6243 14.9813C32.9651 9.63802 37.259 5.11867 42.1209 4.66923C47.7779 4.14489 52.7761 8.6143 53.4804 14.7067C53.5486 15.231 53.5486 15.7803 53.5486 16.3297C53.5486 17.3784 53.5486 18.452 53.5486 19.5506C53.8666 19.6006 54.162 19.6255 54.4573 19.6505C56.343 19.8503 57.7516 21.5981 57.7516 23.7204C57.7289 25.7429 56.2521 27.6405 54.4119 27.6405C53.3214 27.6405 52.867 28.1149 52.3445 29.0637C50.7768 31.8603 48.4822 33.7079 45.5742 34.5319C45.1198 34.6568 44.5973 34.6318 44.0974 34.6318C42.8252 34.6318 41.5529 34.6318 40.3034 34.6318C39.2128 34.6318 38.9402 34.2573 38.8493 33.0837C38.7357 31.3858 39.9171 29.3384 41.7574 28.9389C43.6658 28.5144 45.347 29.6131 46.0513 31.6855C46.074 31.7354 46.1194 31.7853 46.1649 31.8603C48.0278 31.0862 49.4364 29.688 50.5497 27.8902C51.2312 26.8166 51.5266 25.693 51.4811 24.3446C51.3903 21.673 51.4584 18.9764 51.4584 16.3047C51.4584 10.7367 47.369 6.56686 42.3254 6.94139C38.1905 7.26599 34.7145 11.286 34.669 15.8553C34.6463 19.276 34.669 22.7217 34.669 26.1424C34.669 27.291 34.3282 27.6655 33.2604 27.6655C32.2381 27.6655 31.2157 27.7654 30.2615 27.1661C28.8302 26.2672 28.0805 24.5444 28.3986 22.7716C28.7166 21.0737 30.0343 19.7754 31.6701 19.6255C31.9427 19.6505 32.1926 19.6255 32.6016 19.5756ZM53.5713 21.9726C53.5713 23.1461 53.5713 24.2448 53.5713 25.3933C54.2983 25.4183 54.9344 25.3434 55.3434 24.6443C55.7069 24.045 55.7523 23.4458 55.4115 22.8216C55.0253 22.0475 54.3665 21.8977 53.5713 21.9726ZM32.488 25.3684C32.488 24.1948 32.488 23.0712 32.488 21.9476C31.7155 21.8727 31.0567 22.0475 30.6477 22.7966C30.3297 23.4208 30.3524 24.0201 30.7159 24.6193C31.1476 25.3184 31.761 25.4433 32.488 25.3684ZM41.0531 32.2847C42.0754 32.2847 42.9842 32.2847 43.9838 32.2847C43.6658 31.5606 43.1887 31.1861 42.5071 31.1861C41.8483 31.1861 41.3712 31.5606 41.0531 32.2847Z" fill="#3498db"/>
<path d="M17.8349 32.3596C17.8349 33.1087 17.8349 33.8328 17.8349 34.5818C13.6546 34.5818 9.47426 34.5818 5.29395 34.5818C5.29395 33.8328 5.29395 33.1087 5.29395 32.3596C9.42882 32.3596 13.6091 32.3596 17.8349 32.3596Z" fill="#3498db"/>
<path d="M17.8349 43.9202C17.8349 44.6692 17.8349 45.3684 17.8349 46.1174C13.6546 46.1174 9.49698 46.1174 5.29395 46.1174C5.29395 45.4183 5.29395 44.6942 5.29395 43.9202C9.45154 43.9202 13.6091 43.9202 17.8349 43.9202Z" fill="#3498db"/>
<path d="M5.27051 28.8141C5.27051 28.065 5.27051 27.3659 5.27051 26.6168C9.45082 26.6168 13.6311 26.6168 17.8342 26.6168C17.8342 27.3409 17.8342 28.065 17.8342 28.8141C13.6538 28.8141 9.47354 28.8141 5.27051 28.8141Z" fill="#3498db"/>
<path d="M31.4663 43.8953C31.4663 44.6693 31.4663 45.3684 31.4663 46.1175C27.6495 46.1175 23.8327 46.1175 19.9932 46.1175C19.9932 45.3934 19.9932 44.6693 19.9932 43.8953C23.81 43.8953 27.6268 43.8953 31.4663 43.8953Z" fill="#3498db"/>
<path d="M5.27051 40.3746C5.27051 39.6006 5.27051 38.8765 5.27051 38.1274C8.04224 38.1274 10.7912 38.1274 13.6084 38.1274C13.6084 38.8515 13.6084 39.6006 13.6084 40.3746C10.8594 40.3746 8.08767 40.3746 5.27051 40.3746Z" fill="#3498db"/>
<path d="M5.29395 20.824C8.06567 20.824 10.8147 20.824 13.6091 20.824C13.6091 21.5481 13.6091 22.2722 13.6091 23.0462C10.8374 23.0462 8.08839 23.0462 5.29395 23.0462C5.29395 22.3221 5.29395 21.598 5.29395 20.824Z" fill="#3498db"/>
<path d="M44.6881 23.2211C45.0062 23.9202 45.3015 24.5694 45.5969 25.2186C44.2337 26.1424 41.8255 26.1424 40.5078 25.2186C40.8032 24.5694 41.0985 23.9452 41.4166 23.2211C42.4844 23.7204 43.5749 23.7704 44.6881 23.2211Z" fill="#3498db"/>
<path d="M41.417 18.5768C41.0989 19.3009 40.8036 19.9252 40.4855 20.6243C39.395 20.1499 38.3272 20.1249 37.214 20.6243C36.8959 19.9501 36.6006 19.276 36.2598 18.5768C38.0091 17.7529 39.6676 17.7529 41.417 18.5768Z" fill="#3498db"/>
<path d="M49.8 18.6518C49.5047 19.276 49.2093 19.9252 48.8912 20.6243C47.8007 20.1499 46.7102 20.0999 45.6197 20.6493C45.3016 19.9501 45.0063 19.3009 44.7109 18.6518C45.8015 17.7529 48.5505 17.7029 49.8 18.6518Z" fill="#3498db"/>
<path d="M33.6475 43.8953C34.6698 43.8953 35.6467 43.8953 36.6918 43.8953C36.6918 44.6443 36.6918 45.3684 36.6918 46.1425C35.6922 46.1425 34.6925 46.1425 33.6475 46.1425C33.6475 45.3934 33.6475 44.6443 33.6475 43.8953Z" fill="#3498db"/>
<path d="M17.8124 38.0774C17.8124 38.8764 17.8124 39.5755 17.8124 40.3496C17.1535 40.3496 16.4719 40.3496 15.7449 40.3496C15.7449 39.6754 15.7222 39.0262 15.7677 38.3521C15.7677 38.2522 15.9494 38.0774 16.0403 38.0774C16.631 38.0774 17.2217 38.0774 17.8124 38.0774Z" fill="#3498db"/>
<path d="M17.8348 20.849C17.8348 21.5981 17.8348 22.2972 17.8348 23.0463C17.1759 23.0463 16.4943 23.0463 15.79 23.0463C15.79 22.3222 15.79 21.623 15.79 20.849C16.4489 20.849 17.1077 20.849 17.8348 20.849Z" fill="#3498db"/>
</svg>
